SplineFontDB: 3.2
FontName: LexicaUltralegible-Regular
FullName: Lexica Ultralegible Regular
FamilyName: Lexica Ultralegible
Weight: Book
Copyright: Copyright 2020 Braille Institute of America, Inc.
Version: 1
ItalicAngle: 0
UnderlinePosition: -105
UnderlineWidth: 57
Ascent: 800
Descent: 200
InvalidEm: 0
sfntRevision: 0x00010000
LayerCount: 2
Layer: 0 1 "Back" 1
Layer: 1 1 "Fore" 0
XUID: [1021 745 -1997356657 15308262]
StyleMap: 0x0040
FSType: 0
OS2Version: 4
OS2_WeightWidthSlopeOnly: 0
OS2_UseTypoMetrics: 1
CreationTime: 1615339189
ModificationTime: 1728931586
PfmFamily: 81
TTFWeight: 400
TTFWidth: 5
LineGap: 0
VLineGap: 0
Panose: 0 0 0 0 0 0 0 0 0 0
OS2TypoAscent: 950
OS2TypoAOffset: 0
OS2TypoDescent: -290
OS2TypoDOffset: 0
OS2TypoLinegap: 0
OS2WinAscent: 950
OS2WinAOffset: 0
OS2WinDescent: 290
OS2WinDOffset: 0
HheadAscent: 950
HheadAOffset: 0
HheadDescent: -290
HheadDOffset: 0
OS2SubXSize: 650
OS2SubYSize: 699
OS2SubXOff: 0
OS2SubYOff: 140
OS2SupXSize: 650
OS2SupYSize: 699
OS2SupXOff: 0
OS2SupYOff: 479
OS2StrikeYSize: 49
OS2StrikeYPos: 258
OS2CapHeight: 668
OS2XHeight: 496
OS2FamilyClass: 2048
OS2Vendor: 'NONE'
OS2CodePages: 20000003.00000000
OS2UnicodeRanges: 800000ef.0000204b.00000000.00000000
Lookup: 4 0 1 "'liga' Standard Ligatures lookup 0" { "'liga' Standard Ligatures lookup 0 subtable"  } ['liga' ('DFLT' <'dflt' > 'grek' <'dflt' > 'latn' <'MOL ' 'dflt' > ) ]
Lookup: 1 0 0 "'zero' Slashed Zero lookup 1" { "'zero' Slashed Zero lookup 1 subtable"  } ['zero' ('DFLT' <'dflt' > 'grek' <'dflt' > 'latn' <'MOL ' 'dflt' > ) ]
Lookup: 1 0 0 "'aalt' Access All Alternates lookup 2" { "'aalt' Access All Alternates lookup 2 subtable"  } ['aalt' ('DFLT' <'dflt' > 'grek' <'dflt' > 'latn' <'dflt' > ) ]
Lookup: 3 0 0 "'aalt' Access All Alternates lookup 3" { "'aalt' Access All Alternates lookup 3 subtable"  } ['aalt' ('DFLT' <'dflt' > 'grek' <'dflt' > 'latn' <'dflt' > ) ]

StartChar: .notdef
Encoding: 1114112 -1 0
Width: 523
GlyphClass: 1
Flags: W
LayerCount: 2
Fore
SplineSet
77 21 m 1,0,-1
 447 21 l 1,1,-1
 262 329 l 1,2,-1
 77 21 l 1,0,-1
69 49 m 1,3,-1
 249 350 l 1,4,-1
 69 650 l 1,5,-1
 69 49 l 1,3,-1
455 47 m 1,6,-1
 455 652 l 1,7,-1
 274 350 l 1,8,-1
 455 47 l 1,6,-1
261 371 m 1,9,-1
 447 680 l 1,10,-1
 76 680 l 1,11,-1
 261 371 l 1,9,-1
48 0 m 1,12,-1
 48 700 l 1,13,-1
 475 700 l 1,14,-1
 475 0 l 1,15,-1
 48 0 l 1,12,-1
EndSplineSet
EndChar

StartChar: exclam
Encoding: 33 33 4
Width: 281
GlyphClass: 1
Flags: W
LayerCount: 2
Fore
SplineSet
114 195 m 1,0,-1
 96 496 l 1,1,-1
 96 668 l 1,2,-1
 185 668 l 1,3,-1
 185 496 l 1,4,-1
 167 195 l 1,5,-1
 114 195 l 1,0,-1
205 52 m 0,6,7
 205 26 205 26 186 7 c 128,-1,8
 167 -12 167 -12 140 -12 c 0,9,10
 114 -12 114 -12 95 7 c 128,-1,11
 76 26 76 26 76 52 c 0,12,13
 76 79 76 79 95 98 c 128,-1,14
 114 117 114 117 140 117 c 0,15,16
 167 117 167 117 186 98 c 128,-1,17
 205 79 205 79 205 52 c 0,6,7
EndSplineSet
EndChar

StartChar: numbersign
Encoding: 35 35 6
Width: 655
GlyphClass: 1
Flags: W
LayerCount: 2
Fore
SplineSet
255 253 m 1,0,-1
 378 253 l 1,1,-1
 400 415 l 1,2,-1
 277 415 l 1,3,-1
 255 253 l 1,0,-1
137 0 m 1,4,-1
 162 172 l 1,5,-1
 38 172 l 1,6,-1
 49 253 l 1,7,-1
 173 253 l 1,8,-1
 196 415 l 1,9,-1
 72 415 l 1,10,-1
 83 496 l 1,11,-1
 207 496 l 1,12,-1
 231 668 l 1,13,-1
 313 668 l 1,14,-1
 289 496 l 1,15,-1
 412 496 l 1,16,-1
 436 668 l 1,17,-1
 518 668 l 1,18,-1
 494 496 l 1,19,-1
 617 496 l 1,20,-1
 606 415 l 1,21,-1
 482 415 l 1,22,-1
 460 253 l 1,23,-1
 583 253 l 1,24,-1
 572 172 l 1,25,-1
 448 172 l 1,26,-1
 424 0 l 1,27,-1
 342 0 l 1,28,-1
 366 172 l 1,29,-1
 243 172 l 1,30,-1
 219 0 l 1,31,-1
 137 0 l 1,4,-1
EndSplineSet
EndChar

StartChar: dollar
Encoding: 36 36 7
Width: 594
GlyphClass: 1
Flags: W
LayerCount: 2
Fore
SplineSet
317 68 m 1,0,1
 382 72 382 72 419.5 102 c 128,-1,2
 457 132 457 132 457 180 c 0,3,4
 457 225 457 225 424 252.5 c 128,-1,5
 391 280 391 280 317 297 c 1,6,-1
 317 68 l 1,0,1
267 600 m 1,7,8
 211 595 211 595 177 569 c 128,-1,9
 143 543 143 543 143 503 c 0,10,11
 143 464 143 464 171 437.5 c 128,-1,12
 199 411 199 411 252 401 c 2,13,-1
 267 398 l 1,14,-1
 267 600 l 1,7,8
554 188 m 0,15,16
 554 103 554 103 489 48 c 128,-1,17
 424 -7 424 -7 317 -12 c 1,18,-1
 317 -87 l 1,19,-1
 267 -87 l 1,20,-1
 267 -11 l 1,21,22
 182 -3 182 -3 123.5 37.5 c 128,-1,23
 65 78 65 78 40 146 c 1,24,-1
 127 172 l 1,25,26
 161 83 161 83 267 69 c 1,27,-1
 267 308 l 1,28,-1
 231 315 l 2,29,30
 143 332 143 332 95 379.5 c 128,-1,31
 47 427 47 427 47 498 c 0,32,33
 47 572 47 572 107.5 621.5 c 128,-1,34
 168 671 168 671 267 679 c 1,35,-1
 267 742 l 1,36,-1
 317 742 l 1,37,-1
 317 679 l 1,38,39
 470 668 470 668 523 555 c 1,40,-1
 437 530 l 1,41,42
 401 590 401 590 317 599 c 1,43,-1
 317 386 l 1,44,-1
 329 383 l 2,45,46
 456 349 456 349 505 306.5 c 128,-1,47
 554 264 554 264 554 188 c 0,15,16
EndSplineSet
EndChar

StartChar: percent
Encoding: 37 37 8
Width: 927
GlyphClass: 1
Flags: W
LayerCount: 2
Fore
SplineSet
600 170 m 128,-1,1
 600 125 600 125 631.5 93.5 c 128,-1,2
 663 62 663 62 708 62 c 0,3,4
 752 62 752 62 783.5 93.5 c 128,-1,5
 815 125 815 125 815 170 c 0,6,7
 815 214 815 214 783.5 245.5 c 128,-1,8
 752 277 752 277 708 277 c 0,9,10
 663 277 663 277 631.5 246 c 128,-1,0
 600 215 600 215 600 170 c 128,-1,1
889 170 m 128,-1,12
 889 94 889 94 836 41 c 128,-1,13
 783 -12 783 -12 708 -12 c 0,14,15
 632 -12 632 -12 579 41 c 128,-1,16
 526 94 526 94 526 170 c 128,-1,17
 526 246 526 246 579 299 c 128,-1,18
 632 352 632 352 708 352 c 0,19,20
 783 352 783 352 836 299 c 128,-1,11
 889 246 889 246 889 170 c 128,-1,12
112 498 m 0,21,22
 112 454 112 454 143.5 422.5 c 128,-1,23
 175 391 175 391 220 391 c 0,24,25
 264 391 264 391 295.5 422.5 c 128,-1,26
 327 454 327 454 327 498 c 0,27,28
 327 543 327 543 296 574.5 c 128,-1,29
 265 606 265 606 220 606 c 0,30,31
 174 606 174 606 143 575 c 128,-1,32
 112 544 112 544 112 498 c 0,21,22
401 498 m 0,33,34
 401 423 401 423 348 370 c 128,-1,35
 295 317 295 317 220 317 c 0,36,37
 144 317 144 317 91 370 c 128,-1,38
 38 423 38 423 38 498 c 0,39,40
 38 574 38 574 91 627 c 128,-1,41
 144 680 144 680 220 680 c 128,-1,42
 296 680 296 680 348.5 627 c 128,-1,43
 401 574 401 574 401 498 c 0,33,34
186 0 m 1,44,-1
 654 668 l 1,45,-1
 742 668 l 1,46,-1
 274 0 l 1,47,-1
 186 0 l 1,44,-1
EndSplineSet
EndChar

StartChar: ampersand
Encoding: 38 38 9
Width: 705
GlyphClass: 1
Flags: W
LayerCount: 2
Fore
SplineSet
128 187 m 0,0,1
 128 133 128 133 166.5 97.5 c 128,-1,2
 205 62 205 62 263 62 c 0,3,4
 370 62 370 62 440 143 c 1,5,-1
 259 334 l 1,6,7
 128 288 128 288 128 187 c 0,0,1
319 606 m 128,-1,9
 276 606 276 606 250.5 588 c 128,-1,10
 225 570 225 570 225 540 c 0,11,12
 225 513 225 513 241.5 485.5 c 128,-1,13
 258 458 258 458 278.5 437 c 128,-1,14
 299 416 299 416 300 415 c 0,15,16
 409 455 409 455 409 531 c 0,17,18
 409 567 409 567 385.5 586.5 c 128,-1,8
 362 606 362 606 319 606 c 128,-1,9
494 87 m 1,19,20
 401 -12 401 -12 263 -12 c 0,21,22
 163 -12 163 -12 100.5 42.5 c 128,-1,23
 38 97 38 97 38 183 c 0,24,25
 38 329 38 329 209 387 c 1,26,27
 135 470 135 470 135 538 c 0,28,29
 135 602 135 602 185 641 c 128,-1,30
 235 680 235 680 317 680 c 0,31,32
 398 680 398 680 444.5 641.5 c 128,-1,33
 491 603 491 603 491 536 c 0,34,35
 491 422 491 422 351 363 c 1,36,-1
 487 219 l 1,37,38
 515 285 515 285 521 361 c 1,39,-1
 608 361 l 1,40,41
 599 249 599 249 546 157 c 1,42,-1
 695 0 l 1,43,-1
 576 0 l 1,44,-1
 494 87 l 1,19,20
EndSplineSet
EndChar

StartChar: quotesingle
Encoding: 39 39 10
Width: 160
GlyphClass: 1
Flags: W
LayerCount: 2
Fore
SplineSet
54 447 m 1,0,-1
 40 668 l 1,1,-1
 120 668 l 1,2,-1
 106 447 l 1,3,-1
 54 447 l 1,0,-1
EndSplineSet
EndChar

StartChar: parenleft
Encoding: 40 40 11
Width: 300
GlyphClass: 1
Flags: W
LayerCount: 2
Fore
SplineSet
265 -161 m 1,0,-1
 189 -161 l 1,1,2
 50 37 50 37 50 279 c 0,3,4
 50 492 50 492 160 668 c 1,5,-1
 235 668 l 1,6,7
 124 509 124 509 124 286 c 0,8,9
 124 166 124 166 160.5 50 c 128,-1,10
 197 -66 197 -66 265 -161 c 1,0,-1
EndSplineSet
EndChar

StartChar: parenright
Encoding: 41 41 12
Width: 300
GlyphClass: 1
Flags: W
LayerCount: 2
Fore
SplineSet
112 -161 m 1,0,-1
 35 -161 l 1,1,2
 103 -69 103 -69 140 48 c 128,-1,3
 177 165 177 165 177 289 c 0,4,5
 177 512 177 512 66 668 c 1,6,-1
 141 668 l 1,7,8
 250 496 250 496 250 282 c 0,9,10
 250 41 250 41 112 -161 c 1,0,-1
EndSplineSet
EndChar

StartChar: asterisk
Encoding: 42 42 13
Width: 433
GlyphClass: 1
Flags: W
LayerCount: 2
Fore
SplineSet
153 388 m 1,0,-1
 107 422 l 1,1,-1
 169 508 l 1,2,-1
 68 540 l 1,3,-1
 86 595 l 1,4,-1
 187 562 l 1,5,-1
 187 668 l 1,6,-1
 244 668 l 1,7,-1
 244 562 l 1,8,-1
 345 595 l 1,9,-1
 363 540 l 1,10,-1
 261 508 l 1,11,-1
 324 422 l 1,12,-1
 278 388 l 1,13,-1
 215 474 l 1,14,-1
 153 388 l 1,0,-1
EndSplineSet
EndChar

StartChar: plus
Encoding: 43 43 14
Width: 602
GlyphClass: 1
Flags: W
LayerCount: 2
Fore
SplineSet
261 0 m 1,0,-1
 261 208 l 1,1,-1
 53 208 l 1,2,-1
 53 288 l 1,3,-1
 261 288 l 1,4,-1
 261 496 l 1,5,-1
 341 496 l 1,6,-1
 341 288 l 1,7,-1
 549 288 l 1,8,-1
 549 208 l 1,9,-1
 341 208 l 1,10,-1
 341 0 l 1,11,-1
 261 0 l 1,0,-1
EndSplineSet
EndChar

StartChar: comma
Encoding: 44 44 15
Width: 205
GlyphClass: 1
Flags: W
LayerCount: 2
Fore
SplineSet
102 117 m 0,0,1
 129 117 129 117 148 98.5 c 128,-1,2
 167 80 167 80 167 53 c 0,3,4
 167 40 167 40 162 28 c 2,5,-1
 100 -133 l 1,6,-1
 45 -133 l 1,7,-1
 92 -11 l 1,8,9
 69 -7 69 -7 53.5 11 c 128,-1,10
 38 29 38 29 38 53 c 0,11,12
 38 79 38 79 57 98 c 128,-1,13
 76 117 76 117 102 117 c 0,0,1
EndSplineSet
EndChar

StartChar: hyphen
Encoding: 45 45 16
Width: 368
GlyphClass: 1
Flags: W
LayerCount: 2
Fore
SplineSet
38 208 m 1,0,-1
 38 289 l 1,1,-1
 330 289 l 1,2,-1
 330 208 l 1,3,-1
 38 208 l 1,0,-1
EndSplineSet
EndChar

StartChar: period
Encoding: 46 46 17
Width: 205
GlyphClass: 1
Flags: W
LayerCount: 2
Fore
SplineSet
167 52 m 0,0,1
 167 26 167 26 148 7 c 128,-1,2
 129 -12 129 -12 102 -12 c 0,3,4
 76 -12 76 -12 57 7 c 128,-1,5
 38 26 38 26 38 52 c 0,6,7
 38 79 38 79 57 98 c 128,-1,8
 76 117 76 117 102 117 c 0,9,10
 129 117 129 117 148 98 c 128,-1,11
 167 79 167 79 167 52 c 0,0,1
EndSplineSet
EndChar

StartChar: slash
Encoding: 47 47 18
Width: 377
GlyphClass: 1
Flags: W
LayerCount: 2
Fore
SplineSet
15 0 m 1,0,-1
 275 668 l 1,1,-1
 362 668 l 1,2,-1
 102 0 l 1,3,-1
 15 0 l 1,0,-1
EndSplineSet
EndChar

StartChar: zero
Encoding: 48 48 19
Width: 648
GlyphClass: 1
Flags: WO
LayerCount: 2
Fore
SplineSet
497 335 m 4,0,1
 497 62 497 62 324 62 c 4,2,3
 255 62 255 62 213 107 c 5,4,-1
 477 486 l 5,5,6
 497 418 497 418 497 335 c 4,0,1
151 335 m 4,7,8
 151 606 151 606 324 606 c 4,9,10
 390 606 390 606 431 566 c 5,11,-1
 168 190 l 5,12,13
 151 256 151 256 151 335 c 4,7,8
60 335 m 4,14,15
 60 166 60 166 128 77 c 132,-1,16
 196 -12 196 -12 324 -12 c 132,-1,17
 452 -12 452 -12 520 77 c 132,-1,18
 588 166 588 166 588 335 c 4,19,20
 588 503 588 503 520 591.5 c 132,-1,21
 452 680 452 680 324 680 c 132,-1,22
 196 680 196 680 128 591.5 c 132,-1,23
 60 503 60 503 60 335 c 4,14,15
EndSplineSet
Substitution2: "'tnum' Tabular Numbers lookup 16 subtable" zero.tf
Substitution2: "'aalt' Access All Alternates lookup 2 subtable" zero.alt1
Substitution2: "'zero' Slashed Zero lookup 1 subtable" zero.alt1
EndChar

StartChar: one
Encoding: 49 49 20
Width: 402
GlyphClass: 1
Flags: W
LayerCount: 2
Fore
SplineSet
42 571 m 1,0,1
 134 571 134 571 182 593.5 c 128,-1,2
 230 616 230 616 248 668 c 1,3,-1
 304 668 l 1,4,-1
 304 0 l 1,5,-1
 220 0 l 1,6,-1
 220 504 l 1,7,-1
 42 504 l 1,8,-1
 42 571 l 1,0,1
EndSplineSet
Substitution2: "'tnum' Tabular Numbers lookup 16 subtable" one.tf
Substitution2: "'sups' Superscript lookup 11 subtable" uni00B9
AlternateSubs2: "'aalt' Access All Alternates lookup 3 subtable" uni00B9 one.tf
EndChar

StartChar: two
Encoding: 50 50 21
Width: 549
GlyphClass: 1
Flags: W
LayerCount: 2
Fore
SplineSet
497 505 m 0,0,1
 497 411 497 411 417.5 314 c 128,-1,2
 338 217 338 217 147 77 c 1,3,-1
 515 77 l 1,4,-1
 515 0 l 1,5,-1
 34 0 l 1,6,-1
 34 75 l 1,7,8
 236 224 236 224 322 320 c 128,-1,9
 408 416 408 416 408 494 c 0,10,11
 408 548 408 548 374.5 579 c 128,-1,12
 341 610 341 610 283 610 c 0,13,14
 227 610 227 610 190.5 580.5 c 128,-1,15
 154 551 154 551 143 498 c 1,16,-1
 59 522 l 1,17,18
 77 596 77 596 137 638 c 128,-1,19
 197 680 197 680 285 680 c 0,20,21
 382 680 382 680 439.5 632.5 c 128,-1,22
 497 585 497 585 497 505 c 0,0,1
EndSplineSet
Substitution2: "'tnum' Tabular Numbers lookup 16 subtable" two.tf
Substitution2: "'sups' Superscript lookup 11 subtable" uni00B2
AlternateSubs2: "'aalt' Access All Alternates lookup 3 subtable" uni00B2 two.tf
EndChar

StartChar: three
Encoding: 51 51 22
Width: 574
GlyphClass: 1
Flags: W
LayerCount: 2
Fore
SplineSet
514 188 m 0,0,1
 514 97 514 97 448 42.5 c 128,-1,2
 382 -12 382 -12 272 -12 c 0,3,4
 182 -12 182 -12 122.5 30 c 128,-1,5
 63 72 63 72 42 151 c 1,6,-1
 125 175 l 1,7,8
 150 58 150 58 273 58 c 0,9,10
 343 58 343 58 383.5 93 c 128,-1,11
 424 128 424 128 424 187 c 0,12,13
 424 252 424 252 374 283 c 128,-1,14
 324 314 324 314 218 314 c 1,15,-1
 218 390 l 1,16,17
 317 390 317 390 362 416.5 c 128,-1,18
 407 443 407 443 407 501 c 0,19,20
 407 551 407 551 371.5 580.5 c 128,-1,21
 336 610 336 610 277 610 c 0,22,23
 219 610 219 610 182 580.5 c 128,-1,24
 145 551 145 551 134 498 c 1,25,-1
 52 522 l 1,26,27
 71 597 71 597 130.5 638.5 c 128,-1,28
 190 680 190 680 279 680 c 0,29,30
 383 680 383 680 439 636 c 128,-1,31
 495 592 495 592 495 510 c 0,32,33
 495 458 495 458 466.5 417.5 c 128,-1,34
 438 377 438 377 386 355 c 1,35,36
 514 316 514 316 514 188 c 0,0,1
EndSplineSet
Substitution2: "'tnum' Tabular Numbers lookup 16 subtable" three.tf
Substitution2: "'sups' Superscript lookup 11 subtable" uni00B3
AlternateSubs2: "'aalt' Access All Alternates lookup 3 subtable" uni00B3 three.tf
EndChar

StartChar: four
Encoding: 52 52 23
Width: 614
GlyphClass: 1
Flags: W
LayerCount: 2
Fore
SplineSet
129 244 m 1,0,-1
 370 244 l 1,1,-1
 370 553 l 1,2,-1
 129 244 l 1,0,-1
370 0 m 1,3,-1
 370 165 l 1,4,-1
 38 165 l 1,5,-1
 38 244 l 1,6,-1
 369 668 l 1,7,-1
 454 668 l 1,8,-1
 454 244 l 1,9,-1
 576 244 l 1,10,-1
 576 165 l 1,11,-1
 454 165 l 1,12,-1
 454 0 l 1,13,-1
 370 0 l 1,3,-1
EndSplineSet
Substitution2: "'tnum' Tabular Numbers lookup 16 subtable" four.tf
Substitution2: "'sups' Superscript lookup 11 subtable" uni2074
AlternateSubs2: "'aalt' Access All Alternates lookup 3 subtable" four.tf uni2074
EndChar

StartChar: five
Encoding: 53 53 24
Width: 583
GlyphClass: 1
Flags: W
LayerCount: 2
Fore
SplineSet
521 220 m 0,0,1
 521 116 521 116 455.5 52 c 128,-1,2
 390 -12 390 -12 284 -12 c 0,3,4
 102 -12 102 -12 54 151 c 1,5,-1
 136 175 l 1,6,7
 162 58 162 58 284 58 c 0,8,9
 350 58 350 58 391.5 103 c 128,-1,10
 433 148 433 148 433 219 c 128,-1,11
 433 290 433 290 391.5 334 c 128,-1,12
 350 378 350 378 283 378 c 0,13,14
 240 378 240 378 204 357.5 c 128,-1,15
 168 337 168 337 154 304 c 1,16,-1
 72 328 l 1,17,-1
 113 668 l 1,18,-1
 496 668 l 1,19,-1
 496 587 l 1,20,-1
 181 587 l 1,21,-1
 158 400 l 1,22,23
 208 450 208 450 302 450 c 0,24,25
 399 450 399 450 460 385.5 c 128,-1,26
 521 321 521 321 521 220 c 0,0,1
EndSplineSet
Substitution2: "'tnum' Tabular Numbers lookup 16 subtable" five.tf
Substitution2: "'aalt' Access All Alternates lookup 2 subtable" five.tf
EndChar

StartChar: six
Encoding: 54 54 25
Width: 598
GlyphClass: 1
Flags: W
LayerCount: 2
Fore
SplineSet
157 215 m 128,-1,1
 157 144 157 144 197 101.5 c 128,-1,2
 237 59 237 59 303 59 c 0,3,4
 368 59 368 59 408 102 c 128,-1,5
 448 145 448 145 448 215 c 128,-1,6
 448 285 448 285 408 328 c 128,-1,7
 368 371 368 371 303 371 c 0,8,9
 237 371 237 371 197 328.5 c 128,-1,0
 157 286 157 286 157 215 c 128,-1,1
538 218 m 0,10,11
 538 118 538 118 471.5 53 c 128,-1,12
 405 -12 405 -12 303 -12 c 0,13,14
 60 -12 60 -12 60 310 c 0,15,16
 60 485 60 485 128.5 582.5 c 128,-1,17
 197 680 197 680 321 680 c 0,18,19
 456 680 456 680 509 573 c 1,20,-1
 424 548 l 1,21,22
 391 610 391 610 311 610 c 0,23,24
 236 610 236 610 193 542 c 128,-1,25
 150 474 150 474 147 352 c 1,26,27
 202 445 202 445 323 445 c 0,28,29
 417 445 417 445 477.5 381 c 128,-1,30
 538 317 538 317 538 218 c 0,10,11
EndSplineSet
Substitution2: "'tnum' Tabular Numbers lookup 16 subtable" six.tf
Substitution2: "'aalt' Access All Alternates lookup 2 subtable" six.tf
EndChar

StartChar: seven
Encoding: 55 55 26
Width: 510
GlyphClass: 1
Flags: W
LayerCount: 2
Fore
SplineSet
93 0 m 1,0,-1
 383 587 l 1,1,-1
 15 587 l 1,2,-1
 15 668 l 1,3,-1
 476 668 l 1,4,-1
 476 587 l 1,5,-1
 198 0 l 1,6,-1
 93 0 l 1,0,-1
EndSplineSet
Substitution2: "'tnum' Tabular Numbers lookup 16 subtable" seven.tf
Substitution2: "'aalt' Access All Alternates lookup 2 subtable" seven.tf
EndChar

StartChar: eight
Encoding: 56 56 27
Width: 615
GlyphClass: 1
Flags: W
LayerCount: 2
Fore
SplineSet
151 188 m 0,0,1
 151 130 151 130 193 96 c 128,-1,2
 235 62 235 62 307 62 c 0,3,4
 380 62 380 62 422 96 c 128,-1,5
 464 130 464 130 464 188 c 0,6,7
 464 247 464 247 421.5 282 c 128,-1,8
 379 317 379 317 307 317 c 0,9,10
 236 317 236 317 193.5 282 c 128,-1,11
 151 247 151 247 151 188 c 0,0,1
200 500 m 0,12,13
 200 454 200 454 231 422.5 c 128,-1,14
 262 391 262 391 307 391 c 128,-1,15
 352 391 352 391 383 422.5 c 128,-1,16
 414 454 414 454 414 500 c 0,17,18
 414 544 414 544 383 575 c 128,-1,19
 352 606 352 606 307 606 c 128,-1,20
 262 606 262 606 231 575 c 128,-1,21
 200 544 200 544 200 500 c 0,12,13
555 188 m 0,22,23
 555 98 555 98 487 43 c 128,-1,24
 419 -12 419 -12 307 -12 c 0,25,26
 196 -12 196 -12 128 43 c 128,-1,27
 60 98 60 98 60 188 c 0,28,29
 60 249 60 249 92 296 c 128,-1,30
 124 343 124 343 183 366 c 1,31,32
 126 420 126 420 126 499 c 0,33,34
 126 574 126 574 179 627 c 128,-1,35
 232 680 232 680 307 680 c 0,36,37
 383 680 383 680 436 627.5 c 128,-1,38
 489 575 489 575 489 499 c 0,39,40
 489 420 489 420 432 366 c 1,41,42
 491 343 491 343 523 296.5 c 128,-1,43
 555 250 555 250 555 188 c 0,22,23
EndSplineSet
Substitution2: "'tnum' Tabular Numbers lookup 16 subtable" eight.tf
Substitution2: "'aalt' Access All Alternates lookup 2 subtable" eight.tf
EndChar

StartChar: nine
Encoding: 57 57 28
Width: 598
GlyphClass: 1
Flags: W
LayerCount: 2
Fore
SplineSet
146 441 m 128,-1,1
 146 377 146 377 190.5 332 c 128,-1,2
 235 287 235 287 299 287 c 128,-1,3
 363 287 363 287 408.5 332 c 128,-1,4
 454 377 454 377 454 441 c 128,-1,5
 454 505 454 505 409 549.5 c 128,-1,6
 364 594 364 594 299 594 c 0,7,8
 235 594 235 594 190.5 549.5 c 128,-1,0
 146 505 146 505 146 441 c 128,-1,1
299 679 m 0,9,10
 400 679 400 679 469 610 c 128,-1,11
 538 541 538 541 538 439 c 0,12,13
 538 389 538 389 507.5 321.5 c 128,-1,14
 477 254 477 254 390 112 c 0,15,16
 361 65 361 65 317 0 c 1,17,-1
 213 0 l 1,18,-1
 226 19 l 2,19,20
 295 117 295 117 352 207 c 1,21,22
 326 201 326 201 299 201 c 0,23,24
 200 201 200 201 130 271.5 c 128,-1,25
 60 342 60 342 60 441 c 0,26,27
 60 541 60 541 129.5 610 c 128,-1,28
 199 679 199 679 299 679 c 0,9,10
EndSplineSet
Substitution2: "'tnum' Tabular Numbers lookup 16 subtable" nine.tf
Substitution2: "'aalt' Access All Alternates lookup 2 subtable" nine.tf
EndChar

StartChar: colon
Encoding: 58 58 29
Width: 205
GlyphClass: 1
Flags: W
LayerCount: 2
Fore
SplineSet
167 440 m 0,0,1
 167 413 167 413 148 394 c 128,-1,2
 129 375 129 375 102 375 c 0,3,4
 76 375 76 375 57 394 c 128,-1,5
 38 413 38 413 38 440 c 0,6,7
 38 466 38 466 57 485 c 128,-1,8
 76 504 76 504 102 504 c 0,9,10
 129 504 129 504 148 485 c 128,-1,11
 167 466 167 466 167 440 c 0,0,1
167 52 m 0,12,13
 167 26 167 26 148 7 c 128,-1,14
 129 -12 129 -12 102 -12 c 0,15,16
 76 -12 76 -12 57 7 c 128,-1,17
 38 26 38 26 38 52 c 0,18,19
 38 79 38 79 57 98 c 128,-1,20
 76 117 76 117 102 117 c 0,21,22
 129 117 129 117 148 98 c 128,-1,23
 167 79 167 79 167 52 c 0,12,13
EndSplineSet
EndChar

StartChar: semicolon
Encoding: 59 59 30
Width: 205
GlyphClass: 1
Flags: W
LayerCount: 2
Fore
SplineSet
167 440 m 0,0,1
 167 413 167 413 148 394 c 128,-1,2
 129 375 129 375 102 375 c 0,3,4
 76 375 76 375 57 394 c 128,-1,5
 38 413 38 413 38 440 c 0,6,7
 38 466 38 466 57 485 c 128,-1,8
 76 504 76 504 102 504 c 0,9,10
 129 504 129 504 148 485 c 128,-1,11
 167 466 167 466 167 440 c 0,0,1
102 117 m 0,12,13
 129 117 129 117 148 98.5 c 128,-1,14
 167 80 167 80 167 53 c 0,15,16
 167 40 167 40 162 28 c 2,17,-1
 100 -133 l 1,18,-1
 45 -133 l 1,19,-1
 92 -11 l 1,20,21
 69 -7 69 -7 53.5 11 c 128,-1,22
 38 29 38 29 38 53 c 0,23,24
 38 79 38 79 57 98 c 128,-1,25
 76 117 76 117 102 117 c 0,12,13
EndSplineSet
EndChar

StartChar: less
Encoding: 60 60 31
Width: 553
GlyphClass: 1
Flags: W
LayerCount: 2
Fore
SplineSet
513 0 m 1,0,-1
 40 213 l 1,1,-1
 40 283 l 1,2,-1
 513 496 l 1,3,-1
 513 406 l 1,4,-1
 145 248 l 1,5,-1
 513 90 l 1,6,-1
 513 0 l 1,0,-1
EndSplineSet
EndChar

StartChar: greater
Encoding: 62 62 33
Width: 553
GlyphClass: 1
Flags: W
LayerCount: 2
Fore
SplineSet
40 0 m 1,0,-1
 40 90 l 1,1,-1
 408 248 l 1,2,-1
 40 406 l 1,3,-1
 40 496 l 1,4,-1
 513 283 l 1,5,-1
 513 213 l 1,6,-1
 40 0 l 1,0,-1
EndSplineSet
EndChar

StartChar: question
Encoding: 63 63 34
Width: 520
GlyphClass: 1
Flags: W
LayerCount: 2
Fore
SplineSet
291 52 m 0,0,1
 291 26 291 26 272 7 c 128,-1,2
 253 -12 253 -12 227 -12 c 0,3,4
 200 -12 200 -12 181 7 c 128,-1,5
 162 26 162 26 162 52 c 0,6,7
 162 79 162 79 181 98 c 128,-1,8
 200 117 200 117 227 117 c 0,9,10
 253 117 253 117 272 98 c 128,-1,11
 291 79 291 79 291 52 c 0,0,1
182 227 m 2,12,13
 182 268 182 268 202.5 298.5 c 128,-1,14
 223 329 223 329 252.5 348 c 128,-1,15
 282 367 282 367 311.5 386.5 c 128,-1,16
 341 406 341 406 361.5 436.5 c 128,-1,17
 382 467 382 467 382 508 c 0,18,19
 382 555 382 555 348 582.5 c 128,-1,20
 314 610 314 610 257 610 c 0,21,22
 202 610 202 610 167 581.5 c 128,-1,23
 132 553 132 553 122 501 c 1,24,-1
 40 524 l 1,25,26
 55 595 55 595 115 637.5 c 128,-1,27
 175 680 175 680 261 680 c 0,28,29
 355 680 355 680 412.5 635 c 128,-1,30
 470 590 470 590 470 516 c 0,31,32
 470 410 470 410 345 328 c 0,33,34
 297 297 297 297 282.5 277.5 c 128,-1,35
 268 258 268 258 268 224 c 2,36,-1
 268 190 l 1,37,-1
 182 190 l 1,38,-1
 182 227 l 2,12,13
EndSplineSet
EndChar

StartChar: at
Encoding: 64 64 35
Width: 780
GlyphClass: 1
Flags: W
LayerCount: 2
Fore
SplineSet
451 441 m 1,0,1
 438 445 438 445 406 445 c 0,2,3
 302 445 302 445 302 313 c 0,4,5
 302 275 302 275 320 252 c 128,-1,6
 338 229 338 229 369 229 c 0,7,8
 404 229 404 229 427.5 260 c 128,-1,9
 451 291 451 291 451 338 c 2,10,-1
 451 441 l 1,0,1
532 16 m 1,11,12
 462 -12 462 -12 398 -12 c 0,13,14
 253 -12 253 -12 151.5 89 c 128,-1,15
 50 190 50 190 50 335 c 0,16,17
 50 478 50 478 151.5 579 c 128,-1,18
 253 680 253 680 396 680 c 0,19,20
 534 680 534 680 632 588 c 128,-1,21
 730 496 730 496 730 366 c 0,22,23
 730 269 730 269 688 212 c 128,-1,24
 646 155 646 155 575 155 c 0,25,26
 540 155 540 155 511.5 171 c 128,-1,27
 483 187 483 187 473 213 c 1,28,29
 424 155 424 155 357 155 c 0,30,31
 296 155 296 155 257 201 c 128,-1,32
 218 247 218 247 218 318 c 0,33,34
 218 415 218 415 268.5 467 c 128,-1,35
 319 519 319 519 413 519 c 0,36,37
 469 519 469 519 532 499 c 1,38,-1
 532 273 l 2,39,40
 532 253 532 253 543.5 241 c 128,-1,41
 555 229 555 229 575 229 c 0,42,43
 616 229 616 229 642 267 c 128,-1,44
 668 305 668 305 668 366 c 0,45,46
 668 470 668 470 588 544 c 128,-1,47
 508 618 508 618 396 618 c 0,48,49
 278 618 278 618 195 535.5 c 128,-1,50
 112 453 112 453 112 335 c 0,51,52
 112 215 112 215 194.5 132 c 128,-1,53
 277 49 277 49 396 49 c 0,54,55
 468 49 468 49 532 85 c 1,56,-1
 532 16 l 1,11,12
EndSplineSet
EndChar

StartChar: A
Encoding: 65 65 36
AltUni2: 000391.ffffffff.0 000391.ffffffff.0
Width: 626
GlyphClass: 2
Flags: W
AnchorPoint: "Anchor-2" 615 0 basechar 0
AnchorPoint: "Anchor-1" 313 0 basechar 0
AnchorPoint: "Anchor-0" 313 668 basechar 0
LayerCount: 2
Fore
SplineSet
190 227 m 1,0,-1
 436 227 l 1,1,-1
 313 574 l 1,2,-1
 190 227 l 1,0,-1
10 0 m 1,3,-1
 261 669 l 1,4,-1
 366 669 l 1,5,-1
 616 0 l 1,6,-1
 516 0 l 1,7,-1
 465 146 l 1,8,-1
 161 146 l 1,9,-1
 110 0 l 1,10,-1
 10 0 l 1,3,-1
EndSplineSet
Substitution2: "Single Substitution lookup 14 subtable" ordfeminine
Substitution2: "'aalt' Access All Alternates lookup 2 subtable" ordfeminine
EndChar

StartChar: B
Encoding: 66 66 37
AltUni2: 000392.ffffffff.0 000392.ffffffff.0
Width: 619
GlyphClass: 1
Flags: W
AnchorPoint: "Anchor-1" 288 0 basechar 0
AnchorPoint: "Anchor-0" 290 668 basechar 0
LayerCount: 2
Fore
SplineSet
484 195 m 128,-1,1
 484 245 484 245 452 276.5 c 128,-1,2
 420 308 420 308 370 308 c 2,3,-1
 170 308 l 1,4,-1
 170 79 l 1,5,-1
 371 79 l 2,6,7
 420 79 420 79 452 112 c 128,-1,0
 484 145 484 145 484 195 c 128,-1,1
457 484 m 0,8,9
 457 530 457 530 428 559.5 c 128,-1,10
 399 589 399 589 355 589 c 2,11,-1
 170 589 l 1,12,-1
 170 382 l 1,13,-1
 355 382 l 2,14,15
 400 382 400 382 428.5 410.5 c 128,-1,16
 457 439 457 439 457 484 c 0,8,9
581 192 m 0,17,18
 581 107 581 107 519.5 53.5 c 128,-1,19
 458 0 458 0 361 0 c 2,20,-1
 76 0 l 1,21,-1
 76 668 l 1,22,-1
 345 668 l 2,23,24
 439 668 439 668 495.5 623 c 128,-1,25
 552 578 552 578 552 502 c 0,26,27
 552 415 552 415 482 355 c 1,28,29
 528 331 528 331 554.5 288 c 128,-1,30
 581 245 581 245 581 192 c 0,17,18
EndSplineSet
EndChar

StartChar: C
Encoding: 67 67 38
Width: 656
GlyphClass: 2
Flags: W
AnchorPoint: "Anchor-1" 348 0 basechar 0
AnchorPoint: "Anchor-0" 353 668 basechar 0
LayerCount: 2
Fore
SplineSet
618 139 m 1,0,1
 583 67 583 67 513.5 27.5 c 128,-1,2
 444 -12 444 -12 353 -12 c 0,3,4
 215 -12 215 -12 132.5 82.5 c 128,-1,5
 50 177 50 177 50 335 c 0,6,7
 50 492 50 492 135 586 c 128,-1,8
 220 680 220 680 361 680 c 0,9,10
 447 680 447 680 514 640 c 128,-1,11
 581 600 581 600 614 529 c 1,12,-1
 532 499 l 1,13,14
 508 548 508 548 462.5 574.5 c 128,-1,15
 417 601 417 601 356 601 c 0,16,17
 260 601 260 601 203 529 c 128,-1,18
 146 457 146 457 146 335 c 128,-1,19
 146 213 146 213 204 140 c 128,-1,20
 262 67 262 67 359 67 c 0,21,22
 485 67 485 67 536 169 c 1,23,-1
 618 139 l 1,0,1
EndSplineSet
EndChar

StartChar: D
Encoding: 68 68 39
Width: 673
GlyphClass: 2
Flags: W
AnchorPoint: "Anchor-1" 337 0 basechar 0
AnchorPoint: "Anchor-0" 327 668 basechar 0
LayerCount: 2
Fore
SplineSet
527 335 m 0,0,1
 527 471 527 471 464 530 c 128,-1,2
 401 589 401 589 256 589 c 2,3,-1
 170 589 l 1,4,-1
 170 79 l 1,5,-1
 256 79 l 2,6,7
 401 79 401 79 464 138.5 c 128,-1,8
 527 198 527 198 527 335 c 0,0,1
623 335 m 0,9,10
 623 165 623 165 533 82.5 c 128,-1,11
 443 0 443 0 258 0 c 2,12,-1
 76 0 l 1,13,-1
 76 668 l 1,14,-1
 258 668 l 2,15,16
 443 668 443 668 533 586 c 128,-1,17
 623 504 623 504 623 335 c 0,9,10
EndSplineSet
EndChar

StartChar: E
Encoding: 69 69 40
AltUni2: 000395.ffffffff.0 000395.ffffffff.0
Width: 567
GlyphClass: 2
Flags: W
AnchorPoint: "Anchor-2" 506 0 basechar 0
AnchorPoint: "Anchor-1" 284 0 basechar 0
AnchorPoint: "Anchor-0" 304 668 basechar 0
LayerCount: 2
Fore
SplineSet
76 0 m 1,0,-1
 76 668 l 1,1,-1
 529 668 l 1,2,-1
 529 587 l 1,3,-1
 170 587 l 1,4,-1
 170 384 l 1,5,-1
 435 384 l 1,6,-1
 435 303 l 1,7,-1
 170 303 l 1,8,-1
 170 81 l 1,9,-1
 529 81 l 1,10,-1
 529 0 l 1,11,-1
 76 0 l 1,0,-1
EndSplineSet
EndChar

StartChar: F
Encoding: 70 70 41
Width: 548
GlyphClass: 1
Flags: W
AnchorPoint: "Anchor-0" 305 668 basechar 0
LayerCount: 2
Fore
SplineSet
76 0 m 1,0,-1
 76 668 l 1,1,-1
 510 668 l 1,2,-1
 510 587 l 1,3,-1
 170 587 l 1,4,-1
 170 384 l 1,5,-1
 510 384 l 1,6,-1
 510 303 l 1,7,-1
 170 303 l 1,8,-1
 170 0 l 1,9,-1
 76 0 l 1,0,-1
EndSplineSet
EndChar

StartChar: G
Encoding: 71 71 42
Width: 710
GlyphClass: 2
Flags: W
AnchorPoint: "Anchor-1" 355 0 basechar 0
AnchorPoint: "Anchor-0" 359 668 basechar 0
LayerCount: 2
Fore
SplineSet
563 84 m 1,0,1
 502 -12 502 -12 352 -12 c 0,2,3
 213 -12 213 -12 131.5 82 c 128,-1,4
 50 176 50 176 50 335 c 0,5,6
 50 492 50 492 135 586 c 128,-1,7
 220 680 220 680 361 680 c 0,8,9
 447 680 447 680 514 640.5 c 128,-1,10
 581 601 581 601 615 529 c 1,11,-1
 532 499 l 1,12,13
 508 548 508 548 462.5 574.5 c 128,-1,14
 417 601 417 601 356 601 c 0,15,16
 260 601 260 601 203 529 c 128,-1,17
 146 457 146 457 146 335 c 0,18,19
 146 212 146 212 203 139.5 c 128,-1,20
 260 67 260 67 356 67 c 0,21,22
 450 67 450 67 501.5 113 c 128,-1,23
 553 159 553 159 553 242 c 2,24,-1
 553 264 l 1,25,-1
 358 264 l 1,26,-1
 358 345 l 1,27,-1
 642 345 l 1,28,-1
 642 0 l 1,29,-1
 588 0 l 1,30,-1
 563 84 l 1,0,1
EndSplineSet
EndChar

StartChar: H
Encoding: 72 72 43
AltUni2: 000397.ffffffff.0 000397.ffffffff.0
Width: 690
GlyphClass: 2
Flags: W
AnchorPoint: "Anchor-1" 345 0 basechar 0
AnchorPoint: "Anchor-0" 345 668 basechar 0
LayerCount: 2
Fore
SplineSet
76 0 m 1,0,-1
 76 668 l 1,1,-1
 170 668 l 1,2,-1
 170 384 l 1,3,-1
 520 384 l 1,4,-1
 520 668 l 1,5,-1
 614 668 l 1,6,-1
 614 0 l 1,7,-1
 520 0 l 1,8,-1
 520 303 l 1,9,-1
 170 303 l 1,10,-1
 170 0 l 1,11,-1
 76 0 l 1,0,-1
EndSplineSet
EndChar

StartChar: I
Encoding: 73 73 44
AltUni2: 000399.ffffffff.0 000399.ffffffff.0
Width: 414
GlyphClass: 2
Flags: W
AnchorPoint: "Anchor-2" 273 0 basechar 0
AnchorPoint: "Anchor-1" 207 0 basechar 0
AnchorPoint: "Anchor-0" 207 668 basechar 0
LayerCount: 2
Fore
SplineSet
66 0 m 1,0,-1
 66 74 l 1,1,-1
 160 74 l 1,2,-1
 160 594 l 1,3,-1
 66 594 l 1,4,-1
 66 668 l 1,5,-1
 348 668 l 1,6,-1
 348 594 l 1,7,-1
 254 594 l 1,8,-1
 254 74 l 1,9,-1
 348 74 l 1,10,-1
 348 0 l 1,11,-1
 66 0 l 1,0,-1
EndSplineSet
EndChar

StartChar: J
Encoding: 74 74 45
Width: 510
GlyphClass: 1
Flags: W
AnchorPoint: "Anchor-0" 388 668 basechar 0
LayerCount: 2
Fore
SplineSet
434 212 m 2,0,1
 434 105 434 105 379.5 46.5 c 128,-1,2
 325 -12 325 -12 224 -12 c 0,3,4
 127 -12 127 -12 73.5 39.5 c 128,-1,5
 20 91 20 91 15 189 c 1,6,-1
 102 214 l 1,7,-1
 102 207 l 2,8,9
 102 142 102 142 135 103.5 c 128,-1,10
 168 65 168 65 224 65 c 0,11,12
 340 65 340 65 340 213 c 2,13,-1
 340 668 l 1,14,-1
 434 668 l 1,15,-1
 434 212 l 2,0,1
EndSplineSet
EndChar

StartChar: K
Encoding: 75 75 46
AltUni2: 00039a.ffffffff.0 00039a.ffffffff.0
Width: 627
GlyphClass: 2
Flags: W
AnchorPoint: "Anchor-1" 314 0 basechar 0
AnchorPoint: "Anchor-0" 314 668 basechar 0
LayerCount: 2
Fore
SplineSet
76 0 m 1,0,-1
 76 668 l 1,1,-1
 170 668 l 1,2,-1
 170 332 l 1,3,-1
 471 668 l 1,4,-1
 588 668 l 1,5,-1
 333 389 l 1,6,-1
 617 0 l 1,7,-1
 502 0 l 1,8,-1
 270 320 l 1,9,-1
 170 210 l 1,10,-1
 170 0 l 1,11,-1
 76 0 l 1,0,-1
EndSplineSet
EndChar

StartChar: L
Encoding: 76 76 47
Width: 539
GlyphClass: 2
Flags: W
AnchorPoint: "Anchor-1" 305 0 basechar 0
AnchorPoint: "Anchor-0" 135 668 basechar 0
LayerCount: 2
Fore
SplineSet
76 0 m 1,0,-1
 76 668 l 1,1,-1
 170 668 l 1,2,-1
 170 81 l 1,3,-1
 529 81 l 1,4,-1
 529 0 l 1,5,-1
 76 0 l 1,0,-1
EndSplineSet
EndChar

StartChar: M
Encoding: 77 77 48
AltUni2: 00039c.ffffffff.0 00039c.ffffffff.0
Width: 820
GlyphClass: 1
Flags: W
AnchorPoint: "Anchor-1" 411 0 basechar 0
AnchorPoint: "Anchor-0" 410 668 basechar 0
LayerCount: 2
Fore
SplineSet
76 0 m 1,0,-1
 76 668 l 1,1,-1
 232 668 l 1,2,-1
 410 122 l 1,3,-1
 588 668 l 1,4,-1
 744 668 l 1,5,-1
 744 0 l 1,6,-1
 650 0 l 1,7,-1
 650 570 l 1,8,-1
 457 0 l 1,9,-1
 364 0 l 1,10,-1
 170 570 l 1,11,-1
 170 0 l 1,12,-1
 76 0 l 1,0,-1
EndSplineSet
EndChar

StartChar: N
Encoding: 78 78 49
AltUni2: 00039d.ffffffff.0 00039d.ffffffff.0
Width: 689
GlyphClass: 2
Flags: W
AnchorPoint: "Anchor-1" 311 0 basechar 0
AnchorPoint: "Anchor-0" 362 668 basechar 0
LayerCount: 2
Fore
SplineSet
76 0 m 1,0,-1
 76 668 l 1,1,-1
 215 668 l 1,2,-1
 519 100 l 1,3,-1
 519 668 l 1,4,-1
 613 668 l 1,5,-1
 613 0 l 1,6,-1
 475 0 l 1,7,-1
 170 571 l 1,8,-1
 170 0 l 1,9,-1
 76 0 l 1,0,-1
EndSplineSet
EndChar

StartChar: O
Encoding: 79 79 50
AltUni2: 00039f.ffffffff.0 00039f.ffffffff.0
Width: 727
GlyphClass: 2
Flags: W
AnchorPoint: "Anchor-2" 454 0 basechar 0
AnchorPoint: "Anchor-1" 364 0 basechar 0
AnchorPoint: "Anchor-0" 364 668 basechar 0
LayerCount: 2
Fore
SplineSet
146 335 m 128,-1,1
 146 214 146 214 205.5 140.5 c 128,-1,2
 265 67 265 67 363 67 c 0,3,4
 462 67 462 67 521.5 140 c 128,-1,5
 581 213 581 213 581 335 c 0,6,7
 581 456 581 456 521.5 528.5 c 128,-1,8
 462 601 462 601 363 601 c 0,9,10
 265 601 265 601 205.5 528.5 c 128,-1,0
 146 456 146 456 146 335 c 128,-1,1
677 335 m 0,11,12
 677 179 677 179 590.5 83.5 c 128,-1,13
 504 -12 504 -12 363 -12 c 0,14,15
 223 -12 223 -12 136.5 83.5 c 128,-1,16
 50 179 50 179 50 335 c 0,17,18
 50 490 50 490 136.5 585 c 128,-1,19
 223 680 223 680 363 680 c 0,20,21
 504 680 504 680 590.5 585 c 128,-1,22
 677 490 677 490 677 335 c 0,11,12
EndSplineSet
Substitution2: "Single Substitution lookup 14 subtable" ordmasculine
Substitution2: "'aalt' Access All Alternates lookup 2 subtable" ordmasculine
EndChar

StartChar: P
Encoding: 80 80 51
AltUni2: 0003a1.ffffffff.0 0003a1.ffffffff.0
Width: 601
GlyphClass: 1
Flags: W
AnchorPoint: "Anchor-0" 294 668 basechar 0
LayerCount: 2
Fore
SplineSet
467 466 m 128,-1,1
 467 533 467 533 427.5 561 c 128,-1,2
 388 589 388 589 293 589 c 2,3,-1
 170 589 l 1,4,-1
 170 347 l 1,5,-1
 293 347 l 2,6,7
 391 347 391 347 429 373 c 128,-1,0
 467 399 467 399 467 466 c 128,-1,1
563 466 m 128,-1,9
 563 359 563 359 498 312.5 c 128,-1,10
 433 266 433 266 285 266 c 2,11,-1
 170 266 l 1,12,-1
 170 1 l 1,13,-1
 76 1 l 1,14,-1
 76 668 l 1,15,-1
 285 668 l 2,16,17
 433 668 433 668 498 620.5 c 128,-1,8
 563 573 563 573 563 466 c 128,-1,9
EndSplineSet
EndChar

StartChar: Q
Encoding: 81 81 52
Width: 753
GlyphClass: 1
Flags: W
LayerCount: 2
Fore
SplineSet
146 335 m 128,-1,1
 146 214 146 214 205.5 140.5 c 128,-1,2
 265 67 265 67 363 67 c 0,3,4
 451 67 451 67 508 126 c 1,5,-1
 329 294 l 1,6,-1
 393 362 l 1,7,-1
 559 206 l 1,8,9
 581 254 581 254 581 335 c 0,10,11
 581 456 581 456 521.5 528.5 c 128,-1,12
 462 601 462 601 363 601 c 0,13,14
 265 601 265 601 205.5 528.5 c 128,-1,0
 146 456 146 456 146 335 c 128,-1,1
677 335 m 0,15,16
 677 222 677 222 630 139 c 1,17,-1
 753 24 l 1,18,-1
 689 -44 l 1,19,-1
 572 65 l 1,20,21
 490 -12 490 -12 363 -12 c 0,22,23
 223 -12 223 -12 136.5 83.5 c 128,-1,24
 50 179 50 179 50 335 c 0,25,26
 50 490 50 490 136.5 585 c 128,-1,27
 223 680 223 680 363 680 c 0,28,29
 504 680 504 680 590.5 585 c 128,-1,30
 677 490 677 490 677 335 c 0,15,16
EndSplineSet
EndChar

StartChar: R
Encoding: 82 82 53
Width: 618
GlyphClass: 2
Flags: W
AnchorPoint: "Anchor-1" 309 0 basechar 0
AnchorPoint: "Anchor-0" 303 668 basechar 0
LayerCount: 2
Fore
SplineSet
470 474 m 0,0,1
 470 538 470 538 431 563.5 c 128,-1,2
 392 589 392 589 295 589 c 2,3,-1
 170 589 l 1,4,-1
 170 360 l 1,5,-1
 295 360 l 2,6,7
 392 360 392 360 431 385.5 c 128,-1,8
 470 411 470 411 470 474 c 0,0,1
566 476 m 0,9,10
 566 390 566 390 522.5 345.5 c 128,-1,11
 479 301 479 301 381 288 c 1,12,-1
 588 0 l 1,13,-1
 473 0 l 1,14,-1
 270 281 l 1,15,-1
 170 281 l 1,16,-1
 170 0 l 1,17,-1
 76 0 l 1,18,-1
 76 668 l 1,19,-1
 288 668 l 2,20,21
 437 668 437 668 501.5 623.5 c 128,-1,22
 566 579 566 579 566 476 c 0,9,10
EndSplineSet
EndChar

StartChar: S
Encoding: 83 83 54
Width: 596
GlyphClass: 2
Flags: W
AnchorPoint: "Anchor-1" 298 0 basechar 0
AnchorPoint: "Anchor-0" 298 668 basechar 0
LayerCount: 2
Fore
SplineSet
556 182 m 0,0,1
 556 99 556 99 482 43.5 c 128,-1,2
 408 -12 408 -12 296 -12 c 0,3,4
 202 -12 202 -12 133 30.5 c 128,-1,5
 64 73 64 73 40 146 c 1,6,-1
 127 172 l 1,7,8
 143 123 143 123 189.5 95 c 128,-1,9
 236 67 236 67 300 67 c 0,10,11
 370 67 370 67 413.5 100 c 128,-1,12
 457 133 457 133 457 186 c 0,13,14
 457 226 457 226 427 250.5 c 128,-1,15
 397 275 397 275 323 294 c 2,16,-1
 238 313 l 2,17,18
 135 340 135 340 90.5 383.5 c 128,-1,19
 46 427 46 427 46 501 c 0,20,21
 46 578 46 578 115.5 629 c 128,-1,22
 185 680 185 680 291 680 c 0,23,24
 371 680 371 680 433 646.5 c 128,-1,25
 495 613 495 613 523 555 c 1,26,-1
 437 530 l 1,27,28
 420 562 420 562 379 581.5 c 128,-1,29
 338 601 338 601 287 601 c 0,30,31
 223 601 223 601 183 572 c 128,-1,32
 143 543 143 543 143 497 c 0,33,34
 143 457 143 457 174.5 434 c 128,-1,35
 206 411 206 411 286 392 c 2,36,-1
 359 376 l 2,37,38
 463 351 463 351 509.5 305 c 128,-1,39
 556 259 556 259 556 182 c 0,0,1
EndSplineSet
EndChar

StartChar: T
Encoding: 84 84 55
AltUni2: 0003a4.ffffffff.0 0003a4.ffffffff.0
Width: 558
GlyphClass: 2
Flags: W
AnchorPoint: "Anchor-1" 279 0 basechar 0
AnchorPoint: "Anchor-0" 279 668 basechar 0
LayerCount: 2
Fore
SplineSet
232 0 m 1,0,-1
 232 587 l 1,1,-1
 10 587 l 1,2,-1
 10 668 l 1,3,-1
 548 668 l 1,4,-1
 548 587 l 1,5,-1
 326 587 l 1,6,-1
 326 0 l 1,7,-1
 232 0 l 1,0,-1
EndSplineSet
EndChar

StartChar: U
Encoding: 85 85 56
Width: 690
GlyphClass: 2
Flags: W
AnchorPoint: "Anchor-2" 427 0 basechar 0
AnchorPoint: "Anchor-1" 345 0 basechar 0
AnchorPoint: "Anchor-0" 345 668 basechar 0
LayerCount: 2
Fore
SplineSet
614 279 m 2,0,1
 614 127 614 127 549.5 57.5 c 128,-1,2
 485 -12 485 -12 345 -12 c 0,3,4
 206 -12 206 -12 141 58 c 128,-1,5
 76 128 76 128 76 279 c 2,6,-1
 76 668 l 1,7,-1
 170 668 l 1,8,-1
 170 272 l 2,9,10
 170 167 170 167 212 118 c 128,-1,11
 254 69 254 69 345 69 c 128,-1,12
 436 69 436 69 478 118 c 128,-1,13
 520 167 520 167 520 272 c 2,14,-1
 520 668 l 1,15,-1
 614 668 l 1,16,-1
 614 279 l 2,0,1
EndSplineSet
EndChar

StartChar: V
Encoding: 86 86 57
Width: 589
GlyphClass: 1
Flags: W
LayerCount: 2
Fore
SplineSet
239 0 m 1,0,-1
 10 668 l 1,1,-1
 113 668 l 1,2,-1
 294 110 l 1,3,-1
 476 668 l 1,4,-1
 579 668 l 1,5,-1
 349 0 l 1,6,-1
 239 0 l 1,0,-1
EndSplineSet
EndChar

StartChar: W
Encoding: 87 87 58
Width: 840
GlyphClass: 1
Flags: W
AnchorPoint: "Anchor-1" 420 0 basechar 0
AnchorPoint: "Anchor-0" 420 668 basechar 0
LayerCount: 2
Fore
SplineSet
178 0 m 1,0,-1
 10 668 l 1,1,-1
 113 668 l 1,2,-1
 243 116 l 1,3,-1
 365 668 l 1,4,-1
 475 668 l 1,5,-1
 597 116 l 1,6,-1
 727 668 l 1,7,-1
 830 668 l 1,8,-1
 663 0 l 1,9,-1
 549 0 l 1,10,-1
 420 552 l 1,11,-1
 291 0 l 1,12,-1
 178 0 l 1,0,-1
EndSplineSet
EndChar

StartChar: X
Encoding: 88 88 59
AltUni2: 0003a7.ffffffff.0 0003a7.ffffffff.0
Width: 623
GlyphClass: 1
Flags: W
AnchorPoint: "Anchor-1" 311 0 basechar 0
AnchorPoint: "Anchor-0" 311 668 basechar 0
LayerCount: 2
Fore
SplineSet
10 0 m 1,0,-1
 255 344 l 1,1,-1
 24 668 l 1,2,-1
 136 668 l 1,3,-1
 311 423 l 1,4,-1
 486 668 l 1,5,-1
 599 668 l 1,6,-1
 368 344 l 1,7,-1
 613 0 l 1,8,-1
 500 0 l 1,9,-1
 311 265 l 1,10,-1
 123 0 l 1,11,-1
 10 0 l 1,0,-1
EndSplineSet
EndChar

StartChar: Y
Encoding: 89 89 60
AltUni2: 0003a5.ffffffff.0 0003a5.ffffffff.0
Width: 595
GlyphClass: 2
Flags: W
AnchorPoint: "Anchor-1" 298 0 basechar 0
AnchorPoint: "Anchor-0" 298 668 basechar 0
LayerCount: 2
Fore
SplineSet
251 0 m 1,0,-1
 251 259 l 1,1,-1
 10 668 l 1,2,-1
 113 668 l 1,3,-1
 298 345 l 1,4,-1
 482 668 l 1,5,-1
 585 668 l 1,6,-1
 345 259 l 1,7,-1
 345 0 l 1,8,-1
 251 0 l 1,0,-1
EndSplineSet
EndChar

StartChar: Z
Encoding: 90 90 61
AltUni2: 000396.ffffffff.0 000396.ffffffff.0
Width: 607
GlyphClass: 2
Flags: W
AnchorPoint: "Anchor-1" 304 0 basechar 0
AnchorPoint: "Anchor-0" 304 668 basechar 0
LayerCount: 2
Fore
SplineSet
44 0 m 1,0,-1
 44 81 l 1,1,-1
 438 587 l 1,2,-1
 59 587 l 1,3,-1
 59 668 l 1,4,-1
 548 668 l 1,5,-1
 548 587 l 1,6,-1
 156 81 l 1,7,-1
 563 81 l 1,8,-1
 563 0 l 1,9,-1
 44 0 l 1,0,-1
EndSplineSet
EndChar

StartChar: bracketleft
Encoding: 91 91 62
Width: 315
GlyphClass: 1
Flags: W
LayerCount: 2
Fore
SplineSet
76 -161 m 1,0,-1
 76 668 l 1,1,-1
 282 668 l 1,2,-1
 282 594 l 1,3,-1
 157 594 l 1,4,-1
 157 -87 l 1,5,-1
 282 -87 l 1,6,-1
 282 -161 l 1,7,-1
 76 -161 l 1,0,-1
EndSplineSet
EndChar

StartChar: backslash
Encoding: 92 92 63
Width: 377
GlyphClass: 1
Flags: W
LayerCount: 2
Fore
SplineSet
275 0 m 1,0,-1
 15 668 l 1,1,-1
 102 668 l 1,2,-1
 362 0 l 1,3,-1
 275 0 l 1,0,-1
EndSplineSet
EndChar

StartChar: bracketright
Encoding: 93 93 64
Width: 315
GlyphClass: 1
Flags: W
LayerCount: 2
Fore
SplineSet
33 -161 m 1,0,-1
 33 -87 l 1,1,-1
 158 -87 l 1,2,-1
 158 594 l 1,3,-1
 33 594 l 1,4,-1
 33 668 l 1,5,-1
 239 668 l 1,6,-1
 239 -161 l 1,7,-1
 33 -161 l 1,0,-1
EndSplineSet
EndChar

StartChar: asciicircum
Encoding: 94 94 65
Width: 552
GlyphClass: 1
Flags: W
LayerCount: 2
Fore
SplineSet
53 311 m 1,0,-1
 238 668 l 1,1,-1
 314 668 l 1,2,-1
 499 311 l 1,3,-1
 410 311 l 1,4,-1
 276 569 l 1,5,-1
 142 311 l 1,6,-1
 53 311 l 1,0,-1
EndSplineSet
EndChar

StartChar: underscore
Encoding: 95 95 66
Width: 396
GlyphClass: 1
Flags: W
LayerCount: 2
Fore
SplineSet
10 -79 m 1,0,-1
 10 0 l 1,1,-1
 386 0 l 1,2,-1
 386 -79 l 1,3,-1
 10 -79 l 1,0,-1
EndSplineSet
EndChar

StartChar: grave
Encoding: 96 96 67
Width: 268
GlyphClass: 1
Flags: W
LayerCount: 2
Fore
SplineSet
53 669 m 0,0,1
 53 686 53 686 63.5 696.5 c 128,-1,2
 74 707 74 707 91 707 c 0,3,4
 110 707 110 707 122 692 c 2,5,-1
 215 571 l 1,6,-1
 145 571 l 1,7,8
 78 627 78 627 65.5 640.5 c 128,-1,9
 53 654 53 654 53 669 c 0,0,1
EndSplineSet
EndChar

StartChar: a
Encoding: 97 97 68
Width: 526
GlyphClass: 2
Flags: W
AnchorPoint: "Anchor-2" 475 0 basechar 0
AnchorPoint: "Anchor-1" 263 0 basechar 0
AnchorPoint: "Anchor-0" 263 496 basechar 0
LayerCount: 2
Fore
SplineSet
131 133 m 0,0,1
 131 97 131 97 157 76 c 128,-1,2
 183 55 183 55 227 55 c 0,3,4
 300 55 300 55 340 94.5 c 128,-1,5
 380 134 380 134 380 208 c 2,6,-1
 380 239 l 1,7,8
 243 225 243 225 187 201 c 128,-1,9
 131 177 131 177 131 133 c 0,0,1
378 68 m 1,10,11
 330 -12 330 -12 209 -12 c 0,12,13
 133 -12 133 -12 85.5 27.5 c 128,-1,14
 38 67 38 67 38 131 c 0,15,16
 38 207 38 207 113.5 246.5 c 128,-1,17
 189 286 189 286 373 306 c 1,18,-1
 373 315 l 2,19,20
 373 437 373 437 261 437 c 0,21,22
 217 437 217 437 188 417 c 128,-1,23
 159 397 159 397 151 360 c 1,24,-1
 70 384 l 1,25,26
 89 440 89 440 140 472 c 128,-1,27
 191 504 191 504 260 504 c 0,28,29
 363 504 363 504 410.5 455.5 c 128,-1,30
 458 407 458 407 458 303 c 2,31,-1
 458 187 l 2,32,33
 458 76 458 76 475 0 c 1,34,-1
 398 0 l 1,35,-1
 378 68 l 1,10,11
EndSplineSet
Substitution2: "Single Substitution lookup 14 subtable" ordfeminine
Substitution2: "'aalt' Access All Alternates lookup 2 subtable" ordfeminine
EndChar

StartChar: b
Encoding: 98 98 69
Width: 566
GlyphClass: 1
Flags: W
AnchorPoint: "Anchor-1" 315 0 basechar 0
AnchorPoint: "Anchor-0" 315 496 basechar 0
LayerCount: 2
Fore
SplineSet
293 432 m 128,-1,1
 227 432 227 432 189.5 382.5 c 128,-1,2
 152 333 152 333 152 246 c 128,-1,3
 152 159 152 159 189.5 109.5 c 128,-1,4
 227 60 227 60 293 60 c 128,-1,5
 359 60 359 60 396.5 109.5 c 128,-1,6
 434 159 434 159 434 246 c 128,-1,7
 434 333 434 333 396.5 382.5 c 128,-1,0
 359 432 359 432 293 432 c 128,-1,1
528 246 m 128,-1,9
 528 133 528 133 468.5 60.5 c 128,-1,10
 409 -12 409 -12 315 -12 c 0,11,12
 204 -12 204 -12 154 75 c 1,13,-1
 132 0 l 1,14,-1
 70 0 l 1,15,-1
 70 668 l 1,16,-1
 154 668 l 1,17,-1
 154 418 l 1,18,19
 205 504 205 504 315 504 c 0,20,21
 409 504 409 504 468.5 431.5 c 128,-1,8
 528 359 528 359 528 246 c 128,-1,9
EndSplineSet
EndChar

StartChar: c
Encoding: 99 99 70
Width: 500
GlyphClass: 2
Flags: W
AnchorPoint: "Anchor-1" 270 0 basechar 0
AnchorPoint: "Anchor-0" 275 496 basechar 0
LayerCount: 2
Fore
SplineSet
467 99 m 1,0,1
 437 47 437 47 384 17.5 c 128,-1,2
 331 -12 331 -12 269 -12 c 0,3,4
 165 -12 165 -12 101.5 59 c 128,-1,5
 38 130 38 130 38 246 c 0,6,7
 38 361 38 361 104.5 432.5 c 128,-1,8
 171 504 171 504 278 504 c 0,9,10
 338 504 338 504 387.5 474.5 c 128,-1,11
 437 445 437 445 465 392 c 1,12,-1
 388 364 l 1,13,14
 372 395 372 395 341 412.5 c 128,-1,15
 310 430 310 430 272 430 c 0,16,17
 207 430 207 430 168 380.5 c 128,-1,18
 129 331 129 331 129 247 c 0,19,20
 129 164 129 164 168.5 113 c 128,-1,21
 208 62 208 62 272 62 c 0,22,23
 354 62 354 62 390 127 c 1,24,-1
 467 99 l 1,0,1
EndSplineSet
EndChar

StartChar: d
Encoding: 100 100 71
Width: 564
GlyphClass: 2
Flags: W
AnchorPoint: "Anchor-1" 282 0 basechar 0
AnchorPoint: "Anchor-0" 251 496 basechar 0
LayerCount: 2
Fore
SplineSet
273 432 m 128,-1,1
 207 432 207 432 169.5 382.5 c 128,-1,2
 132 333 132 333 132 246 c 128,-1,3
 132 159 132 159 169.5 109.5 c 128,-1,4
 207 60 207 60 273 60 c 128,-1,5
 339 60 339 60 376.5 109.5 c 128,-1,6
 414 159 414 159 414 246 c 128,-1,7
 414 333 414 333 376.5 382.5 c 128,-1,0
 339 432 339 432 273 432 c 128,-1,1
412 75 m 1,8,9
 365 -12 365 -12 251 -12 c 0,10,11
 157 -12 157 -12 97.5 60.5 c 128,-1,12
 38 133 38 133 38 246 c 128,-1,13
 38 359 38 359 97.5 431.5 c 128,-1,14
 157 504 157 504 251 504 c 0,15,16
 363 504 363 504 412 418 c 1,17,-1
 412 668 l 1,18,-1
 496 668 l 1,19,-1
 496 187 l 2,20,21
 496 98 496 98 513 0 c 1,22,-1
 434 0 l 1,23,-1
 412 75 l 1,8,9
EndSplineSet
EndChar

StartChar: e
Encoding: 101 101 72
Width: 539
GlyphClass: 2
Flags: W
AnchorPoint: "Anchor-2" 364 0 basechar 0
AnchorPoint: "Anchor-1" 270 0 basechar 0
AnchorPoint: "Anchor-0" 281 496 basechar 0
LayerCount: 2
Fore
SplineSet
421 292 m 1,0,1
 421 350 421 350 379.5 391 c 128,-1,2
 338 432 338 432 279 432 c 0,3,4
 213 432 213 432 173.5 395.5 c 128,-1,5
 134 359 134 359 129 292 c 1,6,-1
 421 292 l 1,0,1
478 87 m 1,7,8
 415 -12 415 -12 281 -12 c 0,9,10
 171 -12 171 -12 104.5 59 c 128,-1,11
 38 130 38 130 38 247 c 0,12,13
 38 361 38 361 105 432.5 c 128,-1,14
 172 504 172 504 279 504 c 0,15,16
 380 504 380 504 445.5 432 c 128,-1,17
 511 360 511 360 511 250 c 0,18,19
 511 230 511 230 510 225 c 1,20,-1
 128 225 l 1,21,22
 130 151 130 151 172 106.5 c 128,-1,23
 214 62 214 62 281 62 c 0,24,25
 359 62 359 62 397 111 c 1,26,-1
 478 87 l 1,7,8
EndSplineSet
EndChar

StartChar: f
Encoding: 102 102 73
Width: 311
GlyphClass: 1
Flags: W
AnchorPoint: "Anchor-0" 90 668 basechar 0
LayerCount: 2
Fore
SplineSet
234 635 m 2,0,1
 203 635 203 635 193 622 c 128,-1,2
 183 609 183 609 183 571 c 2,3,-1
 183 496 l 1,4,-1
 286 496 l 1,5,-1
 286 429 l 1,6,-1
 183 429 l 1,7,-1
 183 0 l 1,8,-1
 99 0 l 1,9,-1
 99 429 l 1,10,-1
 15 429 l 1,11,-1
 15 496 l 1,12,-1
 99 496 l 1,13,-1
 99 570 l 2,14,15
 99 651 99 651 126 678.5 c 128,-1,16
 153 706 153 706 232 706 c 2,17,-1
 286 706 l 1,18,-1
 286 635 l 1,19,-1
 234 635 l 2,0,1
EndSplineSet
EndChar

StartChar: g
Encoding: 103 103 74
Width: 560
GlyphClass: 2
Flags: W
AnchorPoint: "Anchor-1" 280 -251 basechar 0
AnchorPoint: "Anchor-0" 268 496 basechar 0
LayerCount: 2
Fore
SplineSet
129 256 m 0,0,1
 129 174 129 174 166.5 126.5 c 128,-1,2
 204 79 204 79 269 79 c 0,3,4
 335 79 335 79 372 126 c 128,-1,5
 409 173 409 173 409 256 c 128,-1,6
 409 339 409 339 372 385.5 c 128,-1,7
 335 432 335 432 269 432 c 0,8,9
 205 432 205 432 167 384.5 c 128,-1,10
 129 337 129 337 129 256 c 0,0,1
490 47 m 2,11,12
 490 -79 490 -79 438.5 -135.5 c 128,-1,13
 387 -192 387 -192 274 -192 c 0,14,15
 201 -192 201 -192 149.5 -161 c 128,-1,16
 98 -130 98 -130 81 -76 c 1,17,-1
 165 -53 l 1,18,19
 188 -118 188 -118 274 -118 c 0,20,21
 345 -118 345 -118 375.5 -84 c 128,-1,22
 406 -50 406 -50 406 28 c 2,23,-1
 406 94 l 1,24,25
 355 9 355 9 248 9 c 0,26,27
 156 9 156 9 97 78 c 128,-1,28
 38 147 38 147 38 256 c 128,-1,29
 38 365 38 365 97 434.5 c 128,-1,30
 156 504 156 504 248 504 c 0,31,32
 356 504 356 504 406 418 c 1,33,-1
 429 496 l 1,34,-1
 490 496 l 1,35,-1
 490 47 l 2,11,12
EndSplineSet
EndChar

StartChar: h
Encoding: 104 104 75
Width: 546
GlyphClass: 2
Flags: W
AnchorPoint: "Anchor-1" 273 0 basechar 0
AnchorPoint: "Anchor-0" 114 668 basechar 0
LayerCount: 2
Fore
SplineSet
285 432 m 0,0,1
 222 432 222 432 188 389.5 c 128,-1,2
 154 347 154 347 154 269 c 2,3,-1
 154 0 l 1,4,-1
 70 0 l 1,5,-1
 70 668 l 1,6,-1
 154 668 l 1,7,-1
 154 421 l 1,8,9
 204 504 204 504 314 504 c 0,10,11
 478 504 478 504 478 314 c 2,12,-1
 478 0 l 1,13,-1
 394 0 l 1,14,-1
 394 289 l 2,15,16
 394 366 394 366 369 399 c 128,-1,17
 344 432 344 432 285 432 c 0,0,1
EndSplineSet
EndChar

StartChar: i
Encoding: 105 105 76
Width: 278
GlyphClass: 1
Flags: W
AnchorPoint: "Anchor-2" 198 0 basechar 0
LayerCount: 2
Fore
SplineSet
219 653 m 128,-1,1
 219 627 219 627 200.5 608.5 c 128,-1,2
 182 590 182 590 156 590 c 128,-1,3
 130 590 130 590 112 608.5 c 128,-1,4
 94 627 94 627 94 653 c 0,5,6
 94 678 94 678 112 696.5 c 128,-1,7
 130 715 130 715 156 715 c 128,-1,8
 182 715 182 715 200.5 697 c 128,-1,0
 219 679 219 679 219 653 c 128,-1,1
114 0 m 1,9,-1
 114 429 l 1,10,-1
 45 429 l 1,11,-1
 45 496 l 1,12,-1
 198 496 l 1,13,-1
 198 0 l 1,14,-1
 114 0 l 1,9,-1
EndSplineSet
Substitution2: "Single Substitution lookup 6 subtable" dotlessi
Substitution2: "Single Substitution lookup 5 subtable" dotlessi
EndChar

StartChar: j
Encoding: 106 106 77
Width: 254
GlyphClass: 1
Flags: W
LayerCount: 2
Fore
SplineSet
194 653 m 128,-1,1
 194 627 194 627 176 608.5 c 128,-1,2
 158 590 158 590 132 590 c 128,-1,3
 106 590 106 590 87.5 608.5 c 128,-1,4
 69 627 69 627 69 653 c 128,-1,5
 69 679 69 679 87.5 697 c 128,-1,6
 106 715 106 715 132 715 c 128,-1,7
 158 715 158 715 176 697 c 128,-1,0
 194 679 194 679 194 653 c 128,-1,1
174 7 m 2,8,9
 174 -90 174 -90 136 -125.5 c 128,-1,10
 98 -161 98 -161 -3 -161 c 2,11,-1
 -58 -159 l 1,12,-1
 -58 -86 l 1,13,-1
 -11 -87 l 2,14,15
 52 -87 52 -87 71 -68.5 c 128,-1,16
 90 -50 90 -50 90 12 c 2,17,-1
 90 496 l 1,18,-1
 174 496 l 1,19,-1
 174 7 l 2,8,9
EndSplineSet
EndChar

StartChar: k
Encoding: 107 107 78
Width: 490
GlyphClass: 2
Flags: W
AnchorPoint: "Anchor-1" 251 0 basechar 0
AnchorPoint: "Anchor-0" 113 668 basechar 0
LayerCount: 2
Fore
SplineSet
70 0 m 1,0,-1
 70 668 l 1,1,-1
 154 668 l 1,2,-1
 154 273 l 1,3,-1
 354 496 l 1,4,-1
 455 496 l 1,5,-1
 268 291 l 1,6,-1
 480 0 l 1,7,-1
 377 0 l 1,8,-1
 212 229 l 1,9,-1
 154 166 l 1,10,-1
 154 0 l 1,11,-1
 70 0 l 1,0,-1
EndSplineSet
EndChar

StartChar: l
Encoding: 108 108 79
Width: 239
GlyphClass: 2
Flags: W
AnchorPoint: "Anchor-1" 145 0 basechar 0
AnchorPoint: "Anchor-0" 114 668 basechar 0
LayerCount: 2
Fore
SplineSet
154 138 m 2,0,1
 154 98 154 98 163.5 86 c 128,-1,2
 173 74 173 74 205 74 c 2,3,-1
 224 74 l 1,4,-1
 224 0 l 1,5,-1
 187 0 l 2,6,7
 116 0 116 0 93 24 c 128,-1,8
 70 48 70 48 70 124 c 2,9,-1
 70 668 l 1,10,-1
 154 668 l 1,11,-1
 154 138 l 2,0,1
EndSplineSet
EndChar

StartChar: m
Encoding: 109 109 80
Width: 841
GlyphClass: 2
Flags: W
AnchorPoint: "Anchor-1" 421 0 basechar 0
AnchorPoint: "Anchor-0" 433 496 basechar 0
LayerCount: 2
Fore
SplineSet
274 432 m 0,0,1
 217 432 217 432 185.5 389 c 128,-1,2
 154 346 154 346 154 269 c 2,3,-1
 154 0 l 1,4,-1
 70 0 l 1,5,-1
 70 496 l 1,6,-1
 132 496 l 1,7,-1
 154 421 l 1,8,9
 205 504 205 504 303 504 c 0,10,11
 412 504 412 504 446 417 c 1,12,13
 503 504 503 504 613 504 c 0,14,15
 773 504 773 504 773 314 c 2,16,-1
 773 0 l 1,17,-1
 689 0 l 1,18,-1
 689 289 l 2,19,20
 689 365 689 365 664 398.5 c 128,-1,21
 639 432 639 432 583 432 c 128,-1,22
 527 432 527 432 495.5 389 c 128,-1,23
 464 346 464 346 464 269 c 2,24,-1
 464 0 l 1,25,-1
 380 0 l 1,26,-1
 380 289 l 2,27,28
 380 365 380 365 355 398.5 c 128,-1,29
 330 432 330 432 274 432 c 0,0,1
EndSplineSet
EndChar

StartChar: n
Encoding: 110 110 81
Width: 546
GlyphClass: 2
Flags: W
AnchorPoint: "Anchor-1" 257 0 basechar 0
AnchorPoint: "Anchor-0" 288 496 basechar 0
LayerCount: 2
Fore
SplineSet
285 432 m 0,0,1
 222 432 222 432 188 389.5 c 128,-1,2
 154 347 154 347 154 269 c 2,3,-1
 154 0 l 1,4,-1
 70 0 l 1,5,-1
 70 496 l 1,6,-1
 132 496 l 1,7,-1
 154 421 l 1,8,9
 204 504 204 504 314 504 c 0,10,11
 478 504 478 504 478 314 c 2,12,-1
 478 0 l 1,13,-1
 394 0 l 1,14,-1
 394 289 l 2,15,16
 394 366 394 366 369 399 c 128,-1,17
 344 432 344 432 285 432 c 0,0,1
EndSplineSet
EndChar

StartChar: o
Encoding: 111 111 82
AltUni2: 0003bf.ffffffff.0 0003bf.ffffffff.0
Width: 552
GlyphClass: 2
Flags: W
AnchorPoint: "Anchor-2" 355 0 basechar 0
AnchorPoint: "Anchor-1" 276 0 basechar 0
AnchorPoint: "Anchor-0" 276 496 basechar 0
LayerCount: 2
Fore
SplineSet
128 246 m 128,-1,1
 128 164 128 164 169 113 c 128,-1,2
 210 62 210 62 276 62 c 128,-1,3
 342 62 342 62 383 113 c 128,-1,4
 424 164 424 164 424 246 c 128,-1,5
 424 328 424 328 383 379 c 128,-1,6
 342 430 342 430 276 430 c 128,-1,7
 210 430 210 430 169 379 c 128,-1,0
 128 328 128 328 128 246 c 128,-1,1
514 246 m 128,-1,9
 514 131 514 131 448.5 59.5 c 128,-1,10
 383 -12 383 -12 276 -12 c 0,11,12
 170 -12 170 -12 104 59.5 c 128,-1,13
 38 131 38 131 38 246 c 128,-1,14
 38 361 38 361 104 432.5 c 128,-1,15
 170 504 170 504 276 504 c 0,16,17
 383 504 383 504 448.5 432.5 c 128,-1,8
 514 361 514 361 514 246 c 128,-1,9
EndSplineSet
Substitution2: "Single Substitution lookup 14 subtable" ordmasculine
Substitution2: "'aalt' Access All Alternates lookup 2 subtable" ordmasculine
EndChar

StartChar: p
Encoding: 112 112 83
AltUni2: 0003c1.ffffffff.0 0003c1.ffffffff.0
Width: 566
GlyphClass: 1
Flags: W
AnchorPoint: "Anchor-0" 306 496 basechar 0
LayerCount: 2
Fore
SplineSet
293 432 m 128,-1,1
 227 432 227 432 189.5 382.5 c 128,-1,2
 152 333 152 333 152 246 c 128,-1,3
 152 159 152 159 189.5 109.5 c 128,-1,4
 227 60 227 60 293 60 c 128,-1,5
 359 60 359 60 396.5 109.5 c 128,-1,6
 434 159 434 159 434 246 c 128,-1,7
 434 333 434 333 396.5 382.5 c 128,-1,0
 359 432 359 432 293 432 c 128,-1,1
315 -12 m 0,8,9
 204 -12 204 -12 154 75 c 1,10,-1
 154 -161 l 1,11,-1
 70 -161 l 1,12,-1
 70 496 l 1,13,-1
 131 496 l 1,14,-1
 154 418 l 1,15,16
 205 504 205 504 315 504 c 0,17,18
 409 504 409 504 468.5 431.5 c 128,-1,19
 528 359 528 359 528 246 c 128,-1,20
 528 133 528 133 468.5 60.5 c 128,-1,21
 409 -12 409 -12 315 -12 c 0,8,9
EndSplineSet
EndChar

StartChar: q
Encoding: 113 113 84
Width: 576
GlyphClass: 1
Flags: W
LayerCount: 2
Fore
SplineSet
628 -159 m 1,0,1
 583 -173 583 -173 543 -173 c 0,2,3
 412 -173 412 -173 412 -27 c 2,4,-1
 412 75 l 1,5,6
 365 -12 365 -12 250 -12 c 0,7,8
 157 -12 157 -12 97.5 60.5 c 128,-1,9
 38 133 38 133 38 246 c 128,-1,10
 38 359 38 359 97.5 431.5 c 128,-1,11
 157 504 157 504 250 504 c 0,12,13
 363 504 363 504 412 418 c 1,14,-1
 435 496 l 1,15,-1
 496 496 l 1,16,-1
 496 -24 l 2,17,18
 496 -56 496 -56 515 -75 c 128,-1,19
 534 -94 534 -94 567 -94 c 0,20,21
 595 -94 595 -94 628 -81 c 1,22,-1
 628 -159 l 1,0,1
273 432 m 256,23,24
 207 432 207 432 169 382.5 c 128,-1,25
 131 333 131 333 131 246 c 0,26,27
 131 160 131 160 169 110 c 128,-1,28
 207 60 207 60 273 60 c 128,-1,29
 339 60 339 60 376.5 109.5 c 128,-1,30
 414 159 414 159 414 246 c 128,-1,31
 414 333 414 333 376.5 382.5 c 128,-1,32
 339 432 339 432 273 432 c 256,23,24
EndSplineSet
EndChar

StartChar: r
Encoding: 114 114 85
Width: 340
GlyphClass: 2
Flags: W
AnchorPoint: "Anchor-1" 113 0 basechar 0
AnchorPoint: "Anchor-0" 199 496 basechar 0
LayerCount: 2
Fore
SplineSet
70 0 m 1,0,-1
 70 496 l 1,1,-1
 131 496 l 1,2,-1
 158 404 l 1,3,4
 215 504 215 504 335 504 c 1,5,-1
 335 417 l 1,6,-1
 320 417 l 2,7,8
 154 417 154 417 154 213 c 2,9,-1
 154 0 l 1,10,-1
 70 0 l 1,0,-1
EndSplineSet
EndChar

StartChar: s
Encoding: 115 115 86
Width: 471
GlyphClass: 2
Flags: W
AnchorPoint: "Anchor-1" 230 0 basechar 0
AnchorPoint: "Anchor-0" 240 496 basechar 0
LayerCount: 2
Fore
SplineSet
441 136 m 0,0,1
 441 72 441 72 383.5 30 c 128,-1,2
 326 -12 326 -12 239 -12 c 0,3,4
 166 -12 166 -12 110 21.5 c 128,-1,5
 54 55 54 55 31 112 c 1,6,-1
 112 142 l 1,7,8
 122 104 122 104 156 81.5 c 128,-1,9
 190 59 190 59 239 59 c 0,10,11
 289 59 289 59 322.5 80.5 c 128,-1,12
 356 102 356 102 356 133 c 0,13,14
 356 167 356 167 331 186 c 128,-1,15
 306 205 306 205 246 217 c 2,16,-1
 177 231 l 2,17,18
 106 247 106 247 73.5 279.5 c 128,-1,19
 41 312 41 312 41 367 c 0,20,21
 41 427 41 427 95 466 c 128,-1,22
 149 505 149 505 232 505 c 0,23,24
 299 505 299 505 348.5 478 c 128,-1,25
 398 451 398 451 418 404 c 1,26,-1
 339 375 l 1,27,28
 327 402 327 402 296.5 418 c 128,-1,29
 266 434 266 434 226 434 c 0,30,31
 183 434 183 434 154.5 415.5 c 128,-1,32
 126 397 126 397 126 368 c 0,33,34
 126 341 126 341 147.5 325 c 128,-1,35
 169 309 169 309 218 299 c 2,36,-1
 283 286 l 2,37,38
 367 270 367 270 404 234.5 c 128,-1,39
 441 199 441 199 441 136 c 0,0,1
EndSplineSet
EndChar

StartChar: t
Encoding: 116 116 87
Width: 324
GlyphClass: 2
Flags: W
AnchorPoint: "Anchor-1" 183 0 basechar 0
AnchorPoint: "Anchor-0" 145 621 basechar 0
LayerCount: 2
Fore
SplineSet
188 138 m 2,0,1
 188 98 188 98 197.5 86 c 128,-1,2
 207 74 207 74 239 74 c 2,3,-1
 284 74 l 1,4,-1
 284 0 l 1,5,-1
 221 0 l 2,6,7
 150 0 150 0 127 24 c 128,-1,8
 104 48 104 48 104 124 c 2,9,-1
 104 429 l 1,10,-1
 20 429 l 1,11,-1
 20 496 l 1,12,-1
 104 496 l 1,13,-1
 104 621 l 1,14,-1
 188 621 l 1,15,-1
 188 496 l 1,16,-1
 284 496 l 1,17,-1
 284 429 l 1,18,-1
 188 429 l 1,19,-1
 188 138 l 2,0,1
EndSplineSet
EndChar

StartChar: u
Encoding: 117 117 88
Width: 536
GlyphClass: 2
Flags: W
AnchorPoint: "Anchor-2" 466 0 basechar 0
AnchorPoint: "Anchor-1" 268 0 basechar 0
AnchorPoint: "Anchor-0" 267 496 basechar 0
LayerCount: 2
Fore
SplineSet
256 62 m 0,0,1
 317 62 317 62 349.5 104 c 128,-1,2
 382 146 382 146 382 224 c 2,3,-1
 382 497 l 1,4,-1
 466 497 l 1,5,-1
 466 0 l 1,6,-1
 403 0 l 1,7,-1
 382 72 l 1,8,9
 333 -12 333 -12 227 -12 c 0,10,11
 68 -12 68 -12 68 180 c 2,12,-1
 68 497 l 1,13,-1
 152 497 l 1,14,-1
 152 200 l 2,15,16
 152 127 152 127 176.5 94.5 c 128,-1,17
 201 62 201 62 256 62 c 0,0,1
EndSplineSet
EndChar

StartChar: v
Encoding: 118 118 89
Width: 441
GlyphClass: 1
Flags: W
LayerCount: 2
Fore
SplineSet
177 0 m 1,0,-1
 0 496 l 1,1,-1
 91 496 l 1,2,-1
 221 110 l 1,3,-1
 350 496 l 1,4,-1
 441 496 l 1,5,-1
 264 0 l 1,6,-1
 177 0 l 1,0,-1
EndSplineSet
EndChar

StartChar: w
Encoding: 119 119 90
Width: 654
GlyphClass: 1
Flags: W
AnchorPoint: "Anchor-0" 327 496 basechar 0
LayerCount: 2
Fore
SplineSet
143 0 m 1,0,-1
 0 496 l 1,1,-1
 90 496 l 1,2,-1
 185 129 l 1,3,-1
 284 496 l 1,4,-1
 371 496 l 1,5,-1
 469 129 l 1,6,-1
 564 496 l 1,7,-1
 654 496 l 1,8,-1
 512 0 l 1,9,-1
 435 0 l 1,10,-1
 327 399 l 1,11,-1
 219 0 l 1,12,-1
 143 0 l 1,0,-1
EndSplineSet
EndChar

StartChar: x
Encoding: 120 120 91
AltUni2: 0003c7.ffffffff.0 0003c7.ffffffff.0
Width: 461
GlyphClass: 1
Flags: W
AnchorPoint: "Anchor-1" 230 0 basechar 0
AnchorPoint: "Anchor-0" 230 496 basechar 0
LayerCount: 2
Fore
SplineSet
0 0 m 1,0,-1
 181 255 l 1,1,-1
 9 496 l 1,2,-1
 108 496 l 1,3,-1
 230 324 l 1,4,-1
 353 496 l 1,5,-1
 452 496 l 1,6,-1
 280 255 l 1,7,-1
 461 0 l 1,8,-1
 362 0 l 1,9,-1
 230 185 l 1,10,-1
 99 0 l 1,11,-1
 0 0 l 1,0,-1
EndSplineSet
EndChar

StartChar: y
Encoding: 121 121 92
Width: 429
GlyphClass: 2
Flags: W
AnchorPoint: "Anchor-1" 215 0 basechar 0
AnchorPoint: "Anchor-0" 220 496 basechar 0
LayerCount: 2
Fore
SplineSet
37 -161 m 1,0,-1
 37 -87 l 1,1,-1
 71 -87 l 2,2,3
 125 -87 125 -87 144 -72 c 128,-1,4
 163 -57 163 -57 179 -1 c 1,5,-1
 0 495 l 1,6,-1
 93 495 l 1,7,-1
 215 113 l 1,8,-1
 337 495 l 1,9,-1
 429 495 l 1,10,-1
 253 -22 l 2,11,12
 224 -108 224 -108 191 -134.5 c 128,-1,13
 158 -161 158 -161 80 -161 c 2,14,-1
 37 -161 l 1,0,-1
EndSplineSet
EndChar

StartChar: z
Encoding: 122 122 93
Width: 460
GlyphClass: 2
Flags: W
AnchorPoint: "Anchor-1" 230 0 basechar 0
AnchorPoint: "Anchor-0" 237 496 basechar 0
LayerCount: 2
Fore
SplineSet
40 0 m 1,0,-1
 40 74 l 1,1,-1
 325 422 l 1,2,-1
 49 422 l 1,3,-1
 49 496 l 1,4,-1
 420 496 l 1,5,-1
 420 422 l 1,6,-1
 135 74 l 1,7,-1
 430 74 l 1,8,-1
 430 0 l 1,9,-1
 40 0 l 1,0,-1
EndSplineSet
EndChar

StartChar: braceleft
Encoding: 123 123 94
Width: 319
GlyphClass: 1
Flags: W
LayerCount: 2
Fore
SplineSet
192 -26 m 2,0,1
 192 -66 192 -66 201.5 -78 c 128,-1,2
 211 -90 211 -90 243 -90 c 2,3,-1
 285 -90 l 1,4,-1
 285 -161 l 1,5,-1
 242 -161 l 2,6,7
 162 -161 162 -161 135 -133.5 c 128,-1,8
 108 -106 108 -106 108 -25 c 2,9,-1
 108 125 l 2,10,11
 108 179 108 179 93 199.5 c 128,-1,12
 78 220 78 220 38 220 c 1,13,-1
 38 287 l 1,14,15
 78 287 78 287 93 307.5 c 128,-1,16
 108 328 108 328 108 382 c 2,17,-1
 108 532 l 2,18,19
 108 613 108 613 135 640.5 c 128,-1,20
 162 668 162 668 242 668 c 2,21,-1
 285 668 l 1,22,-1
 285 597 l 1,23,-1
 243 597 l 2,24,25
 212 597 212 597 202 584.5 c 128,-1,26
 192 572 192 572 192 533 c 2,27,-1
 192 380 l 2,28,29
 192 325 192 325 173.5 295.5 c 128,-1,30
 155 266 155 266 113 254 c 1,31,-1
 113 253 l 1,32,33
 155 242 155 242 173.5 212.5 c 128,-1,34
 192 183 192 183 192 127 c 2,35,-1
 192 -26 l 2,0,1
EndSplineSet
EndChar

StartChar: bar
Encoding: 124 124 95
Width: 233
GlyphClass: 1
Flags: W
LayerCount: 2
Fore
SplineSet
76 -161 m 1,0,-1
 76 668 l 1,1,-1
 157 668 l 1,2,-1
 157 -161 l 1,3,-1
 76 -161 l 1,0,-1
EndSplineSet
EndChar

StartChar: braceright
Encoding: 125 125 96
Width: 319
GlyphClass: 1
Flags: W
LayerCount: 2
Fore
SplineSet
211 -25 m 2,0,1
 211 -106 211 -106 184 -133.5 c 128,-1,2
 157 -161 157 -161 77 -161 c 2,3,-1
 34 -161 l 1,4,-1
 34 -90 l 1,5,-1
 76 -90 l 2,6,7
 108 -90 108 -90 117.5 -78 c 128,-1,8
 127 -66 127 -66 127 -26 c 2,9,-1
 127 127 l 2,10,11
 127 183 127 183 145.5 212.5 c 128,-1,12
 164 242 164 242 206 253 c 1,13,-1
 206 254 l 1,14,15
 164 266 164 266 145.5 295.5 c 128,-1,16
 127 325 127 325 127 380 c 2,17,-1
 127 533 l 2,18,19
 127 572 127 572 117 584.5 c 128,-1,20
 107 597 107 597 76 597 c 2,21,-1
 34 597 l 1,22,-1
 34 668 l 1,23,-1
 77 668 l 2,24,25
 157 668 157 668 184 640.5 c 128,-1,26
 211 613 211 613 211 532 c 2,27,-1
 211 382 l 2,28,29
 211 329 211 329 226.5 308 c 128,-1,30
 242 287 242 287 281 287 c 1,31,-1
 281 220 l 1,32,33
 242 220 242 220 226.5 199 c 128,-1,34
 211 178 211 178 211 125 c 2,35,-1
 211 -25 l 2,0,1
EndSplineSet
EndChar

StartChar: asciitilde
Encoding: 126 126 97
Width: 555
GlyphClass: 1
Flags: W
LayerCount: 2
Fore
SplineSet
515 297 m 1,0,1
 504 250 504 250 467.5 222.5 c 128,-1,2
 431 195 431 195 379 195 c 0,3,4
 342 195 342 195 279 222 c 128,-1,5
 216 249 216 249 179 249 c 0,6,7
 124 249 124 249 115 199 c 1,8,-1
 40 221 l 1,9,10
 51 269 51 269 87.5 296 c 128,-1,11
 124 323 124 323 177 323 c 0,12,13
 216 323 216 323 278 295.5 c 128,-1,14
 340 268 340 268 378 268 c 0,15,16
 431 268 431 268 441 319 c 1,17,-1
 515 297 l 1,0,1
EndSplineSet
EndChar

StartChar: quoteleft
Encoding: 8216 8216 99
Width: 235
GlyphClass: 1
Flags: W
LayerCount: 2
Fore
SplineSet
182 482 m 0,0,1
 182 455 182 455 163.5 436.5 c 128,-1,2
 145 418 145 418 118 418 c 128,-1,3
 91 418 91 418 72 436.5 c 128,-1,4
 53 455 53 455 53 482 c 0,5,6
 53 494 53 494 58 507 c 2,7,-1
 120 668 l 1,8,-1
 175 668 l 1,9,-1
 128 546 l 1,10,11
 151 542 151 542 166.5 524 c 128,-1,12
 182 506 182 506 182 482 c 0,0,1
EndSplineSet
EndChar

StartChar: quoteright
Encoding: 8217 8217 100
Width: 235
GlyphClass: 1
Flags: W
LayerCount: 2
Fore
SplineSet
117 680 m 0,0,1
 144 680 144 680 163 661.5 c 128,-1,2
 182 643 182 643 182 616 c 0,3,4
 182 604 182 604 177 591 c 2,5,-1
 115 429 l 1,6,-1
 60 429 l 1,7,-1
 107 552 l 1,8,9
 83 556 83 556 68 574 c 128,-1,10
 53 592 53 592 53 615 c 0,11,12
 53 642 53 642 72 661 c 128,-1,13
 91 680 91 680 117 680 c 0,0,1
EndSplineSet
EndChar

StartChar: sterling
Encoding: 163 163 101
Width: 586
GlyphClass: 1
Flags: W
LayerCount: 2
Fore
SplineSet
235 26 m 0,0,1
 175 26 175 26 101 -12 c 1,2,-1
 73 55 l 1,3,4
 133 80 133 80 167.5 126 c 128,-1,5
 202 172 202 172 202 226 c 0,6,7
 202 270 202 270 179 318 c 1,8,-1
 70 318 l 1,9,-1
 70 369 l 1,10,-1
 156 369 l 1,11,12
 129 427 129 427 120.5 454.5 c 128,-1,13
 112 482 112 482 112 511 c 0,14,15
 112 589 112 589 171.5 634.5 c 128,-1,16
 231 680 231 680 333 680 c 0,17,18
 415 680 415 680 470.5 643.5 c 128,-1,19
 526 607 526 607 546 541 c 1,20,-1
 463 516 l 1,21,22
 440 609 440 609 329 609 c 0,23,24
 269 609 269 609 235 582 c 128,-1,25
 201 555 201 555 201 508 c 0,26,27
 201 480 201 480 209 456.5 c 128,-1,28
 217 433 217 433 249 369 c 1,29,-1
 453 369 l 1,30,-1
 453 318 l 1,31,-1
 272 318 l 1,32,33
 290 278 290 278 290 238 c 0,34,35
 290 146 290 146 194 90 c 1,36,37
 228 102 228 102 254 102 c 0,38,39
 290 102 290 102 338 84 c 128,-1,40
 386 66 386 66 422 66 c 0,41,42
 472 66 472 66 531 91 c 1,43,-1
 556 18 l 1,44,45
 487 -12 487 -12 431 -12 c 0,46,47
 389 -12 389 -12 333 7 c 128,-1,48
 277 26 277 26 235 26 c 0,0,1
EndSplineSet
EndChar

StartChar: Euro
Encoding: 8364 8364 102
Width: 664
GlyphClass: 1
Flags: W
LayerCount: 2
Fore
SplineSet
626 139 m 1,0,1
 592 66 592 66 528.5 27 c 128,-1,2
 465 -12 465 -12 380 -12 c 0,3,4
 272 -12 272 -12 200 54.5 c 128,-1,5
 128 121 128 121 106 240 c 1,6,-1
 15 240 l 1,7,-1
 43 291 l 1,8,-1
 100 291 l 1,9,-1
 100 377 l 1,10,-1
 15 377 l 1,11,-1
 43 428 l 1,12,-1
 106 428 l 1,13,14
 128 546 128 546 202.5 613 c 128,-1,15
 277 680 277 680 387 680 c 0,16,17
 466 680 466 680 528 640 c 128,-1,18
 590 600 590 600 623 528 c 1,19,-1
 545 500 l 1,20,21
 498 601 498 601 382 601 c 0,22,23
 313 601 313 601 264 555.5 c 128,-1,24
 215 510 215 510 197 428 c 1,25,-1
 446 428 l 1,26,-1
 418 377 l 1,27,-1
 189 377 l 1,28,-1
 189 291 l 1,29,-1
 371 291 l 1,30,-1
 343 240 l 1,31,-1
 197 240 l 1,32,33
 217 158 217 158 266.5 112.5 c 128,-1,34
 316 67 316 67 385 67 c 0,35,36
 500 67 500 67 549 167 c 1,37,-1
 626 139 l 1,0,1
EndSplineSet
EndChar

StartChar: brokenbar
Encoding: 166 166 103
Width: 233
GlyphClass: 1
Flags: W
LayerCount: 2
Fore
SplineSet
76 -161 m 1,0,-1
 76 149 l 1,1,-1
 157 149 l 1,2,-1
 157 -161 l 1,3,-1
 76 -161 l 1,0,-1
76 358 m 1,4,-1
 76 668 l 1,5,-1
 157 668 l 1,6,-1
 157 358 l 1,7,-1
 76 358 l 1,4,-1
EndSplineSet
EndChar

StartChar: section
Encoding: 167 167 104
Width: 530
GlyphClass: 1
Flags: W
LayerCount: 2
Fore
SplineSet
218 387 m 1,0,1
 171 373 171 373 143 347.5 c 128,-1,2
 115 322 115 322 115 294 c 0,3,4
 115 264 115 264 133 243 c 128,-1,5
 151 222 151 222 201 195 c 2,6,-1
 323 129 l 1,7,8
 416 168 416 168 416 226 c 0,9,10
 416 281 416 281 346 318 c 2,11,-1
 218 387 l 1,0,1
449 -23 m 0,12,13
 449 -91 449 -91 398 -132 c 128,-1,14
 347 -173 347 -173 261 -173 c 0,15,16
 187 -173 187 -173 136 -139 c 128,-1,17
 85 -105 85 -105 67 -44 c 1,18,-1
 150 -20 l 1,19,20
 171 -103 171 -103 263 -103 c 0,21,22
 310 -103 310 -103 336.5 -85 c 128,-1,23
 363 -67 363 -67 363 -36 c 128,-1,24
 363 -5 363 -5 337.5 21.5 c 128,-1,25
 312 48 312 48 254 77 c 2,26,-1
 160 124 l 2,27,28
 31 190 31 190 31 289 c 0,29,30
 31 334 31 334 63 369.5 c 128,-1,31
 95 405 95 405 151 424 c 1,32,33
 76 475 76 475 76 550 c 0,34,35
 76 607 76 607 127 643.5 c 128,-1,36
 178 680 178 680 257 680 c 0,37,38
 323 680 323 680 370.5 652.5 c 128,-1,39
 418 625 418 625 439 574 c 1,40,-1
 358 550 l 1,41,42
 335 610 335 610 253 610 c 0,43,44
 210 610 210 610 186 594.5 c 128,-1,45
 162 579 162 579 162 552 c 0,46,47
 162 506 162 506 257 456 c 2,48,-1
 371 398 l 2,49,50
 500 331 500 331 500 242 c 0,51,52
 500 194 500 194 470 154.5 c 128,-1,53
 440 115 440 115 385 91 c 1,54,55
 449 42 449 42 449 -23 c 0,12,13
EndSplineSet
EndChar

StartChar: dieresis
Encoding: 168 168 105
Width: 425
GlyphClass: 1
Flags: W
LayerCount: 2
Fore
SplineSet
372 644 m 0,0,1
 372 622 372 622 356 606 c 128,-1,2
 340 590 340 590 318 590 c 128,-1,3
 296 590 296 590 280.5 606 c 128,-1,4
 265 622 265 622 265 644 c 128,-1,5
 265 666 265 666 280.5 681.5 c 128,-1,6
 296 697 296 697 318 697 c 0,7,8
 341 697 341 697 356.5 682 c 128,-1,9
 372 667 372 667 372 644 c 0,0,1
161 644 m 0,10,11
 161 622 161 622 145.5 606 c 128,-1,12
 130 590 130 590 107 590 c 128,-1,13
 84 590 84 590 68.5 606 c 128,-1,14
 53 622 53 622 53 644 c 128,-1,15
 53 666 53 666 69 681.5 c 128,-1,16
 85 697 85 697 107 697 c 0,17,18
 130 697 130 697 145.5 682 c 128,-1,19
 161 667 161 667 161 644 c 0,10,11
EndSplineSet
EndChar

StartChar: copyright
Encoding: 169 169 106
Width: 798
GlyphClass: 1
Flags: W
LayerCount: 2
Fore
SplineSet
550 230 m 1,0,1
 505 150 505 150 401 150 c 0,2,3
 318 150 318 150 272.5 200.5 c 128,-1,4
 227 251 227 251 227 342 c 0,5,6
 227 431 227 431 274 481 c 128,-1,7
 321 531 321 531 403 531 c 0,8,9
 505 531 505 531 548 449 c 1,10,-1
 481 424 l 1,11,12
 456 473 456 473 401 473 c 0,13,14
 354 473 354 473 328.5 438.5 c 128,-1,15
 303 404 303 404 303 342 c 0,16,17
 303 279 303 279 329 244 c 128,-1,18
 355 209 355 209 401 209 c 0,19,20
 461 209 461 209 484 254 c 1,21,-1
 550 230 l 1,0,1
115 334 m 128,-1,23
 115 216 115 216 197.5 133 c 128,-1,24
 280 50 280 50 399 50 c 128,-1,25
 518 50 518 50 600.5 133 c 128,-1,26
 683 216 683 216 683 334 c 128,-1,27
 683 452 683 452 600.5 535 c 128,-1,28
 518 618 518 618 399 618 c 128,-1,29
 280 618 280 618 197.5 535 c 128,-1,22
 115 452 115 452 115 334 c 128,-1,23
745 334 m 128,-1,31
 745 191 745 191 643.5 89.5 c 128,-1,32
 542 -12 542 -12 399 -12 c 128,-1,33
 256 -12 256 -12 154.5 89.5 c 128,-1,34
 53 191 53 191 53 334 c 128,-1,35
 53 477 53 477 154.5 578.5 c 128,-1,36
 256 680 256 680 399 680 c 128,-1,37
 542 680 542 680 643.5 578.5 c 128,-1,30
 745 477 745 477 745 334 c 128,-1,31
EndSplineSet
EndChar

StartChar: guillemotleft
Encoding: 171 171 107
Width: 562
GlyphClass: 1
Flags: W
LayerCount: 2
Fore
SplineSet
201 40 m 1,0,-1
 53 251 l 1,1,-1
 201 461 l 1,2,-1
 300 461 l 1,3,-1
 151 251 l 1,4,-1
 300 40 l 1,5,-1
 201 40 l 1,0,-1
409 40 m 1,6,-1
 262 251 l 1,7,-1
 409 461 l 1,8,-1
 509 461 l 1,9,-1
 359 251 l 1,10,-1
 509 40 l 1,11,-1
 409 40 l 1,6,-1
EndSplineSet
EndChar

StartChar: logicalnot
Encoding: 172 172 108
Width: 602
GlyphClass: 1
Flags: W
LayerCount: 2
Fore
SplineSet
468 90 m 1,0,-1
 468 317 l 1,1,-1
 53 317 l 1,2,-1
 53 396 l 1,3,-1
 549 396 l 1,4,-1
 549 90 l 1,5,-1
 468 90 l 1,0,-1
EndSplineSet
EndChar

StartChar: uni00AD
Encoding: 173 173 109
Width: 348
GlyphClass: 1
Flags: W
LayerCount: 2
Fore
SplineSet
38 208 m 1,0,-1
 38 289 l 1,1,-1
 310 289 l 1,2,-1
 310 208 l 1,3,-1
 38 208 l 1,0,-1
EndSplineSet
EndChar

StartChar: degree
Encoding: 176 176 110
Width: 352
GlyphClass: 1
Flags: W
LayerCount: 2
Fore
SplineSet
103 544 m 0,0,1
 103 514 103 514 124.5 492.5 c 128,-1,2
 146 471 146 471 176 471 c 0,3,4
 207 471 207 471 228 492 c 128,-1,5
 249 513 249 513 249 544 c 0,6,7
 249 576 249 576 228.5 596.5 c 128,-1,8
 208 617 208 617 176 617 c 0,9,10
 145 617 145 617 124 596 c 128,-1,11
 103 575 103 575 103 544 c 0,0,1
312 544 m 128,-1,13
 312 488 312 488 272 448 c 128,-1,14
 232 408 232 408 176 408 c 128,-1,15
 120 408 120 408 80 448 c 128,-1,16
 40 488 40 488 40 544 c 128,-1,17
 40 600 40 600 80 640 c 128,-1,18
 120 680 120 680 176 680 c 128,-1,19
 232 680 232 680 272 640 c 128,-1,12
 312 600 312 600 312 544 c 128,-1,13
EndSplineSet
EndChar

StartChar: plusminus
Encoding: 177 177 111
Width: 579
GlyphClass: 1
Flags: W
LayerCount: 2
Fore
SplineSet
53 0 m 1,0,-1
 53 79 l 1,1,-1
 526 79 l 1,2,-1
 526 0 l 1,3,-1
 53 0 l 1,0,-1
250 124 m 1,4,-1
 250 270 l 1,5,-1
 53 270 l 1,6,-1
 53 349 l 1,7,-1
 250 349 l 1,8,-1
 250 496 l 1,9,-1
 329 496 l 1,10,-1
 329 349 l 1,11,-1
 526 349 l 1,12,-1
 526 270 l 1,13,-1
 329 270 l 1,14,-1
 329 124 l 1,15,-1
 250 124 l 1,4,-1
EndSplineSet
EndChar

StartChar: uni00B2
Encoding: 178 178 112
Width: 382
GlyphClass: 1
Flags: W
LayerCount: 2
Fore
SplineSet
320 686 m 0,0,1
 320 587 320 587 134 461 c 1,2,-1
 329 461 l 1,3,-1
 329 403 l 1,4,-1
 53 403 l 1,5,-1
 53 458 l 1,6,7
 166 548 166 548 208 595.5 c 128,-1,8
 250 643 250 643 250 682 c 0,9,10
 250 708 250 708 235 722 c 128,-1,11
 220 736 220 736 193 736 c 0,12,13
 137 736 137 736 129 677 c 1,14,-1
 65 695 l 1,15,16
 76 738 76 738 110.5 762 c 128,-1,17
 145 786 145 786 196 786 c 0,18,19
 252 786 252 786 286 759 c 128,-1,20
 320 732 320 732 320 686 c 0,0,1
EndSplineSet
EndChar

StartChar: uni00B3
Encoding: 179 179 113
Width: 383
GlyphClass: 1
Flags: W
LayerCount: 2
Fore
SplineSet
330 511 m 0,0,1
 330 459 330 459 291 428 c 128,-1,2
 252 397 252 397 187 397 c 0,3,4
 138 397 138 397 102.5 420.5 c 128,-1,5
 67 444 67 444 53 486 c 1,6,-1
 115 504 l 1,7,8
 135 448 135 448 188 448 c 0,9,10
 220 448 220 448 240.5 465 c 128,-1,11
 261 482 261 482 261 509 c 0,12,13
 261 572 261 572 176 572 c 2,14,-1
 151 572 l 1,15,-1
 151 626 l 1,16,-1
 172 626 l 2,17,18
 252 626 252 626 252 683 c 0,19,20
 252 708 252 708 235.5 722 c 128,-1,21
 219 736 219 736 190 736 c 0,22,23
 135 736 135 736 119 683 c 1,24,-1
 58 701 l 1,25,26
 72 742 72 742 107 764 c 128,-1,27
 142 786 142 786 194 786 c 0,28,29
 251 786 251 786 286 758.5 c 128,-1,30
 321 731 321 731 321 685 c 0,31,32
 321 629 321 629 268 602 c 1,33,34
 330 578 330 578 330 511 c 0,0,1
EndSplineSet
EndChar

StartChar: tonos
Encoding: 900 900 114
Width: 100
GlyphClass: 4
Flags: W
AnchorPoint: "Anchor-0" 26 412 mark 0
LayerCount: 2
Fore
SplineSet
62 678 m 0,0,1
 78 678 78 678 89 667 c 128,-1,2
 100 656 100 656 100 640 c 0,3,4
 100 636 100 636 98.5 631.5 c 128,-1,5
 97 627 97 627 94.5 620.5 c 128,-1,6
 92 614 92 614 91 609 c 2,7,-1
 49 495 l 1,8,-1
 0 495 l 1,9,10
 0 496 0 496 5.5 532 c 128,-1,11
 11 568 11 568 16.5 603.5 c 128,-1,12
 22 639 22 639 26 649 c 0,13,14
 33 678 33 678 62 678 c 0,0,1
EndSplineSet
EndChar

StartChar: dieresistonos
Encoding: 901 901 115
Width: 319
GlyphClass: 4
Flags: W
AnchorPoint: "Anchor-4" 160 697 basemark 0
AnchorPoint: "Anchor-4" 160 496 mark 0
AnchorPoint: "Anchor-0" 160 496 mark 0
LayerCount: 2
Fore
SplineSet
191 814 m 0,0,1
 208 814 208 814 218.5 803 c 128,-1,2
 229 792 229 792 229 776 c 0,3,4
 229 772 229 772 227.5 767.5 c 128,-1,5
 226 763 226 763 223.5 756.5 c 128,-1,6
 221 750 221 750 220 745 c 2,7,-1
 178 631 l 1,8,-1
 129 631 l 1,9,10
 129 632 129 632 134.5 668 c 128,-1,11
 140 704 140 704 145.5 739.5 c 128,-1,12
 151 775 151 775 155 785 c 0,13,14
 162 814 162 814 191 814 c 0,0,1
319 644 m 0,15,16
 319 622 319 622 303.5 606 c 128,-1,17
 288 590 288 590 265 590 c 0,18,19
 243 590 243 590 227.5 606 c 128,-1,20
 212 622 212 622 212 644 c 128,-1,21
 212 666 212 666 227 681.5 c 128,-1,22
 242 697 242 697 265 697 c 128,-1,23
 288 697 288 697 303.5 682 c 128,-1,24
 319 667 319 667 319 644 c 0,15,16
108 644 m 0,25,26
 108 622 108 622 92 606 c 128,-1,27
 76 590 76 590 54 590 c 128,-1,28
 32 590 32 590 16 606 c 128,-1,29
 0 622 0 622 0 644 c 128,-1,30
 0 666 0 666 16 681.5 c 128,-1,31
 32 697 32 697 54 697 c 0,32,33
 77 697 77 697 92.5 682 c 128,-1,34
 108 667 108 667 108 644 c 0,25,26
EndSplineSet
EndChar

StartChar: periodcentered
Encoding: 183 183 117
Width: 235
GlyphClass: 1
Flags: W
LayerCount: 2
Fore
SplineSet
182 248 m 0,0,1
 182 221 182 221 163 202 c 128,-1,2
 144 183 144 183 117 183 c 0,3,4
 91 183 91 183 72 202 c 128,-1,5
 53 221 53 221 53 248 c 0,6,7
 53 274 53 274 72 293 c 128,-1,8
 91 312 91 312 117 312 c 0,9,10
 144 312 144 312 163 293 c 128,-1,11
 182 274 182 274 182 248 c 0,0,1
EndSplineSet
EndChar

StartChar: guillemotright
Encoding: 187 187 121
Width: 562
GlyphClass: 1
Flags: W
LayerCount: 2
Fore
SplineSet
53 40 m 1,0,-1
 202 251 l 1,1,-1
 53 461 l 1,2,-1
 153 461 l 1,3,-1
 300 251 l 1,4,-1
 153 40 l 1,5,-1
 53 40 l 1,0,-1
262 40 m 1,6,-1
 411 251 l 1,7,-1
 262 461 l 1,8,-1
 361 461 l 1,9,-1
 509 251 l 1,10,-1
 361 40 l 1,11,-1
 262 40 l 1,6,-1
EndSplineSet
EndChar

StartChar: onehalf
Encoding: 189 189 123
Width: 812
GlyphClass: 1
Flags: W
LayerCount: 2
Fore
SplineSet
751 283 m 0,0,1
 751 183 751 183 565 58 c 1,2,-1
 759 58 l 1,3,-1
 759 0 l 1,4,-1
 484 0 l 1,5,-1
 484 54 l 1,6,7
 599 147 599 147 640 193.5 c 128,-1,8
 681 240 681 240 681 278 c 0,9,10
 681 304 681 304 666 318 c 128,-1,11
 651 332 651 332 624 332 c 0,12,13
 569 332 569 332 559 273 c 1,14,-1
 495 292 l 1,15,16
 506 334 506 334 541 358 c 128,-1,17
 576 382 576 382 627 382 c 0,18,19
 683 382 683 382 717 355 c 128,-1,20
 751 328 751 328 751 283 c 0,0,1
53 619 m 1,21,22
 129 619 129 619 147 668 c 1,23,-1
 203 668 l 1,24,-1
 203 292 l 1,25,-1
 136 292 l 1,26,-1
 136 571 l 1,27,-1
 53 571 l 1,28,-1
 53 619 l 1,21,22
115 0 m 1,29,-1
 583 668 l 1,30,-1
 671 668 l 1,31,-1
 203 0 l 1,32,-1
 115 0 l 1,29,-1
EndSplineSet
Ligature2: "'frac' Diagonal Fractions lookup 12 subtable" one slash two
EndChar

StartChar: Gamma
Encoding: 915 915 127
Width: 483
GlyphClass: 2
Flags: W
LayerCount: 2
Fore
SplineSet
473 668 m 1,0,-1
 473 587 l 1,1,-1
 157 587 l 1,2,-1
 157 0 l 1,3,-1
 76 0 l 1,4,-1
 76 668 l 1,5,-1
 473 668 l 1,0,-1
EndSplineSet
EndChar

StartChar: uni0394
Encoding: 916 916 128
Width: 673
GlyphClass: 1
Flags: W
LayerCount: 2
Fore
SplineSet
135 78 m 1,0,-1
 537 78 l 1,1,-1
 336 498 l 1,2,-1
 135 78 l 1,0,-1
10 0 m 1,3,-1
 336 680 l 1,4,-1
 663 0 l 1,5,-1
 10 0 l 1,3,-1
EndSplineSet
EndChar

StartChar: Theta
Encoding: 920 920 129
Width: 727
GlyphClass: 2
Flags: W
AnchorPoint: "Anchor-2" 454 0 basechar 0
AnchorPoint: "Anchor-1" 364 0 basechar 0
AnchorPoint: "Anchor-0" 364 668 basechar 0
LayerCount: 2
Fore
SplineSet
216 293 m 1,0,-1
 216 372 l 1,1,-1
 511 372 l 1,2,-1
 511 293 l 1,3,-1
 216 293 l 1,0,-1
146 335 m 128,-1,5
 146 214 146 214 205.5 140.5 c 128,-1,6
 265 67 265 67 363 67 c 0,7,8
 462 67 462 67 521.5 140 c 128,-1,9
 581 213 581 213 581 335 c 0,10,11
 581 456 581 456 521.5 528.5 c 128,-1,12
 462 601 462 601 363 601 c 0,13,14
 265 601 265 601 205.5 528.5 c 128,-1,4
 146 456 146 456 146 335 c 128,-1,5
677 335 m 0,15,16
 677 179 677 179 590.5 83.5 c 128,-1,17
 504 -12 504 -12 363 -12 c 0,18,19
 223 -12 223 -12 136.5 83.5 c 128,-1,20
 50 179 50 179 50 335 c 0,21,22
 50 490 50 490 136.5 585 c 128,-1,23
 223 680 223 680 363 680 c 0,24,25
 504 680 504 680 590.5 585 c 128,-1,26
 677 490 677 490 677 335 c 0,15,16
EndSplineSet
EndChar

StartChar: Lambda
Encoding: 923 923 130
Width: 626
GlyphClass: 2
Flags: W
AnchorPoint: "Anchor-2" 615 0 basechar 0
AnchorPoint: "Anchor-1" 313 0 basechar 0
AnchorPoint: "Anchor-0" 313 668 basechar 0
LayerCount: 2
Fore
SplineSet
516 0 m 1,0,-1
 313 574 l 1,1,-1
 110 0 l 1,2,-1
 10 0 l 1,3,-1
 261 669 l 1,4,-1
 366 669 l 1,5,-1
 616 0 l 1,6,-1
 516 0 l 1,0,-1
EndSplineSet
EndChar

StartChar: Xi
Encoding: 926 926 131
Width: 529
GlyphClass: 2
Flags: W
AnchorPoint: "Anchor-2" 325 0 basechar 0
AnchorPoint: "Anchor-1" 239 0 basechar 0
AnchorPoint: "Anchor-0" 239 668 basechar 0
LayerCount: 2
Fore
SplineSet
491 587 m 1,0,-1
 38 587 l 1,1,-1
 38 668 l 1,2,-1
 491 668 l 1,3,-1
 491 587 l 1,0,-1
491 81 m 1,4,-1
 491 0 l 1,5,-1
 38 0 l 1,6,-1
 38 81 l 1,7,-1
 491 81 l 1,4,-1
94 303 m 1,8,-1
 94 384 l 1,9,-1
 435 384 l 1,10,-1
 435 303 l 1,11,-1
 94 303 l 1,8,-1
EndSplineSet
EndChar

StartChar: Pi
Encoding: 928 928 132
Width: 631
GlyphClass: 2
Flags: W
LayerCount: 2
Fore
SplineSet
76 0 m 1,0,-1
 76 668 l 1,1,-1
 555 668 l 1,2,-1
 555 0 l 1,3,-1
 473 0 l 1,4,-1
 473 587 l 1,5,-1
 157 587 l 1,6,-1
 157 0 l 1,7,-1
 76 0 l 1,0,-1
EndSplineSet
EndChar

StartChar: Sigma
Encoding: 931 931 133
Width: 557
GlyphClass: 2
Flags: W
LayerCount: 2
Fore
SplineSet
38 0 m 1,0,-1
 38 81 l 1,1,-1
 274 334 l 1,2,-1
 38 587 l 1,3,-1
 38 668 l 1,4,-1
 519 668 l 1,5,-1
 519 587 l 1,6,-1
 148 587 l 1,7,-1
 384 334 l 1,8,-1
 148 81 l 1,9,-1
 519 81 l 1,10,-1
 519 0 l 1,11,-1
 38 0 l 1,0,-1
EndSplineSet
EndChar

StartChar: Phi
Encoding: 934 934 134
Width: 652
GlyphClass: 2
Flags: W
AnchorPoint: "Anchor-2" 392 0 basechar 0
AnchorPoint: "Anchor-1" 326 0 basechar 0
AnchorPoint: "Anchor-0" 326 668 basechar 0
LayerCount: 2
Fore
SplineSet
185 0 m 1,0,-1
 185 74 l 1,1,-1
 279 74 l 1,2,-1
 279 108 l 1,3,4
 163 119 163 119 100.5 177.5 c 128,-1,5
 38 236 38 236 38 334 c 128,-1,6
 38 432 38 432 100.5 490.5 c 128,-1,7
 163 549 163 549 279 560 c 1,8,-1
 279 594 l 1,9,-1
 185 594 l 1,10,-1
 185 668 l 1,11,-1
 467 668 l 1,12,-1
 467 594 l 1,13,-1
 373 594 l 1,14,-1
 373 560 l 1,15,16
 489 550 489 550 551.5 491.5 c 128,-1,17
 614 433 614 433 614 334 c 128,-1,18
 614 235 614 235 551.5 176.5 c 128,-1,19
 489 118 489 118 373 108 c 1,20,-1
 373 74 l 1,21,-1
 467 74 l 1,22,-1
 467 0 l 1,23,-1
 185 0 l 1,0,-1
279 515 m 1,24,25
 134 494 134 494 134 334 c 128,-1,26
 134 174 134 174 279 153 c 1,27,-1
 279 515 l 1,24,25
373 515 m 1,28,-1
 373 153 l 1,29,30
 518 174 518 174 518 334 c 128,-1,31
 518 494 518 494 373 515 c 1,28,-1
EndSplineSet
EndChar

StartChar: Psi
Encoding: 936 936 135
Width: 720
GlyphClass: 2
Flags: W
AnchorPoint: "Anchor-2" 442 0 basechar 0
AnchorPoint: "Anchor-1" 360 0 basechar 0
AnchorPoint: "Anchor-0" 360 668 basechar 0
LayerCount: 2
Fore
SplineSet
313 668 m 1,0,-1
 407 668 l 1,1,-1
 407 263 l 1,2,3
 487 270 487 270 518.5 314.5 c 128,-1,4
 550 359 550 359 550 464 c 2,5,-1
 550 668 l 1,6,-1
 644 668 l 1,7,-1
 644 471 l 2,8,9
 644 320 644 320 591 254.5 c 128,-1,10
 538 189 538 189 407 181 c 1,11,-1
 407 0 l 1,12,-1
 313 0 l 1,13,-1
 313 181 l 1,14,15
 183 189 183 189 129.5 254.5 c 128,-1,16
 76 320 76 320 76 471 c 2,17,-1
 76 668 l 1,18,-1
 170 668 l 1,19,-1
 170 464 l 2,20,21
 170 359 170 359 201.5 314.5 c 128,-1,22
 233 270 233 270 313 263 c 1,23,-1
 313 668 l 1,0,-1
EndSplineSet
EndChar

StartChar: uni03A9
Encoding: 937 937 136
Width: 687
GlyphClass: 1
Flags: W
AnchorPoint: "Anchor-2" 434 0 basechar 0
AnchorPoint: "Anchor-1" 344 0 basechar 0
AnchorPoint: "Anchor-0" 344 668 basechar 0
LayerCount: 2
Fore
SplineSet
123 385 m 0,0,1
 123 310 123 310 168 251.5 c 128,-1,2
 213 193 213 193 286 173 c 1,3,-1
 286 0 l 1,4,-1
 50 0 l 1,5,-1
 50 81 l 1,6,-1
 201 81 l 1,7,-1
 201 130 l 1,8,9
 131 170 131 170 90.5 238 c 128,-1,10
 50 306 50 306 50 385 c 0,11,12
 50 508 50 508 135.5 594 c 128,-1,13
 221 680 221 680 343 680 c 128,-1,14
 465 680 465 680 551 593.5 c 128,-1,15
 637 507 637 507 637 385 c 0,16,17
 637 306 637 306 597 238 c 128,-1,18
 557 170 557 170 486 130 c 1,19,-1
 486 81 l 1,20,-1
 637 81 l 1,21,-1
 637 0 l 1,22,-1
 401 0 l 1,23,-1
 401 173 l 1,24,25
 474 193 474 193 519 251.5 c 128,-1,26
 564 310 564 310 564 385 c 0,27,28
 564 476 564 476 499 541 c 128,-1,29
 434 606 434 606 343 606 c 128,-1,30
 252 606 252 606 187.5 541 c 128,-1,31
 123 476 123 476 123 385 c 0,0,1
EndSplineSet
EndChar

StartChar: alpha
Encoding: 945 945 144
Width: 581
GlyphClass: 2
Flags: W
AnchorPoint: "Anchor-1" 255 0 basechar 0
AnchorPoint: "Anchor-0" 266 496 basechar 0
LayerCount: 2
Fore
SplineSet
412 75 m 1,0,1
 365 -12 365 -12 250 -12 c 0,2,3
 157 -12 157 -12 97.5 60.5 c 128,-1,4
 38 133 38 133 38 246 c 128,-1,5
 38 359 38 359 97.5 431.5 c 128,-1,6
 157 504 157 504 250 504 c 0,7,8
 363 504 363 504 412 418 c 1,9,-1
 435 496 l 1,10,-1
 496 496 l 1,11,-1
 496 139 l 2,12,13
 496 98 496 98 505.5 86 c 128,-1,14
 515 74 515 74 547 74 c 2,15,-1
 566 74 l 1,16,-1
 566 0 l 1,17,-1
 529 0 l 2,18,19
 469 0 469 0 445 15.5 c 128,-1,20
 421 31 421 31 412 75 c 1,0,1
273 432 m 256,21,22
 207 432 207 432 169 382.5 c 128,-1,23
 131 333 131 333 131 246 c 0,24,25
 131 160 131 160 169 110 c 128,-1,26
 207 60 207 60 273 60 c 128,-1,27
 339 60 339 60 376.5 109.5 c 128,-1,28
 414 159 414 159 414 246 c 128,-1,29
 414 333 414 333 376.5 382.5 c 128,-1,30
 339 432 339 432 273 432 c 256,21,22
EndSplineSet
EndChar

StartChar: beta
Encoding: 946 946 145
Width: 597
GlyphClass: 2
Flags: W
LayerCount: 2
Fore
SplineSet
520 521 m 0,0,1
 520 418 520 418 420 376 c 1,2,3
 559 341 559 341 559 197 c 0,4,5
 559 99 559 99 493 43.5 c 128,-1,6
 427 -12 427 -12 311 -12 c 0,7,8
 222 -12 222 -12 160 32 c 1,9,-1
 160 -161 l 1,10,-1
 76 -161 l 1,11,-1
 76 433 l 2,12,13
 76 555 76 555 136 617.5 c 128,-1,14
 196 680 196 680 312 680 c 0,15,16
 405 680 405 680 462.5 636 c 128,-1,17
 520 592 520 592 520 521 c 0,0,1
160 104 m 1,18,19
 219 62 219 62 311 62 c 0,20,21
 385 62 385 62 427 97.5 c 128,-1,22
 469 133 469 133 469 195 c 0,23,24
 469 330 469 330 291 330 c 2,25,-1
 279 330 l 1,26,-1
 279 406 l 1,27,-1
 285 406 l 2,28,29
 355 406 355 406 395 434 c 128,-1,30
 435 462 435 462 435 511 c 0,31,32
 435 556 435 556 401 583.5 c 128,-1,33
 367 611 367 611 311 611 c 0,34,35
 160 611 160 611 160 433 c 2,36,-1
 160 104 l 1,18,19
EndSplineSet
EndChar

StartChar: gamma
Encoding: 947 947 146
Width: 473
GlyphClass: 2
Flags: W
AnchorPoint: "Anchor-1" 259 0 basechar 0
AnchorPoint: "Anchor-0" 264 496 basechar 0
LayerCount: 2
Fore
SplineSet
0 428 m 1,0,-1
 0 495 l 1,1,-1
 137 495 l 1,2,-1
 259 113 l 1,3,-1
 381 495 l 1,4,-1
 473 495 l 1,5,-1
 301 0 l 1,6,-1
 301 -161 l 1,7,-1
 223 -161 l 1,8,-1
 223 0 l 1,9,-1
 68 428 l 1,10,-1
 0 428 l 1,0,-1
EndSplineSet
EndChar

StartChar: delta
Encoding: 948 948 147
Width: 552
GlyphClass: 2
Flags: W
LayerCount: 2
Fore
SplineSet
514 246 m 0,0,1
 514 131 514 131 448.5 59.5 c 128,-1,2
 383 -12 383 -12 276 -12 c 0,3,4
 170 -12 170 -12 104 59.5 c 128,-1,5
 38 131 38 131 38 246 c 0,6,7
 38 353 38 353 95.5 423 c 128,-1,8
 153 493 153 493 248 503 c 1,9,-1
 128 594 l 1,10,-1
 128 668 l 1,11,-1
 424 668 l 1,12,-1
 424 594 l 1,13,-1
 237 594 l 1,14,-1
 413 463 l 1,15,16
 514 393 514 393 514 246 c 0,0,1
128 246 m 128,-1,18
 128 164 128 164 169 113 c 128,-1,19
 210 62 210 62 276 62 c 128,-1,20
 342 62 342 62 383 113 c 128,-1,21
 424 164 424 164 424 246 c 128,-1,22
 424 328 424 328 383 379 c 128,-1,23
 342 430 342 430 276 430 c 128,-1,24
 210 430 210 430 169 379 c 128,-1,17
 128 328 128 328 128 246 c 128,-1,18
EndSplineSet
EndChar

StartChar: epsilon
Encoding: 949 949 148
Width: 427
GlyphClass: 2
Flags: W
AnchorPoint: "Anchor-2" 355 0 basechar 0
AnchorPoint: "Anchor-1" 276 0 basechar 0
AnchorPoint: "Anchor-0" 213 496 basechar 0
LayerCount: 2
Fore
SplineSet
38 142 m 0,0,1
 38 227 38 227 115 257 c 1,2,3
 84 270 84 270 65.5 300 c 128,-1,4
 47 330 47 330 47 365 c 0,5,6
 47 424 47 424 94.5 464 c 128,-1,7
 142 504 142 504 213 504 c 0,8,9
 346 504 346 504 392 419 c 1,10,-1
 334 381 l 1,11,12
 328 403 328 403 296 419.5 c 128,-1,13
 264 436 264 436 228 436 c 0,14,15
 185 436 185 436 158 415 c 128,-1,16
 131 394 131 394 131 360 c 128,-1,17
 131 326 131 326 161.5 306.5 c 128,-1,18
 192 287 192 287 244 287 c 2,19,-1
 283 287 l 1,20,-1
 283 227 l 1,21,-1
 240 227 l 2,22,23
 122 227 122 227 122 144 c 0,24,25
 122 106 122 106 151 81.5 c 128,-1,26
 180 57 180 57 224 57 c 0,27,28
 311 57 311 57 338 115 c 1,29,-1
 397 77 l 1,30,31
 352 -12 352 -12 213 -12 c 0,32,33
 139 -12 139 -12 88.5 32.5 c 128,-1,34
 38 77 38 77 38 142 c 0,0,1
EndSplineSet
EndChar

StartChar: zeta
Encoding: 950 950 149
Width: 425
GlyphClass: 2
Flags: W
LayerCount: 2
Fore
SplineSet
286 62 m 0,0,1
 360 41 360 41 390.5 9 c 128,-1,2
 421 -23 421 -23 421 -80 c 2,3,-1
 421 -142 l 1,4,-1
 346 -129 l 1,5,-1
 346 -110 l 2,6,7
 346 -59 346 -59 329 -42 c 128,-1,8
 312 -25 312 -25 246 -9 c 0,9,10
 139 16 139 16 88.5 71 c 128,-1,11
 38 126 38 126 38 218 c 0,12,13
 38 328 38 328 101 409 c 128,-1,14
 164 490 164 490 330 594 c 1,15,-1
 54 594 l 1,16,-1
 54 668 l 1,17,-1
 425 668 l 1,18,-1
 425 594 l 1,19,20
 259 480 259 480 190.5 400 c 128,-1,21
 122 320 122 320 122 239 c 0,22,23
 122 161 122 161 155 125.5 c 128,-1,24
 188 90 188 90 286 62 c 0,0,1
EndSplineSet
EndChar

StartChar: eta
Encoding: 951 951 150
Width: 546
GlyphClass: 2
Flags: W
AnchorPoint: "Anchor-1" 257 0 basechar 0
AnchorPoint: "Anchor-0" 288 496 basechar 0
LayerCount: 2
Fore
SplineSet
285 432 m 0,0,1
 222 432 222 432 188 389.5 c 128,-1,2
 154 347 154 347 154 269 c 2,3,-1
 154 0 l 1,4,-1
 70 0 l 1,5,-1
 70 496 l 1,6,-1
 132 496 l 1,7,-1
 154 421 l 1,8,9
 204 504 204 504 314 504 c 0,10,11
 478 504 478 504 478 314 c 2,12,-1
 478 -161 l 1,13,-1
 394 -161 l 1,14,-1
 394 289 l 2,15,16
 394 366 394 366 369 399 c 128,-1,17
 344 432 344 432 285 432 c 0,0,1
EndSplineSet
EndChar

StartChar: theta
Encoding: 952 952 151
Width: 552
GlyphClass: 2
Flags: W
AnchorPoint: "Anchor-2" 355 0 basechar 0
AnchorPoint: "Anchor-1" 276 0 basechar 0
LayerCount: 2
Fore
SplineSet
514 342 m 0,0,1
 514 176 514 176 451 82 c 128,-1,2
 388 -12 388 -12 276 -12 c 128,-1,3
 164 -12 164 -12 101 82 c 128,-1,4
 38 176 38 176 38 342 c 0,5,6
 38 509 38 509 101.5 604.5 c 128,-1,7
 165 700 165 700 276 700 c 128,-1,8
 387 700 387 700 450.5 604.5 c 128,-1,9
 514 509 514 509 514 342 c 0,0,1
129 305 m 1,10,11
 138 62 138 62 276 62 c 128,-1,12
 414 62 414 62 423 305 c 1,13,-1
 129 305 l 1,10,11
423 378 m 1,14,15
 414 626 414 626 276 626 c 128,-1,16
 138 626 138 626 129 378 c 1,17,-1
 423 378 l 1,14,15
EndSplineSet
EndChar

StartChar: iota
Encoding: 953 953 152
Width: 239
GlyphClass: 2
Flags: W
AnchorPoint: "Anchor-1" 145 0 basechar 0
AnchorPoint: "Anchor-0" 114 497 basechar 0
LayerCount: 2
Fore
SplineSet
154 138 m 2,0,1
 154 98 154 98 163.5 86 c 128,-1,2
 173 74 173 74 205 74 c 2,3,-1
 224 74 l 1,4,-1
 224 0 l 1,5,-1
 187 0 l 2,6,7
 116 0 116 0 93 24 c 128,-1,8
 70 48 70 48 70 124 c 2,9,-1
 70 496 l 1,10,-1
 154 496 l 1,11,-1
 154 138 l 2,0,1
EndSplineSet
EndChar

StartChar: kgreenlandic
Encoding: 312 312 153
AltUni2: 0003ba.ffffffff.0 0003ba.ffffffff.0
Width: 490
GlyphClass: 2
Flags: W
AnchorPoint: "Anchor-1" 251 0 basechar 0
AnchorPoint: "Anchor-0" 242 496 basechar 0
LayerCount: 2
Fore
SplineSet
70 0 m 1,0,-1
 70 496 l 1,1,-1
 154 496 l 1,2,-1
 154 273 l 1,3,-1
 354 496 l 1,4,-1
 455 496 l 1,5,-1
 268 291 l 1,6,-1
 480 0 l 1,7,-1
 377 0 l 1,8,-1
 212 229 l 1,9,-1
 154 166 l 1,10,-1
 154 0 l 1,11,-1
 70 0 l 1,0,-1
EndSplineSet
EndChar

StartChar: lambda
Encoding: 955 955 154
Width: 497
GlyphClass: 2
Flags: W
AnchorPoint: "Anchor-1" 230 0 basechar 0
AnchorPoint: "Anchor-0" 235 496 basechar 0
LayerCount: 2
Fore
SplineSet
321 98 m 2,0,-1
 218 420 l 1,1,-1
 108 0 l 1,2,-1
 15 0 l 1,3,-1
 194 496 l 1,4,5
 178 552 178 552 159 567 c 128,-1,6
 140 582 140 582 86 582 c 2,7,-1
 52 582 l 1,8,-1
 52 656 l 1,9,-1
 95 656 l 2,10,11
 173 656 173 656 206 629.5 c 128,-1,12
 239 603 239 603 268 517 c 2,13,-1
 396 141 l 2,14,15
 412 95 412 95 422.5 84.5 c 128,-1,16
 433 74 433 74 463 74 c 2,17,-1
 482 74 l 1,18,-1
 482 0 l 1,19,-1
 445 0 l 2,20,21
 386 0 386 0 363 18 c 128,-1,22
 340 36 340 36 321 98 c 2,0,-1
EndSplineSet
EndChar

StartChar: uni03BC
Encoding: 956 956 155
Width: 538
GlyphClass: 1
Flags: W
LayerCount: 2
Fore
SplineSet
254 -12 m 0,0,1
 195 -12 195 -12 154 41 c 1,2,-1
 154 -162 l 1,3,-1
 70 -162 l 1,4,-1
 70 497 l 1,5,-1
 154 497 l 1,6,-1
 154 191 l 2,7,8
 154 124 154 124 179 93 c 128,-1,9
 204 62 204 62 258 62 c 0,10,11
 319 62 319 62 351.5 104 c 128,-1,12
 384 146 384 146 384 224 c 2,13,-1
 384 497 l 1,14,-1
 468 497 l 1,15,-1
 468 0 l 1,16,-1
 405 0 l 1,17,-1
 384 72 l 1,18,19
 356 24 356 24 328 6 c 128,-1,20
 300 -12 300 -12 254 -12 c 0,0,1
EndSplineSet
EndChar

StartChar: nu
Encoding: 957 957 156
Width: 441
GlyphClass: 2
Flags: W
LayerCount: 2
Fore
SplineSet
177 0 m 1,0,-1
 0 496 l 1,1,-1
 91 496 l 1,2,-1
 221 110 l 1,3,-1
 350 496 l 1,4,-1
 441 496 l 1,5,-1
 264 0 l 1,6,-1
 177 0 l 1,0,-1
EndSplineSet
EndChar

StartChar: xi
Encoding: 958 958 157
Width: 430
GlyphClass: 2
Flags: W
LayerCount: 2
Fore
SplineSet
406 594 m 1024,0,-1
406 668 m 1024,1,-1
38 197 m 0,2,3
 38 341 38 341 177 376 c 1,4,5
 121 399 121 399 99 427.5 c 128,-1,6
 77 456 77 456 77 504 c 0,7,8
 77 534 77 534 97 561.5 c 128,-1,9
 117 589 117 589 141 594 c 1,10,-1
 38 594 l 1,11,-1
 38 668 l 1,12,-1
 406 668 l 1,13,-1
 406 594 l 1,14,-1
 286 594 l 2,15,16
 227 594 227 594 194.5 567.5 c 128,-1,17
 162 541 162 541 162 494 c 0,18,19
 162 448 162 448 199 427 c 128,-1,20
 236 406 236 406 318 406 c 1,21,-1
 318 330 l 1,22,23
 218 330 218 330 173 298 c 128,-1,24
 128 266 128 266 128 195 c 0,25,26
 128 140 128 140 165.5 110.5 c 128,-1,27
 203 81 203 81 295 62 c 0,28,29
 365 48 365 48 397.5 13.5 c 128,-1,30
 430 -21 430 -21 430 -80 c 2,31,-1
 430 -142 l 1,32,-1
 355 -129 l 1,33,-1
 355 -110 l 2,34,35
 355 -58 355 -58 336 -40 c 128,-1,36
 317 -22 317 -22 255 -12 c 0,37,38
 148 4 148 4 93 57.5 c 128,-1,39
 38 111 38 111 38 197 c 0,2,3
EndSplineSet
EndChar

StartChar: pi
Encoding: 960 960 158
Width: 591
GlyphClass: 1
Flags: W
LayerCount: 2
Fore
SplineSet
500 0 m 2,0,1
 429 0 429 0 406 24 c 128,-1,2
 383 48 383 48 383 124 c 2,3,-1
 383 414 l 1,4,-1
 185 414 l 1,5,-1
 185 0 l 1,6,-1
 104 0 l 1,7,-1
 104 414 l 1,8,-1
 20 414 l 1,9,-1
 20 496 l 1,10,-1
 551 496 l 1,11,-1
 551 414 l 1,12,-1
 467 414 l 1,13,-1
 467 139 l 2,14,15
 467 97 467 97 476 85.5 c 128,-1,16
 485 74 485 74 518 74 c 2,17,-1
 551 74 l 1,18,-1
 551 0 l 1,19,-1
 500 0 l 2,0,1
EndSplineSet
EndChar

StartChar: sigma1
Encoding: 962 962 159
Width: 497
GlyphClass: 2
Flags: W
AnchorPoint: "Anchor-1" 270 0 basechar 0
AnchorPoint: "Anchor-0" 275 496 basechar 0
LayerCount: 2
Fore
SplineSet
272 62 m 0,0,1
 370 27 370 27 399.5 1 c 128,-1,2
 429 -25 429 -25 429 -80 c 2,3,-1
 429 -142 l 1,4,-1
 354 -129 l 1,5,-1
 354 -110 l 2,6,7
 354 -61 354 -61 339 -45 c 128,-1,8
 324 -29 324 -29 262 -12 c 0,9,10
 141 20 141 20 89.5 78.5 c 128,-1,11
 38 137 38 137 38 244 c 0,12,13
 38 360 38 360 104.5 432 c 128,-1,14
 171 504 171 504 278 504 c 0,15,16
 338 504 338 504 387.5 474.5 c 128,-1,17
 437 445 437 445 465 392 c 1,18,-1
 388 364 l 1,19,20
 372 395 372 395 341 412.5 c 128,-1,21
 310 430 310 430 272 430 c 0,22,23
 207 430 207 430 168 380.5 c 128,-1,24
 129 331 129 331 129 247 c 0,25,26
 129 170 129 170 159.5 130.5 c 128,-1,27
 190 91 190 91 272 62 c 0,0,1
EndSplineSet
EndChar

StartChar: sigma
Encoding: 963 963 160
Width: 602
GlyphClass: 2
Flags: W
AnchorPoint: "Anchor-2" 355 0 basechar 0
AnchorPoint: "Anchor-1" 276 0 basechar 0
LayerCount: 2
Fore
SplineSet
514 246 m 0,0,1
 514 131 514 131 448.5 59.5 c 128,-1,2
 383 -12 383 -12 276 -12 c 0,3,4
 170 -12 170 -12 104 59.5 c 128,-1,5
 38 131 38 131 38 246 c 0,6,7
 38 359 38 359 103.5 427.5 c 128,-1,8
 169 496 169 496 276 496 c 2,9,-1
 592 496 l 1,10,-1
 592 414 l 1,11,-1
 461 414 l 1,12,13
 514 349 514 349 514 246 c 0,0,1
128 246 m 128,-1,15
 128 164 128 164 169 113 c 128,-1,16
 210 62 210 62 276 62 c 128,-1,17
 342 62 342 62 383 113 c 128,-1,18
 424 164 424 164 424 246 c 128,-1,19
 424 328 424 328 383 379 c 128,-1,20
 342 430 342 430 276 430 c 128,-1,21
 210 430 210 430 169 379 c 128,-1,14
 128 328 128 328 128 246 c 128,-1,15
EndSplineSet
EndChar

StartChar: tau
Encoding: 964 964 161
Width: 362
GlyphClass: 2
Flags: W
LayerCount: 2
Fore
SplineSet
10 414 m 1,0,-1
 10 496 l 1,1,-1
 342 496 l 1,2,-1
 342 414 l 1,3,-1
 208 414 l 1,4,-1
 208 139 l 2,5,6
 208 97 208 97 217 85.5 c 128,-1,7
 226 74 226 74 259 74 c 2,8,-1
 292 74 l 1,9,-1
 292 0 l 1,10,-1
 241 0 l 2,11,12
 170 0 170 0 147 24 c 128,-1,13
 124 48 124 48 124 124 c 2,14,-1
 124 414 l 1,15,-1
 10 414 l 1,0,-1
EndSplineSet
EndChar

StartChar: upsilon
Encoding: 965 965 162
Width: 534
GlyphClass: 2
Flags: W
AnchorPoint: "Anchor-2" 349 0 basechar 0
AnchorPoint: "Anchor-1" 267 0 basechar 0
AnchorPoint: "Anchor-0" 267 496 basechar 0
LayerCount: 2
Fore
SplineSet
466 180 m 2,0,1
 466 94 466 94 411 41 c 128,-1,2
 356 -12 356 -12 267 -12 c 0,3,4
 181 -12 181 -12 124.5 42.5 c 128,-1,5
 68 97 68 97 68 180 c 2,6,-1
 68 496 l 1,7,-1
 152 496 l 1,8,-1
 152 200 l 2,9,10
 152 59 152 59 267 59 c 128,-1,11
 382 59 382 59 382 200 c 2,12,-1
 382 496 l 1,13,-1
 466 496 l 1,14,-1
 466 180 l 2,0,1
EndSplineSet
EndChar

StartChar: phi
Encoding: 966 966 163
Width: 592
GlyphClass: 2
Flags: W
LayerCount: 2
Fore
SplineSet
96 420 m 1,0,-1
 156 360 l 1,1,2
 128 315 128 315 128 246 c 0,3,4
 128 174 128 174 161.5 126.5 c 128,-1,5
 195 79 195 79 254 66 c 1,6,-1
 254 501 l 1,7,8
 275 504 275 504 296 504 c 0,9,10
 414 504 414 504 484 434 c 128,-1,11
 554 364 554 364 554 246 c 0,12,13
 554 139 554 139 496.5 70.5 c 128,-1,14
 439 2 439 2 338 -10 c 1,15,-1
 338 -161 l 1,16,-1
 254 -161 l 1,17,-1
 254 -9 l 1,18,19
 154 4 154 4 96 72 c 128,-1,20
 38 140 38 140 38 246 c 0,21,22
 38 351 38 351 96 420 c 1,0,-1
156 360 m 1024,23,-1
338 66 m 1,24,25
 398 79 398 79 431 126 c 128,-1,26
 464 173 464 173 464 246 c 128,-1,27
 464 319 464 319 431 366 c 128,-1,28
 398 413 398 413 338 426 c 1,29,-1
 338 66 l 1,24,25
EndSplineSet
EndChar

StartChar: psi
Encoding: 968 968 164
Width: 674
GlyphClass: 2
Flags: W
AnchorPoint: "Anchor-2" 419 -161 basechar 0
AnchorPoint: "Anchor-1" 337 -161 basechar 0
AnchorPoint: "Anchor-0" 337 668 basechar 0
LayerCount: 2
Fore
SplineSet
295 668 m 1,0,-1
 379 668 l 1,1,-1
 379 61 l 1,2,3
 460 68 460 68 491 111.5 c 128,-1,4
 522 155 522 155 522 262 c 2,5,-1
 522 496 l 1,6,-1
 606 496 l 1,7,-1
 606 269 l 2,8,9
 606 114 606 114 557.5 54.5 c 128,-1,10
 509 -5 509 -5 379 -11 c 1,11,-1
 379 -161 l 1,12,-1
 295 -161 l 1,13,-1
 295 -11 l 1,14,15
 165 -4 165 -4 116.5 55.5 c 128,-1,16
 68 115 68 115 68 269 c 2,17,-1
 68 496 l 1,18,-1
 152 496 l 1,19,-1
 152 262 l 2,20,21
 152 155 152 155 183 111.5 c 128,-1,22
 214 68 214 68 295 61 c 1,23,-1
 295 668 l 1,0,-1
EndSplineSet
EndChar

StartChar: omega
Encoding: 969 969 165
Width: 741
GlyphClass: 2
Flags: W
AnchorPoint: "Anchor-1" 425 0 basechar 0
AnchorPoint: "Anchor-0" 367 496 basechar 0
LayerCount: 2
Fore
SplineSet
534 -12 m 0,0,1
 415 -12 415 -12 367 97 c 1,2,3
 320 -12 320 -12 207 -12 c 0,4,5
 133 -12 133 -12 87.5 52.5 c 128,-1,6
 42 117 42 117 42 221 c 0,7,8
 42 367 42 367 98 501 c 1,9,-1
 183 491 l 1,10,11
 150 425 150 425 138 367.5 c 128,-1,12
 126 310 126 310 126 221 c 0,13,14
 126 145 126 145 150 104 c 128,-1,15
 174 63 174 63 219 63 c 0,16,17
 332 63 332 63 332 280 c 1,18,-1
 402 280 l 1,19,20
 402 175 402 175 433 119 c 128,-1,21
 464 63 464 63 522 63 c 0,22,23
 567 63 567 63 591 104 c 128,-1,24
 615 145 615 145 615 221 c 0,25,26
 615 310 615 310 603 367.5 c 128,-1,27
 591 425 591 425 558 491 c 1,28,-1
 643 501 l 1,29,30
 699 367 699 367 699 221 c 0,31,32
 699 117 699 117 653.5 52.5 c 128,-1,33
 608 -12 608 -12 534 -12 c 0,0,1
367 97 m 1024,34,-1
EndSplineSet
EndChar

StartChar: circumflex
Encoding: 710 710 172
Width: 429
GlyphClass: 1
Flags: W
LayerCount: 2
Fore
SplineSet
53 575 m 1,0,-1
 165 676 l 2,1,2
 184 695 184 695 215 695 c 0,3,4
 245 695 245 695 264 676 c 2,5,-1
 376 575 l 1,6,-1
 282 575 l 1,7,-1
 214 636 l 1,8,-1
 147 575 l 1,9,-1
 53 575 l 1,0,-1
EndSplineSet
EndChar

StartChar: caron
Encoding: 711 711 173
Width: 429
GlyphClass: 1
Flags: W
LayerCount: 2
Fore
SplineSet
215 569 m 0,0,1
 184 569 184 569 165 588 c 2,2,-1
 53 689 l 1,3,-1
 147 689 l 1,4,-1
 214 628 l 1,5,-1
 282 689 l 1,6,-1
 376 689 l 1,7,-1
 264 588 l 2,8,9
 245 569 245 569 215 569 c 0,0,1
EndSplineSet
EndChar

StartChar: breve
Encoding: 728 728 174
Width: 399
GlyphClass: 1
Flags: W
LayerCount: 2
Fore
SplineSet
347 689 m 1,0,1
 336 636 336 636 295 602.5 c 128,-1,2
 254 569 254 569 200 569 c 128,-1,3
 146 569 146 569 105 602.5 c 128,-1,4
 64 636 64 636 53 689 c 1,5,-1
 122 689 l 1,6,7
 144 636 144 636 200 636 c 0,8,9
 225 636 225 636 246.5 650.5 c 128,-1,10
 268 665 268 665 278 689 c 1,11,-1
 347 689 l 1,0,1
EndSplineSet
EndChar

StartChar: dotaccent
Encoding: 729 729 175
Width: 214
GlyphClass: 1
Flags: W
LayerCount: 2
Fore
SplineSet
161 644 m 0,0,1
 161 622 161 622 145.5 606 c 128,-1,2
 130 590 130 590 107 590 c 128,-1,3
 84 590 84 590 68.5 606 c 128,-1,4
 53 622 53 622 53 644 c 128,-1,5
 53 666 53 666 68.5 682 c 128,-1,6
 84 698 84 698 107 698 c 128,-1,7
 130 698 130 698 145.5 682.5 c 128,-1,8
 161 667 161 667 161 644 c 0,0,1
EndSplineSet
EndChar

StartChar: ring
Encoding: 730 730 176
Width: 253
GlyphClass: 1
Flags: W
LayerCount: 2
Fore
SplineSet
72 668 m 128,-1,1
 72 646 72 646 87 631.5 c 128,-1,2
 102 617 102 617 124 617 c 128,-1,3
 146 617 146 617 161 631.5 c 128,-1,4
 176 646 176 646 176 668 c 128,-1,5
 176 690 176 690 161 704.5 c 128,-1,6
 146 719 146 719 124 719 c 128,-1,7
 102 719 102 719 87 704.5 c 128,-1,0
 72 690 72 690 72 668 c 128,-1,1
233 668 m 128,-1,9
 233 622 233 622 202 590.5 c 128,-1,10
 171 559 171 559 126 559 c 0,11,12
 80 559 80 559 47.5 591 c 128,-1,13
 15 623 15 623 15 668 c 128,-1,14
 15 713 15 713 47.5 745 c 128,-1,15
 80 777 80 777 126 777 c 0,16,17
 171 777 171 777 202 745.5 c 128,-1,8
 233 714 233 714 233 668 c 128,-1,9
EndSplineSet
EndChar

StartChar: ogonek
Encoding: 731 731 177
Width: 263
GlyphClass: 1
Flags: W
LayerCount: 2
Fore
SplineSet
172 -115 m 0,0,1
 184 -115 184 -115 210 -107 c 1,2,-1
 210 -161 l 1,3,4
 176 -173 176 -173 147 -173 c 0,5,6
 106 -173 106 -173 79.5 -150 c 128,-1,7
 53 -127 53 -127 53 -91 c 0,8,9
 53 -59 53 -59 75 -34 c 128,-1,10
 97 -9 97 -9 133 0 c 1,11,-1
 210 0 l 1,12,13
 123 -32 123 -32 123 -75 c 0,14,15
 123 -115 123 -115 172 -115 c 0,0,1
EndSplineSet
EndChar

StartChar: quotedblleft
Encoding: 8220 8220 179
Width: 398
GlyphClass: 1
Flags: W
LayerCount: 2
Fore
SplineSet
345 482 m 0,0,1
 345 455 345 455 326.5 436.5 c 128,-1,2
 308 418 308 418 281 418 c 0,3,4
 252 418 252 418 234.5 435 c 128,-1,5
 217 452 217 452 217 480 c 0,6,7
 217 502 217 502 224 515 c 2,8,-1
 283 668 l 1,9,-1
 338 668 l 1,10,-1
 291 546 l 1,11,12
 314 542 314 542 329.5 524 c 128,-1,13
 345 506 345 506 345 482 c 0,0,1
182 482 m 0,14,15
 182 455 182 455 163.5 436.5 c 128,-1,16
 145 418 145 418 118 418 c 0,17,18
 89 418 89 418 71.5 435 c 128,-1,19
 54 452 54 452 54 480 c 0,20,21
 54 502 54 502 61 515 c 2,22,-1
 120 668 l 1,23,-1
 175 668 l 1,24,-1
 128 546 l 1,25,26
 151 542 151 542 166.5 524 c 128,-1,27
 182 506 182 506 182 482 c 0,14,15
EndSplineSet
EndChar

StartChar: quotedblright
Encoding: 8221 8221 180
Width: 398
GlyphClass: 1
Flags: W
LayerCount: 2
Fore
SplineSet
281 680 m 128,-1,1
 308 680 308 680 326.5 661.5 c 128,-1,2
 345 643 345 643 345 616 c 0,3,4
 345 604 345 604 340 591 c 2,5,-1
 279 429 l 1,6,-1
 223 429 l 1,7,-1
 270 552 l 1,8,9
 246 556 246 556 231 574 c 128,-1,10
 216 592 216 592 216 615 c 0,11,12
 216 642 216 642 235 661 c 128,-1,0
 254 680 254 680 281 680 c 128,-1,1
117 680 m 0,13,14
 144 680 144 680 163 661.5 c 128,-1,15
 182 643 182 643 182 616 c 0,16,17
 182 604 182 604 177 591 c 2,18,-1
 115 429 l 1,19,-1
 60 429 l 1,20,-1
 107 552 l 1,21,22
 83 556 83 556 68 574 c 128,-1,23
 53 592 53 592 53 615 c 0,24,25
 53 642 53 642 72 661 c 128,-1,26
 91 680 91 680 117 680 c 0,13,14
EndSplineSet
EndChar

StartChar: dagger
Encoding: 8224 8224 182
Width: 541
GlyphClass: 1
Flags: W
LayerCount: 2
Fore
SplineSet
230 0 m 1,0,-1
 230 416 l 1,1,-1
 40 416 l 1,2,-1
 40 496 l 1,3,-1
 230 496 l 1,4,-1
 230 668 l 1,5,-1
 311 668 l 1,6,-1
 311 496 l 1,7,-1
 501 496 l 1,8,-1
 501 416 l 1,9,-1
 311 416 l 1,10,-1
 311 0 l 1,11,-1
 230 0 l 1,0,-1
EndSplineSet
EndChar

StartChar: daggerdbl
Encoding: 8225 8225 183
Width: 541
GlyphClass: 1
Flags: W
LayerCount: 2
Fore
SplineSet
230 0 m 1,0,-1
 230 172 l 1,1,-1
 40 172 l 1,2,-1
 40 251 l 1,3,-1
 230 251 l 1,4,-1
 230 416 l 1,5,-1
 40 416 l 1,6,-1
 40 496 l 1,7,-1
 230 496 l 1,8,-1
 230 668 l 1,9,-1
 311 668 l 1,10,-1
 311 496 l 1,11,-1
 501 496 l 1,12,-1
 501 416 l 1,13,-1
 311 416 l 1,14,-1
 311 251 l 1,15,-1
 501 251 l 1,16,-1
 501 172 l 1,17,-1
 311 172 l 1,18,-1
 311 0 l 1,19,-1
 230 0 l 1,0,-1
EndSplineSet
EndChar

StartChar: bullet
Encoding: 8226 8226 184
Width: 438
GlyphClass: 1
Flags: W
LayerCount: 2
Fore
SplineSet
385 254 m 128,-1,1
 385 185 385 185 336.5 136.5 c 128,-1,2
 288 88 288 88 219 88 c 128,-1,3
 150 88 150 88 101.5 136.5 c 128,-1,4
 53 185 53 185 53 254 c 128,-1,5
 53 323 53 323 101.5 371.5 c 128,-1,6
 150 420 150 420 219 420 c 128,-1,7
 288 420 288 420 336.5 371.5 c 128,-1,0
 385 323 385 323 385 254 c 128,-1,1
EndSplineSet
EndChar

StartChar: ellipsis
Encoding: 8230 8230 185
Width: 696
GlyphClass: 1
Flags: W
LayerCount: 2
Fore
SplineSet
413 52 m 0,0,1
 413 26 413 26 394 7 c 128,-1,2
 375 -12 375 -12 348 -12 c 128,-1,3
 321 -12 321 -12 302.5 6.5 c 128,-1,4
 284 25 284 25 284 52 c 0,5,6
 284 80 284 80 302.5 98.5 c 128,-1,7
 321 117 321 117 348 117 c 128,-1,8
 375 117 375 117 394 98 c 128,-1,9
 413 79 413 79 413 52 c 0,0,1
643 52 m 0,10,11
 643 26 643 26 624 7 c 128,-1,12
 605 -12 605 -12 579 -12 c 0,13,14
 552 -12 552 -12 533 7 c 128,-1,15
 514 26 514 26 514 52 c 0,16,17
 514 79 514 79 533 98 c 128,-1,18
 552 117 552 117 579 117 c 0,19,20
 605 117 605 117 624 98 c 128,-1,21
 643 79 643 79 643 52 c 0,10,11
182 52 m 0,22,23
 182 26 182 26 163 7 c 128,-1,24
 144 -12 144 -12 117 -12 c 0,25,26
 91 -12 91 -12 72 7 c 128,-1,27
 53 26 53 26 53 52 c 0,28,29
 53 79 53 79 72 98 c 128,-1,30
 91 117 91 117 117 117 c 0,31,32
 144 117 144 117 163 98 c 128,-1,33
 182 79 182 79 182 52 c 0,22,23
EndSplineSet
EndChar

StartChar: perthousand
Encoding: 8240 8240 186
Width: 1328
GlyphClass: 1
Flags: W
LayerCount: 2
Fore
SplineSet
1001 169 m 0,0,1
 1001 124 1001 124 1032.5 93 c 128,-1,2
 1064 62 1064 62 1109 62 c 0,3,4
 1153 62 1153 62 1184.5 93.5 c 128,-1,5
 1216 125 1216 125 1216 169 c 0,6,7
 1216 214 1216 214 1185 245.5 c 128,-1,8
 1154 277 1154 277 1109 277 c 0,9,10
 1063 277 1063 277 1032 246 c 128,-1,11
 1001 215 1001 215 1001 169 c 0,0,1
600 169 m 0,12,13
 600 124 600 124 631.5 93 c 128,-1,14
 663 62 663 62 708 62 c 0,15,16
 752 62 752 62 783.5 93.5 c 128,-1,17
 815 125 815 125 815 169 c 0,18,19
 815 214 815 214 784 245.5 c 128,-1,20
 753 277 753 277 708 277 c 0,21,22
 662 277 662 277 631 246 c 128,-1,23
 600 215 600 215 600 169 c 0,12,13
1290 169 m 0,24,25
 1290 94 1290 94 1237 41 c 128,-1,26
 1184 -12 1184 -12 1109 -12 c 0,27,28
 1033 -12 1033 -12 980 41 c 128,-1,29
 927 94 927 94 927 169 c 0,30,31
 927 245 927 245 980 298 c 128,-1,32
 1033 351 1033 351 1109 351 c 128,-1,33
 1185 351 1185 351 1237.5 298 c 128,-1,34
 1290 245 1290 245 1290 169 c 0,24,25
889 169 m 0,35,36
 889 94 889 94 836 41 c 128,-1,37
 783 -12 783 -12 708 -12 c 0,38,39
 632 -12 632 -12 579 41 c 128,-1,40
 526 94 526 94 526 169 c 0,41,42
 526 245 526 245 579 298 c 128,-1,43
 632 351 632 351 708 351 c 128,-1,44
 784 351 784 351 836.5 298 c 128,-1,45
 889 245 889 245 889 169 c 0,35,36
112 498 m 128,-1,47
 112 454 112 454 143.5 422.5 c 128,-1,48
 175 391 175 391 220 391 c 0,49,50
 264 391 264 391 295.5 422.5 c 128,-1,51
 327 454 327 454 327 498 c 128,-1,52
 327 542 327 542 295.5 573.5 c 128,-1,53
 264 605 264 605 220 605 c 0,54,55
 175 605 175 605 143.5 573.5 c 128,-1,46
 112 542 112 542 112 498 c 128,-1,47
401 498 m 128,-1,57
 401 422 401 422 348 369 c 128,-1,58
 295 316 295 316 220 316 c 0,59,60
 144 316 144 316 91 369 c 128,-1,61
 38 422 38 422 38 498 c 128,-1,62
 38 574 38 574 91 627 c 128,-1,63
 144 680 144 680 220 680 c 0,64,65
 295 680 295 680 348 627 c 128,-1,56
 401 574 401 574 401 498 c 128,-1,57
186 0 m 1,66,-1
 654 668 l 1,67,-1
 742 668 l 1,68,-1
 274 0 l 1,69,-1
 186 0 l 1,66,-1
EndSplineSet
EndChar

StartChar: guilsinglleft
Encoding: 8249 8249 187
Width: 353
GlyphClass: 1
Flags: W
LayerCount: 2
Fore
SplineSet
201 40 m 1,0,-1
 53 250 l 1,1,-1
 201 461 l 1,2,-1
 300 461 l 1,3,-1
 151 250 l 1,4,-1
 300 40 l 1,5,-1
 201 40 l 1,0,-1
EndSplineSet
EndChar

StartChar: guilsinglright
Encoding: 8250 8250 188
Width: 353
GlyphClass: 1
Flags: W
LayerCount: 2
Fore
SplineSet
53 40 m 1,0,-1
 202 250 l 1,1,-1
 53 461 l 1,2,-1
 153 461 l 1,3,-1
 300 250 l 1,4,-1
 153 40 l 1,5,-1
 53 40 l 1,0,-1
EndSplineSet
EndChar

StartChar: fraction
Encoding: 8260 8260 189
Width: 586
GlyphClass: 1
Flags: W
LayerCount: 2
Fore
SplineSet
15 0 m 1,0,-1
 483 668 l 1,1,-1
 571 668 l 1,2,-1
 103 0 l 1,3,-1
 15 0 l 1,0,-1
EndSplineSet
EndChar

StartChar: ordfeminine
Encoding: 170 170 190
Width: 371
GlyphClass: 1
Flags: W
LayerCount: 2
Fore
SplineSet
123 483 m 0,0,1
 123 448 123 448 172 448 c 0,2,3
 204 448 204 448 221.5 466.5 c 128,-1,4
 239 485 239 485 239 519 c 2,5,-1
 239 530 l 1,6,-1
 217 527 l 2,7,8
 163 519 163 519 143 510 c 128,-1,9
 123 501 123 501 123 483 c 0,0,1
248 442 m 1,10,11
 224 397 224 397 152 397 c 0,12,13
 107 397 107 397 80 419 c 128,-1,14
 53 441 53 441 53 478 c 0,15,16
 53 522 53 522 93 545 c 128,-1,17
 133 568 133 568 222 576 c 2,18,-1
 239 578 l 1,19,20
 239 615 239 615 227.5 629 c 128,-1,21
 216 643 216 643 186 643 c 0,22,23
 138 643 138 643 129 607 c 1,24,-1
 68 625 l 1,25,26
 79 656 79 656 111.5 674 c 128,-1,27
 144 692 144 692 189 692 c 0,28,29
 307 692 307 692 307 573 c 2,30,-1
 307 491 l 2,31,32
 307 472 307 472 318 403 c 1,33,-1
 260 403 l 1,34,-1
 248 442 l 1,10,11
EndSplineSet
EndChar

StartChar: registered
Encoding: 174 174 191
Width: 798
GlyphClass: 1
Flags: W
LayerCount: 2
Fore
SplineSet
474 413 m 0,0,1
 474 442 474 442 453.5 455.5 c 128,-1,2
 433 469 433 469 388 469 c 2,3,-1
 340 469 l 1,4,-1
 340 359 l 1,5,-1
 393 359 l 2,6,7
 474 359 474 359 474 413 c 0,0,1
550 414 m 0,8,9
 550 336 550 336 462 311 c 1,10,-1
 570 162 l 1,11,-1
 484 162 l 1,12,-1
 382 301 l 1,13,-1
 340 301 l 1,14,-1
 340 162 l 1,15,-1
 264 162 l 1,16,-1
 264 530 l 1,17,-1
 376 530 l 2,18,19
 471 530 471 530 510.5 504 c 128,-1,20
 550 478 550 478 550 414 c 0,8,9
115 333 m 0,21,22
 115 215 115 215 198 132 c 128,-1,23
 281 49 281 49 399 49 c 128,-1,24
 517 49 517 49 600 132 c 128,-1,25
 683 215 683 215 683 333 c 0,26,27
 683 452 683 452 600 535.5 c 128,-1,28
 517 619 517 619 399 619 c 128,-1,29
 281 619 281 619 198 535.5 c 128,-1,30
 115 452 115 452 115 333 c 0,21,22
745 333 m 0,31,32
 745 190 745 190 643.5 89 c 128,-1,33
 542 -12 542 -12 399 -12 c 128,-1,34
 256 -12 256 -12 154.5 89 c 128,-1,35
 53 190 53 190 53 333 c 0,36,37
 53 477 53 477 154.5 578.5 c 128,-1,38
 256 680 256 680 399 680 c 128,-1,39
 542 680 542 680 643.5 578.5 c 128,-1,40
 745 477 745 477 745 333 c 0,31,32
EndSplineSet
EndChar

StartChar: macron
Encoding: 175 175 192
Width: 382
GlyphClass: 1
Flags: W
LayerCount: 2
Fore
SplineSet
53 601 m 1,0,-1
 53 668 l 1,1,-1
 329 668 l 1,2,-1
 329 601 l 1,3,-1
 53 601 l 1,0,-1
EndSplineSet
EndChar

StartChar: acute
Encoding: 180 180 193
Width: 268
GlyphClass: 1
Flags: W
LayerCount: 2
Fore
SplineSet
53 571 m 1,0,1
 129 672 129 672 145 689.5 c 128,-1,2
 161 707 161 707 177 707 c 0,3,4
 194 707 194 707 204.5 696.5 c 128,-1,5
 215 686 215 686 215 669 c 0,6,7
 215 656 215 656 201.5 641 c 128,-1,8
 188 626 188 626 142 588 c 0,9,10
 133 581 133 581 123 571 c 1,11,-1
 53 571 l 1,0,1
EndSplineSet
EndChar

StartChar: paragraph
Encoding: 182 182 194
Width: 508
GlyphClass: 1
Flags: W
LayerCount: 2
Fore
SplineSet
38 479 m 0,0,1
 38 558 38 558 93 613 c 128,-1,2
 148 668 148 668 227 668 c 2,3,-1
 483 668 l 1,4,-1
 483 601 l 1,5,-1
 443 601 l 1,6,-1
 443 -161 l 1,7,-1
 362 -161 l 1,8,-1
 362 601 l 1,9,-1
 268 601 l 1,10,-1
 268 -161 l 1,11,-1
 187 -161 l 1,12,-1
 187 294 l 1,13,14
 122 308 122 308 80 360 c 128,-1,15
 38 412 38 412 38 479 c 0,0,1
EndSplineSet
EndChar

StartChar: cedilla
Encoding: 184 184 195
Width: 291
GlyphClass: 1
Flags: W
LayerCount: 2
Fore
SplineSet
258 -102 m 0,0,1
 258 -136 258 -136 230.5 -158.5 c 128,-1,2
 203 -181 203 -181 161 -181 c 0,3,4
 124 -181 124 -181 73 -161 c 1,5,-1
 87 -126 l 1,6,7
 123 -140 123 -140 145 -140 c 0,8,9
 168 -140 168 -140 182 -130.5 c 128,-1,10
 196 -121 196 -121 196 -106 c 0,11,12
 196 -81 196 -81 160 -81 c 0,13,14
 153 -81 153 -81 140 -84 c 128,-1,15
 127 -87 127 -87 120 -87 c 0,16,17
 112 -87 112 -87 106.5 -81 c 128,-1,18
 101 -75 101 -75 101 -67 c 0,19,20
 101 -62 101 -62 104 -57 c 2,21,-1
 155 25 l 1,22,-1
 189 4 l 1,23,-1
 159 -45 l 1,24,25
 171 -41 171 -41 189 -41 c 0,26,27
 220 -41 220 -41 239 -57.5 c 128,-1,28
 258 -74 258 -74 258 -102 c 0,0,1
EndSplineSet
EndChar

StartChar: uni00B9
Encoding: 185 185 196
Width: 256
GlyphClass: 1
Flags: W
LayerCount: 2
Fore
SplineSet
53 730 m 1,0,1
 129 730 129 730 147 779 c 1,2,-1
 203 779 l 1,3,-1
 203 403 l 1,4,-1
 136 403 l 1,5,-1
 136 683 l 1,6,-1
 53 683 l 1,7,-1
 53 730 l 1,0,1
EndSplineSet
EndChar

StartChar: ordmasculine
Encoding: 186 186 197
Width: 381
GlyphClass: 1
Flags: W
LayerCount: 2
Fore
SplineSet
126 545 m 128,-1,1
 126 502 126 502 144.5 477 c 128,-1,2
 163 452 163 452 194 452 c 0,3,4
 226 452 226 452 244.5 477 c 128,-1,5
 263 502 263 502 263 545 c 128,-1,6
 263 588 263 588 244.5 613 c 128,-1,7
 226 638 226 638 194 638 c 0,8,9
 163 638 163 638 144.5 613 c 128,-1,0
 126 588 126 588 126 545 c 128,-1,1
332 545 m 128,-1,11
 332 478 332 478 294 438 c 128,-1,12
 256 398 256 398 194 398 c 128,-1,13
 132 398 132 398 94.5 438.5 c 128,-1,14
 57 479 57 479 57 545 c 128,-1,15
 57 611 57 611 94.5 651.5 c 128,-1,16
 132 692 132 692 194 692 c 128,-1,17
 256 692 256 692 294 652 c 128,-1,10
 332 612 332 612 332 545 c 128,-1,11
EndSplineSet
EndChar

StartChar: onequarter
Encoding: 188 188 198
Width: 826
GlyphClass: 1
Flags: W
LayerCount: 2
Fore
SplineSet
53 619 m 1,0,1
 129 619 129 619 147 668 c 1,2,-1
 204 668 l 1,3,-1
 204 292 l 1,4,-1
 136 292 l 1,5,-1
 136 571 l 1,6,-1
 53 571 l 1,7,-1
 53 619 l 1,0,1
115 0 m 1,8,-1
 583 668 l 1,9,-1
 671 668 l 1,10,-1
 204 0 l 1,11,-1
 115 0 l 1,8,-1
528 143 m 1,12,-1
 640 143 l 1,13,-1
 640 289 l 1,14,-1
 528 143 l 1,12,-1
640 0 m 1,15,-1
 640 86 l 1,16,-1
 455 86 l 1,17,-1
 455 140 l 1,18,-1
 641 376 l 1,19,-1
 708 376 l 1,20,-1
 708 143 l 1,21,-1
 773 143 l 1,22,-1
 773 86 l 1,23,-1
 708 86 l 1,24,-1
 708 0 l 1,25,-1
 640 0 l 1,15,-1
EndSplineSet
Ligature2: "'frac' Diagonal Fractions lookup 12 subtable" one slash four
EndChar

StartChar: threequarters
Encoding: 190 190 199
Width: 868
GlyphClass: 1
Flags: W
LayerCount: 2
Fore
SplineSet
570 143 m 1,0,-1
 682 143 l 1,1,-1
 682 289 l 1,2,-1
 570 143 l 1,0,-1
682 0 m 1,3,-1
 682 86 l 1,4,-1
 497 86 l 1,5,-1
 497 140 l 1,6,-1
 683 376 l 1,7,-1
 751 376 l 1,8,-1
 751 143 l 1,9,-1
 815 143 l 1,10,-1
 815 86 l 1,11,-1
 751 86 l 1,12,-1
 751 0 l 1,13,-1
 682 0 l 1,3,-1
157 0 m 1,14,-1
 626 668 l 1,15,-1
 714 668 l 1,16,-1
 245 0 l 1,17,-1
 157 0 l 1,14,-1
330 405 m 0,18,19
 330 353 330 353 291 322 c 128,-1,20
 252 291 252 291 187 291 c 0,21,22
 138 291 138 291 102.5 314.5 c 128,-1,23
 67 338 67 338 53 380 c 1,24,-1
 115 398 l 1,25,26
 134 342 134 342 188 342 c 0,27,28
 220 342 220 342 240.5 359 c 128,-1,29
 261 376 261 376 261 403 c 0,30,31
 261 436 261 436 239 451 c 128,-1,32
 217 466 217 466 170 466 c 2,33,-1
 151 466 l 1,34,-1
 151 519 l 1,35,-1
 169 519 l 2,36,37
 252 519 252 519 252 576 c 0,38,39
 252 600 252 600 235 614.5 c 128,-1,40
 218 629 218 629 190 629 c 0,41,42
 136 629 136 629 119 576 c 1,43,-1
 58 594 l 1,44,45
 72 635 72 635 107.5 657.5 c 128,-1,46
 143 680 143 680 194 680 c 0,47,48
 251 680 251 680 286 652 c 128,-1,49
 321 624 321 624 321 578 c 0,50,51
 321 522 321 522 268 495 c 1,52,53
 297 485 297 485 313.5 461 c 128,-1,54
 330 437 330 437 330 405 c 0,18,19
EndSplineSet
Ligature2: "'frac' Diagonal Fractions lookup 12 subtable" three slash four
EndChar

StartChar: exclamdown
Encoding: 161 161 200
Width: 281
GlyphClass: 1
Flags: W
LayerCount: 2
Fore
SplineSet
96 -161 m 1,0,-1
 96 11 l 1,1,-1
 114 311 l 1,2,-1
 167 311 l 1,3,-1
 185 11 l 1,4,-1
 185 -161 l 1,5,-1
 96 -161 l 1,0,-1
205 454 m 0,6,7
 205 428 205 428 186 409 c 128,-1,8
 167 390 167 390 140 390 c 0,9,10
 114 390 114 390 95 409 c 128,-1,11
 76 428 76 428 76 454 c 0,12,13
 76 481 76 481 95 500 c 128,-1,14
 114 519 114 519 140 519 c 0,15,16
 167 519 167 519 186 500 c 128,-1,17
 205 481 205 481 205 454 c 0,6,7
EndSplineSet
EndChar

StartChar: cent
Encoding: 162 162 201
Width: 500
GlyphClass: 1
Flags: W
LayerCount: 2
Fore
SplineSet
236 425 m 1,0,1
 186 411 186 411 157.5 364.5 c 128,-1,2
 129 318 129 318 129 248 c 0,3,4
 129 177 129 177 157 129.5 c 128,-1,5
 185 82 185 82 236 67 c 1,6,-1
 236 425 l 1,0,1
467 99 m 1,7,8
 441 52 441 52 392.5 22 c 128,-1,9
 344 -8 344 -8 286 -12 c 1,10,-1
 286 -87 l 1,11,-1
 236 -87 l 1,12,-1
 236 -10 l 1,13,14
 145 2 145 2 91.5 71.5 c 128,-1,15
 38 141 38 141 38 247 c 0,16,17
 38 349 38 349 92 418 c 128,-1,18
 146 487 146 487 236 501 c 1,19,-1
 236 571 l 1,20,-1
 286 571 l 1,21,-1
 286 504 l 1,22,23
 344 503 344 503 391.5 473.5 c 128,-1,24
 439 444 439 444 465 393 c 1,25,-1
 388 365 l 1,26,27
 356 423 356 423 286 430 c 1,28,-1
 286 62 l 1,29,30
 355 70 355 70 390 127 c 1,31,-1
 467 99 l 1,7,8
EndSplineSet
EndChar

StartChar: currency
Encoding: 164 164 202
Width: 580
GlyphClass: 1
Flags: W
LayerCount: 2
Fore
SplineSet
148 321 m 128,-1,1
 148 262 148 262 189.5 220 c 128,-1,2
 231 178 231 178 290 178 c 128,-1,3
 349 178 349 178 390.5 220 c 128,-1,4
 432 262 432 262 432 321 c 128,-1,5
 432 380 432 380 390.5 421.5 c 128,-1,6
 349 463 349 463 290 463 c 0,7,8
 232 463 232 463 190 421.5 c 128,-1,0
 148 380 148 380 148 321 c 128,-1,1
290 103 m 0,9,10
 215 103 215 103 155 149 c 1,11,-1
 89 84 l 1,12,-1
 53 119 l 1,13,-1
 119 185 l 1,14,15
 72 252 72 252 72 321 c 0,16,17
 72 396 72 396 119 456 c 1,18,-1
 53 522 l 1,19,-1
 89 558 l 1,20,-1
 155 492 l 1,21,22
 214 539 214 539 290 539 c 0,23,24
 369 539 369 539 425 492 c 1,25,-1
 491 558 l 1,26,-1
 527 522 l 1,27,-1
 461 456 l 1,28,29
 508 400 508 400 508 321 c 0,30,31
 508 243 508 243 461 185 c 1,32,-1
 527 119 l 1,33,-1
 491 84 l 1,34,-1
 425 149 l 1,35,36
 368 103 368 103 290 103 c 0,9,10
EndSplineSet
EndChar

StartChar: yen
Encoding: 165 165 203
Width: 595
GlyphClass: 1
Flags: W
LayerCount: 2
Fore
SplineSet
251 0 m 1,0,-1
 251 86 l 1,1,-1
 101 86 l 1,2,-1
 101 137 l 1,3,-1
 251 137 l 1,4,-1
 251 223 l 1,5,-1
 101 223 l 1,6,-1
 101 274 l 1,7,-1
 242 274 l 1,8,-1
 10 668 l 1,9,-1
 113 668 l 1,10,-1
 298 345 l 1,11,-1
 482 668 l 1,12,-1
 585 668 l 1,13,-1
 353 274 l 1,14,-1
 494 274 l 1,15,-1
 494 223 l 1,16,-1
 345 223 l 1,17,-1
 345 137 l 1,18,-1
 494 137 l 1,19,-1
 494 86 l 1,20,-1
 345 86 l 1,21,-1
 345 0 l 1,22,-1
 251 0 l 1,0,-1
EndSplineSet
EndChar

StartChar: questiondown
Encoding: 191 191 204
Width: 520
GlyphClass: 1
Flags: W
LayerCount: 2
Fore
SplineSet
479 -18 m 1,0,1
 464 -90 464 -90 404.5 -132 c 128,-1,2
 345 -174 345 -174 258 -174 c 0,3,4
 164 -174 164 -174 106.5 -129 c 128,-1,5
 49 -84 49 -84 49 -10 c 0,6,7
 49 97 49 97 174 178 c 0,8,9
 223 210 223 210 237 229 c 128,-1,10
 251 248 251 248 251 282 c 2,11,-1
 251 316 l 1,12,-1
 337 316 l 1,13,-1
 337 279 l 2,14,15
 337 228 337 228 314 196 c 128,-1,16
 291 164 291 164 223 119 c 0,17,18
 137 67 137 67 137 -2 c 0,19,20
 137 -49 137 -49 171 -76.5 c 128,-1,21
 205 -104 205 -104 262 -104 c 0,22,23
 318 -104 318 -104 354 -75 c 128,-1,24
 390 -46 390 -46 397 5 c 1,25,-1
 479 -18 l 1,0,1
357 455 m 0,26,27
 357 428 357 428 338 409 c 128,-1,28
 319 390 319 390 293 390 c 0,29,30
 266 390 266 390 247 409 c 128,-1,31
 228 428 228 428 228 455 c 0,32,33
 228 481 228 481 247 500 c 128,-1,34
 266 519 266 519 293 519 c 0,35,36
 319 519 319 519 338 500 c 128,-1,37
 357 481 357 481 357 455 c 0,26,27
EndSplineSet
EndChar

StartChar: germandbls
Encoding: 223 223 205
Width: 597
GlyphClass: 1
Flags: W
LayerCount: 2
Fore
SplineSet
520 521 m 0,0,1
 520 418 520 418 420 376 c 1,2,3
 559 341 559 341 559 197 c 0,4,5
 559 98 559 98 495 43 c 128,-1,6
 431 -12 431 -12 316 -12 c 2,7,-1
 302 -12 l 1,8,-1
 279 65 l 1,9,10
 300 62 300 62 318 62 c 0,11,12
 390 62 390 62 429.5 96.5 c 128,-1,13
 469 131 469 131 469 195 c 0,14,15
 469 330 469 330 291 330 c 2,16,-1
 279 330 l 1,17,-1
 279 406 l 1,18,-1
 285 406 l 2,19,20
 355 406 355 406 395 434 c 128,-1,21
 435 462 435 462 435 511 c 0,22,23
 435 556 435 556 401 583.5 c 128,-1,24
 367 611 367 611 311 611 c 0,25,26
 231 611 231 611 195.5 574 c 128,-1,27
 160 537 160 537 160 453 c 2,28,-1
 160 0 l 1,29,-1
 76 0 l 1,30,-1
 76 453 l 2,31,32
 76 569 76 569 133.5 624.5 c 128,-1,33
 191 680 191 680 312 680 c 0,34,35
 405 680 405 680 462.5 636 c 128,-1,36
 520 592 520 592 520 521 c 0,0,1
EndSplineSet
EndChar

StartChar: AE
Encoding: 198 198 206
Width: 998
GlyphClass: 1
Flags: W
AnchorPoint: "Anchor-0" 659 668 basechar 0
LayerCount: 2
Fore
SplineSet
279 226 m 1,0,-1
 506 226 l 1,1,-1
 506 546 l 1,2,-1
 279 226 l 1,0,-1
10 0 m 1,3,-1
 496 668 l 1,4,-1
 960 668 l 1,5,-1
 960 587 l 1,6,-1
 600 587 l 1,7,-1
 600 384 l 1,8,-1
 866 384 l 1,9,-1
 866 303 l 1,10,-1
 600 303 l 1,11,-1
 600 81 l 1,12,-1
 960 81 l 1,13,-1
 960 0 l 1,14,-1
 506 0 l 1,15,-1
 506 145 l 1,16,-1
 223 145 l 1,17,-1
 119 0 l 1,18,-1
 10 0 l 1,3,-1
EndSplineSet
EndChar

StartChar: florin
Encoding: 402 402 207
Width: 321
GlyphClass: 1
Flags: W
LayerCount: 2
Fore
SplineSet
193 -27 m 2,0,1
 193 -173 193 -173 80 -173 c 0,2,3
 54 -173 54 -173 25 -165 c 1,4,-1
 25 -90 l 1,5,6
 40 -93 40 -93 51 -93 c 0,7,8
 109 -93 109 -93 109 -24 c 2,9,-1
 109 429 l 1,10,-1
 25 429 l 1,11,-1
 25 496 l 1,12,-1
 109 496 l 1,13,-1
 109 570 l 2,14,15
 109 651 109 651 136 678.5 c 128,-1,16
 163 706 163 706 242 706 c 2,17,-1
 296 706 l 1,18,-1
 296 635 l 1,19,-1
 244 635 l 2,20,21
 213 635 213 635 203 622 c 128,-1,22
 193 609 193 609 193 571 c 2,23,-1
 193 496 l 1,24,-1
 296 496 l 1,25,-1
 296 429 l 1,26,-1
 193 429 l 1,27,-1
 193 -27 l 2,0,1
EndSplineSet
EndChar

StartChar: integral
Encoding: 8747 8747 208
Width: 458
GlyphClass: 1
Flags: W
LayerCount: 2
Fore
SplineSet
273 44 m 0,0,1
 273 -173 273 -173 138 -173 c 0,2,3
 53 -173 53 -173 53 -111 c 0,4,5
 53 -90 53 -90 67.5 -75.5 c 128,-1,6
 82 -61 82 -61 103 -61 c 128,-1,7
 124 -61 124 -61 138 -75.5 c 128,-1,8
 152 -90 152 -90 152 -112 c 2,9,-1
 152 -120 l 1,10,11
 152 -120 152 -120 150 -127 c 1,12,13
 189 -121 189 -121 189 -31 c 0,14,15
 189 77 189 77 187 216.5 c 128,-1,16
 185 356 185 356 185 464 c 0,17,18
 185 681 185 681 320 681 c 0,19,20
 405 681 405 681 405 619 c 0,21,22
 405 598 405 598 390.5 583.5 c 128,-1,23
 376 569 376 569 355 569 c 128,-1,24
 334 569 334 569 319.5 583.5 c 128,-1,25
 305 598 305 598 305 619 c 0,26,27
 305 628 305 628 308 635 c 1,28,29
 269 629 269 629 269 538 c 0,30,31
 269 430 269 430 271 291 c 128,-1,32
 273 152 273 152 273 44 c 0,0,1
EndSplineSet
EndChar

StartChar: approxequal
Encoding: 8776 8776 209
Width: 581
GlyphClass: 1
Flags: W
LayerCount: 2
Fore
SplineSet
192 337 m 0,0,1
 137 337 137 337 128 287 c 1,2,-1
 53 309 l 1,3,4
 66 357 66 357 102.5 384 c 128,-1,5
 139 411 139 411 192 411 c 0,6,7
 230 411 230 411 292 383.5 c 128,-1,8
 354 356 354 356 392 356 c 0,9,10
 444 356 444 356 454 407 c 1,11,-1
 528 385 l 1,12,13
 517 338 517 338 480.5 310.5 c 128,-1,14
 444 283 444 283 392 283 c 0,15,16
 354 283 354 283 292 310 c 128,-1,17
 230 337 230 337 192 337 c 0,0,1
528 199 m 1,18,19
 517 152 517 152 480.5 124.5 c 128,-1,20
 444 97 444 97 392 97 c 0,21,22
 354 97 354 97 292 124 c 128,-1,23
 230 151 230 151 192 151 c 0,24,25
 137 151 137 151 128 101 c 1,26,-1
 53 123 l 1,27,28
 64 171 64 171 100.5 198 c 128,-1,29
 137 225 137 225 190 225 c 0,30,31
 228 225 228 225 290 197.5 c 128,-1,32
 352 170 352 170 391 170 c 0,33,34
 444 170 444 170 454 221 c 1,35,-1
 528 199 l 1,18,19
EndSplineSet
EndChar

StartChar: notequal
Encoding: 8800 8800 210
Width: 602
GlyphClass: 1
Flags: W
LayerCount: 2
Fore
SplineSet
77 0 m 1,0,-1
 162 121 l 1,1,-1
 53 121 l 1,2,-1
 53 200 l 1,3,-1
 218 200 l 1,4,-1
 292 307 l 1,5,-1
 53 307 l 1,6,-1
 53 387 l 1,7,-1
 348 387 l 1,8,-1
 425 496 l 1,9,-1
 524 496 l 1,10,-1
 448 387 l 1,11,-1
 549 387 l 1,12,-1
 549 307 l 1,13,-1
 392 307 l 1,14,-1
 317 200 l 1,15,-1
 549 200 l 1,16,-1
 549 121 l 1,17,-1
 262 121 l 1,18,-1
 177 0 l 1,19,-1
 77 0 l 1,0,-1
EndSplineSet
EndChar

StartChar: lessequal
Encoding: 8804 8804 211
Width: 579
GlyphClass: 1
Flags: W
LayerCount: 2
Fore
SplineSet
53 0 m 1,0,-1
 53 80 l 1,1,-1
 526 80 l 1,2,-1
 526 0 l 1,3,-1
 53 0 l 1,0,-1
526 100 m 1,4,-1
 53 267 l 1,5,-1
 53 337 l 1,6,-1
 526 505 l 1,7,-1
 526 414 l 1,8,-1
 158 302 l 1,9,-1
 526 190 l 1,10,-1
 526 100 l 1,4,-1
EndSplineSet
EndChar

StartChar: greaterequal
Encoding: 8805 8805 212
Width: 579
GlyphClass: 1
Flags: W
LayerCount: 2
Fore
SplineSet
53 0 m 1,0,-1
 53 80 l 1,1,-1
 526 80 l 1,2,-1
 526 0 l 1,3,-1
 53 0 l 1,0,-1
53 100 m 1,4,-1
 53 190 l 1,5,-1
 421 302 l 1,6,-1
 53 414 l 1,7,-1
 53 505 l 1,8,-1
 526 337 l 1,9,-1
 526 267 l 1,10,-1
 53 100 l 1,4,-1
EndSplineSet
EndChar

StartChar: lozenge
Encoding: 9674 9674 213
Width: 561
GlyphClass: 1
Flags: W
LayerCount: 2
Fore
SplineSet
281 76 m 1,0,-1
 421 315 l 1,1,-1
 281 554 l 1,2,-1
 140 315 l 1,3,-1
 281 76 l 1,0,-1
281 -73 m 1,4,-1
 53 315 l 1,5,-1
 281 703 l 1,6,-1
 508 315 l 1,7,-1
 281 -73 l 1,4,-1
EndSplineSet
EndChar

StartChar: summation
Encoding: 8721 8721 214
Width: 587
GlyphClass: 1
Flags: W
LayerCount: 2
Fore
SplineSet
53 -161 m 1,0,-1
 53 -80 l 1,1,-1
 299 254 l 1,2,-1
 53 587 l 1,3,-1
 53 668 l 1,4,-1
 534 668 l 1,5,-1
 534 587 l 1,6,-1
 154 587 l 1,7,-1
 399 254 l 1,8,-1
 154 -80 l 1,9,-1
 534 -80 l 1,10,-1
 534 -161 l 1,11,-1
 53 -161 l 1,0,-1
EndSplineSet
EndChar

StartChar: minus
Encoding: 8722 8722 215
Width: 602
GlyphClass: 1
Flags: W
LayerCount: 2
Fore
SplineSet
53 209 m 1,0,-1
 53 288 l 1,1,-1
 549 288 l 1,2,-1
 549 209 l 1,3,-1
 53 209 l 1,0,-1
EndSplineSet
EndChar

StartChar: uni2215
Encoding: 8725 8725 216
Width: 598
GlyphClass: 1
Flags: W
LayerCount: 2
Fore
SplineSet
15 0 m 1,0,-1
 483 669 l 1,1,-1
 583 669 l 1,2,-1
 115 0 l 1,3,-1
 15 0 l 1,0,-1
EndSplineSet
EndChar

StartChar: uni2219
Encoding: 8729 8729 217
Width: 235
GlyphClass: 1
Flags: W
LayerCount: 2
Fore
SplineSet
182 256 m 128,-1,1
 182 230 182 230 163 210.5 c 128,-1,2
 144 191 144 191 118 191 c 0,3,4
 90 191 90 191 71.5 209.5 c 128,-1,5
 53 228 53 228 53 255 c 128,-1,6
 53 282 53 282 72 301 c 128,-1,7
 91 320 91 320 118 320 c 0,8,9
 144 320 144 320 163 301 c 128,-1,0
 182 282 182 282 182 256 c 128,-1,1
EndSplineSet
EndChar

StartChar: radical
Encoding: 8730 8730 218
Width: 582
GlyphClass: 1
Flags: W
LayerCount: 2
Fore
SplineSet
279 -161 m 1,0,-1
 159 145 l 1,1,-1
 53 145 l 1,2,-1
 53 225 l 1,3,-1
 215 225 l 1,4,-1
 318 -37 l 1,5,-1
 441 669 l 1,6,-1
 529 669 l 1,7,-1
 378 -161 l 1,8,-1
 279 -161 l 1,0,-1
EndSplineSet
EndChar

StartChar: infinity
Encoding: 8734 8734 219
Width: 773
GlyphClass: 1
Flags: W
LayerCount: 2
Fore
SplineSet
435 256 m 1,0,1
 469 215 469 215 496.5 197.5 c 128,-1,2
 524 180 524 180 556 180 c 0,3,4
 591 180 591 180 615 202 c 128,-1,5
 639 224 639 224 639 256 c 0,6,7
 639 289 639 289 615 309.5 c 128,-1,8
 591 330 591 330 553 330 c 0,9,10
 496 330 496 330 435 256 c 1,0,1
134 256 m 0,11,12
 134 224 134 224 158 202 c 128,-1,13
 182 180 182 180 217 180 c 0,14,15
 278 180 278 180 339 256 c 1,16,17
 304 297 304 297 277.5 313.5 c 128,-1,18
 251 330 251 330 220 330 c 0,19,20
 182 330 182 330 158 309.5 c 128,-1,21
 134 289 134 289 134 256 c 0,11,12
560 104 m 0,22,23
 472 104 472 104 387 198 c 1,24,25
 302 104 302 104 213 104 c 0,26,27
 142 104 142 104 97.5 146 c 128,-1,28
 53 188 53 188 53 256 c 0,29,30
 53 323 53 323 99 364.5 c 128,-1,31
 145 406 145 406 219 406 c 0,32,33
 305 406 305 406 387 317 c 1,34,35
 467 406 467 406 554 406 c 0,36,37
 628 406 628 406 674 364.5 c 128,-1,38
 720 323 720 323 720 256 c 0,39,40
 720 188 720 188 675.5 146 c 128,-1,41
 631 104 631 104 560 104 c 0,22,23
EndSplineSet
EndChar

StartChar: estimated
Encoding: 8494 8494 220
Width: 622
GlyphClass: 1
Flags: W
LayerCount: 2
Fore
SplineSet
311 472 m 128,-1,1
 223 472 223 472 159 413 c 1,2,-1
 159 279 l 1,3,-1
 463 279 l 1,4,-1
 463 413 l 1,5,0
 399 472 399 472 311 472 c 128,-1,1
514 87 m 1,6,7
 437 -12 437 -12 311 -12 c 0,8,9
 201 -12 201 -12 127 64.5 c 128,-1,10
 53 141 53 141 53 256 c 0,11,12
 53 356 53 356 130 430 c 128,-1,13
 207 504 207 504 311 504 c 0,14,15
 418 504 418 504 493.5 429 c 128,-1,16
 569 354 569 354 569 248 c 1,17,-1
 159 248 l 1,18,-1
 159 78 l 1,19,20
 223 20 223 20 311 20 c 0,21,22
 412 20 412 20 481 97 c 1,23,-1
 514 87 l 1,6,7
EndSplineSet
EndChar

StartChar: partialdiff
Encoding: 8706 8706 221
Width: 582
GlyphClass: 1
Flags: W
LayerCount: 2
Fore
SplineSet
142 246 m 128,-1,1
 142 164 142 164 183.5 112.5 c 128,-1,2
 225 61 225 61 291 61 c 128,-1,3
 357 61 357 61 398 112.5 c 128,-1,4
 439 164 439 164 439 246 c 128,-1,5
 439 328 439 328 398 379 c 128,-1,6
 357 430 357 430 291 430 c 128,-1,7
 225 430 225 430 183.5 379 c 128,-1,0
 142 328 142 328 142 246 c 128,-1,1
530 277 m 0,8,9
 530 138 530 138 468 63 c 128,-1,10
 406 -12 406 -12 291 -12 c 0,11,12
 184 -12 184 -12 118.5 59.5 c 128,-1,13
 53 131 53 131 53 246 c 128,-1,14
 53 361 53 361 118.5 432.5 c 128,-1,15
 184 504 184 504 291 504 c 0,16,17
 331 504 331 504 367 489.5 c 128,-1,18
 403 475 403 475 423 450 c 1,19,20
 398 528 398 528 337.5 563 c 128,-1,21
 277 598 277 598 166 598 c 2,22,-1
 142 598 l 1,23,-1
 142 680 l 1,24,25
 348 680 348 680 439 585.5 c 128,-1,26
 530 491 530 491 530 277 c 0,8,9
EndSplineSet
EndChar

StartChar: product
Encoding: 8719 8719 222
Width: 585
GlyphClass: 1
Flags: W
LayerCount: 2
Fore
SplineSet
53 -161 m 1,0,-1
 53 668 l 1,1,-1
 532 668 l 1,2,-1
 532 -161 l 1,3,-1
 450 -161 l 1,4,-1
 450 587 l 1,5,-1
 134 587 l 1,6,-1
 134 -161 l 1,7,-1
 53 -161 l 1,0,-1
EndSplineSet
EndChar

StartChar: hungarumlaut
Encoding: 733 733 223
Width: 414
GlyphClass: 1
Flags: W
LayerCount: 2
Fore
SplineSet
323 708 m 0,0,1
 338 708 338 708 349.5 696.5 c 128,-1,2
 361 685 361 685 361 670 c 0,3,4
 361 653 361 653 350 643 c 2,5,-1
 269 572 l 1,6,-1
 199 572 l 1,7,-1
 295 695 l 2,8,9
 305 708 305 708 323 708 c 0,0,1
177 708 m 0,10,11
 194 708 194 708 204.5 697 c 128,-1,12
 215 686 215 686 215 670 c 0,13,14
 215 653 215 653 204 643 c 2,15,-1
 123 572 l 1,16,-1
 53 572 l 1,17,-1
 149 695 l 2,18,19
 159 708 159 708 177 708 c 0,10,11
EndSplineSet
EndChar

StartChar: tilde
Encoding: 732 732 224
Width: 435
GlyphClass: 1
Flags: W
LayerCount: 2
Fore
SplineSet
382 649 m 0,0,1
 382 622 382 622 351 598.5 c 128,-1,2
 320 575 320 575 285 575 c 0,3,4
 263 575 263 575 222.5 596.5 c 128,-1,5
 182 618 182 618 160 618 c 0,6,7
 123 618 123 618 118 577 c 1,8,-1
 53 577 l 1,9,10
 61 627 61 627 88.5 654 c 128,-1,11
 116 681 116 681 159 681 c 0,12,13
 187 681 187 681 221 659.5 c 128,-1,14
 255 638 255 638 283 638 c 0,15,16
 302 638 302 638 317 659 c 128,-1,17
 332 680 332 680 351 680 c 0,18,19
 364 680 364 680 373 671 c 128,-1,20
 382 662 382 662 382 649 c 0,0,1
EndSplineSet
EndChar

StartChar: endash
Encoding: 8211 8211 225
Width: 480
GlyphClass: 1
Flags: W
LayerCount: 2
Fore
SplineSet
41 208 m 1,0,-1
 41 287 l 1,1,-1
 439 287 l 1,2,-1
 439 208 l 1,3,-1
 41 208 l 1,0,-1
EndSplineSet
EndChar

StartChar: emdash
Encoding: 8212 8212 226
Width: 800
GlyphClass: 1
Flags: W
LayerCount: 2
Fore
SplineSet
41 208 m 1,0,-1
 41 287 l 1,1,-1
 759 287 l 1,2,-1
 759 208 l 1,3,-1
 41 208 l 1,0,-1
EndSplineSet
EndChar

StartChar: trademark
Encoding: 8482 8482 227
Width: 848
GlyphClass: 1
Flags: W
LayerCount: 2
Fore
SplineSet
171 292 m 1,0,-1
 171 608 l 1,1,-1
 53 608 l 1,2,-1
 53 668 l 1,3,-1
 356 668 l 1,4,-1
 356 608 l 1,5,-1
 238 608 l 1,6,-1
 238 292 l 1,7,-1
 171 292 l 1,0,-1
393 292 m 1,8,-1
 393 668 l 1,9,-1
 501 668 l 1,10,-1
 594 384 l 1,11,-1
 687 668 l 1,12,-1
 795 668 l 1,13,-1
 795 292 l 1,14,-1
 728 292 l 1,15,-1
 728 571 l 1,16,-1
 630 292 l 1,17,-1
 558 292 l 1,18,-1
 460 571 l 1,19,-1
 460 292 l 1,20,-1
 393 292 l 1,8,-1
EndSplineSet
EndChar

StartChar: uni2113
Encoding: 8467 8467 228
Width: 450
GlyphClass: 1
Flags: W
LayerCount: 2
Fore
SplineSet
259 610 m 0,0,1
 229 610 229 610 216.5 589 c 128,-1,2
 204 568 204 568 204 518 c 2,3,-1
 204 344 l 1,4,5
 312 419 312 419 312 535 c 0,6,7
 312 610 312 610 259 610 c 0,0,1
397 42 m 1,8,9
 338 -12 338 -12 261 -12 c 0,10,11
 186 -12 186 -12 152.5 27.5 c 128,-1,12
 119 67 119 67 119 156 c 2,13,-1
 119 188 l 1,14,-1
 53 138 l 1,15,-1
 53 227 l 1,16,-1
 119 278 l 1,17,-1
 119 507 l 2,18,19
 119 680 119 680 264 680 c 0,20,21
 324 680 324 680 359 642 c 128,-1,22
 394 604 394 604 394 538 c 0,23,24
 394 459 394 459 351 393.5 c 128,-1,25
 308 328 308 328 204 251 c 1,26,-1
 204 151 l 2,27,28
 204 61 204 61 271 61 c 0,29,30
 314 61 314 61 360 100 c 1,31,-1
 397 42 l 1,8,9
EndSplineSet
EndChar

StartChar: Lslash
Encoding: 321 321 229
Width: 573
GlyphClass: 1
Flags: W
LayerCount: 2
Fore
SplineSet
110 0 m 1,0,-1
 110 270 l 1,1,-1
 20 216 l 1,2,-1
 20 287 l 1,3,-1
 110 340 l 1,4,-1
 110 669 l 1,5,-1
 204 669 l 1,6,-1
 204 397 l 1,7,-1
 384 505 l 1,8,-1
 384 434 l 1,9,-1
 204 326 l 1,10,-1
 204 81 l 1,11,-1
 563 81 l 1,12,-1
 563 0 l 1,13,-1
 110 0 l 1,0,-1
EndSplineSet
EndChar

StartChar: lslash
Encoding: 322 322 230
Width: 237
GlyphClass: 1
Flags: W
AnchorPoint: "Anchor-1" 145 0 basechar 0
AnchorPoint: "Anchor-0" 117 668 basechar 0
LayerCount: 2
Fore
SplineSet
152 139 m 2,0,1
 152 98 152 98 161.5 86 c 128,-1,2
 171 74 171 74 204 74 c 2,3,-1
 222 74 l 1,4,-1
 222 0 l 1,5,-1
 185 0 l 2,6,7
 114 0 114 0 91 24 c 128,-1,8
 68 48 68 48 68 124 c 2,9,-1
 68 273 l 1,10,-1
 15 242 l 1,11,-1
 15 312 l 1,12,-1
 68 344 l 1,13,-1
 68 668 l 1,14,-1
 152 668 l 1,15,-1
 152 394 l 1,16,-1
 222 436 l 1,17,-1
 222 365 l 1,18,-1
 152 323 l 1,19,-1
 152 139 l 2,0,1
EndSplineSet
EndChar

StartChar: oslash
Encoding: 248 248 231
Width: 552
GlyphClass: 1
Flags: W
AnchorPoint: "Anchor-0" 276 496 basechar 0
LayerCount: 2
Fore
SplineSet
178 103 m 1,0,1
 219 62 219 62 276 62 c 0,2,3
 342 62 342 62 383 113 c 128,-1,4
 424 164 424 164 424 246 c 0,5,6
 424 312 424 312 397 359 c 1,7,-1
 178 103 l 1,0,1
276 430 m 0,8,9
 210 430 210 430 168.5 379 c 128,-1,10
 127 328 127 328 127 246 c 0,11,12
 127 188 127 188 148 146 c 1,13,-1
 364 398 l 1,14,15
 329 430 329 430 276 430 c 0,8,9
514 246 m 0,16,17
 514 131 514 131 448.5 59.5 c 128,-1,18
 383 -12 383 -12 276 -12 c 0,19,20
 186 -12 186 -12 125 40 c 1,21,-1
 83 -9 l 1,22,-1
 45 24 l 1,23,-1
 89 77 l 1,24,25
 38 140 38 140 38 246 c 0,26,27
 38 361 38 361 103.5 432.5 c 128,-1,28
 169 504 169 504 276 504 c 0,29,30
 357 504 357 504 416 460 c 1,31,-1
 457 507 l 1,32,-1
 495 474 l 1,33,-1
 454 425 l 1,34,35
 514 358 514 358 514 246 c 0,16,17
EndSplineSet
EndChar

StartChar: Oslash
Encoding: 216 216 232
Width: 727
GlyphClass: 1
Flags: W
AnchorPoint: "Anchor-0" 364 668 basechar 0
LayerCount: 2
Fore
SplineSet
363 67 m 0,0,1
 461 67 461 67 521 140 c 128,-1,2
 581 213 581 213 581 333 c 0,3,4
 581 434 581 434 538 503 c 1,5,-1
 217 127 l 1,6,7
 276 67 276 67 363 67 c 0,0,1
363 599 m 0,8,9
 264 599 264 599 205 526.5 c 128,-1,10
 146 454 146 454 146 333 c 0,11,12
 146 230 146 230 186 169 c 1,13,-1
 506 543 l 1,14,15
 447 599 447 599 363 599 c 0,8,9
677 333 m 0,16,17
 677 178 677 178 590.5 83 c 128,-1,18
 504 -12 504 -12 363 -12 c 0,19,20
 243 -12 243 -12 160 60 c 1,21,-1
 103 -6 l 1,22,-1
 65 27 l 1,23,-1
 125 97 l 1,24,25
 50 190 50 190 50 333 c 0,26,27
 50 489 50 489 136.5 584.5 c 128,-1,28
 223 680 223 680 363 680 c 0,29,30
 482 680 482 680 563 610 c 1,31,-1
 616 673 l 1,32,-1
 655 641 l 1,33,-1
 599 574 l 1,34,35
 677 479 677 479 677 333 c 0,16,17
EndSplineSet
EndChar

StartChar: Thorn
Encoding: 222 222 233
Width: 576
GlyphClass: 1
Flags: W
LayerCount: 2
Fore
SplineSet
441 344 m 128,-1,1
 441 400 441 400 408 423.5 c 128,-1,2
 375 447 375 447 296 447 c 2,3,-1
 160 447 l 1,4,-1
 160 244 l 1,5,-1
 296 244 l 2,6,7
 377 244 377 244 409 266 c 128,-1,0
 441 288 441 288 441 344 c 128,-1,1
538 345 m 128,-1,9
 538 248 538 248 479 205.5 c 128,-1,10
 420 163 420 163 287 163 c 2,11,-1
 160 163 l 1,12,-1
 160 0 l 1,13,-1
 76 0 l 1,14,-1
 76 668 l 1,15,-1
 160 668 l 1,16,-1
 160 528 l 1,17,-1
 287 528 l 2,18,19
 421 528 421 528 479.5 485 c 128,-1,8
 538 442 538 442 538 345 c 128,-1,9
EndSplineSet
EndChar

StartChar: ae
Encoding: 230 230 234
Width: 874
GlyphClass: 1
Flags: W
AnchorPoint: "Anchor-0" 433 496 basechar 0
LayerCount: 2
Fore
SplineSet
131 133 m 0,0,1
 131 97 131 97 157 75.5 c 128,-1,2
 183 54 183 54 227 54 c 0,3,4
 380 54 380 54 380 209 c 2,5,-1
 380 225 l 1,6,7
 131 225 131 225 131 133 c 0,0,1
757 292 m 1,8,9
 755 351 755 351 714 391.5 c 128,-1,10
 673 432 673 432 614 432 c 0,11,12
 548 432 548 432 509 395.5 c 128,-1,13
 470 359 470 359 465 292 c 1,14,-1
 757 292 l 1,8,9
417 88 m 1,15,16
 359 -12 359 -12 209 -12 c 0,17,18
 133 -12 133 -12 85.5 27.5 c 128,-1,19
 38 67 38 67 38 131 c 0,20,21
 38 210 38 210 123.5 251 c 128,-1,22
 209 292 209 292 373 292 c 1,23,-1
 373 319 l 2,24,25
 373 436 373 436 261 436 c 0,26,27
 217 436 217 436 188 416 c 128,-1,28
 159 396 159 396 151 359 c 1,29,-1
 70 383 l 1,30,31
 90 438 90 438 141.5 471 c 128,-1,32
 193 504 193 504 260 504 c 0,33,34
 389 504 389 504 433 424 c 1,35,36
 502 504 502 504 614 504 c 0,37,38
 715 504 715 504 780.5 432.5 c 128,-1,39
 846 361 846 361 846 251 c 0,40,41
 846 230 846 230 845 225 c 1,42,-1
 463 225 l 1,43,44
 467 150 467 150 508.5 106 c 128,-1,45
 550 62 550 62 617 62 c 0,46,47
 692 62 692 62 733 111 c 1,48,-1
 814 87 l 1,49,50
 783 40 783 40 732 14 c 128,-1,51
 681 -12 681 -12 617 -12 c 0,52,53
 482 -12 482 -12 417 88 c 1,15,16
EndSplineSet
EndChar

StartChar: eth
Encoding: 240 240 235
Width: 567
GlyphClass: 1
Flags: W
LayerCount: 2
Fore
SplineSet
128 215 m 128,-1,1
 128 145 128 145 168 102 c 128,-1,2
 208 59 208 59 273 59 c 0,3,4
 339 59 339 59 379 101.5 c 128,-1,5
 419 144 419 144 419 215 c 128,-1,6
 419 286 419 286 379 328.5 c 128,-1,7
 339 371 339 371 273 371 c 0,8,9
 208 371 208 371 168 328 c 128,-1,0
 128 285 128 285 128 215 c 128,-1,1
517 303 m 0,10,11
 517 148 517 148 455 68 c 128,-1,12
 393 -12 393 -12 273 -12 c 0,13,14
 172 -12 172 -12 105 53 c 128,-1,15
 38 118 38 118 38 218 c 128,-1,16
 38 318 38 318 98.5 381.5 c 128,-1,17
 159 445 159 445 254 445 c 0,18,19
 377 445 377 445 430 352 c 1,20,21
 423 483 423 483 356 547 c 1,22,-1
 283 474 l 1,23,-1
 247 510 l 1,24,-1
 313 576 l 1,25,26
 264 602 264 602 175 602 c 1,27,-1
 175 679 l 1,28,29
 292 679 292 679 371 634 c 1,30,-1
 417 680 l 1,31,-1
 453 644 l 1,32,-1
 413 604 l 1,33,34
 462 561 462 561 489.5 482 c 128,-1,35
 517 403 517 403 517 303 c 0,10,11
EndSplineSet
EndChar

StartChar: thorn
Encoding: 254 254 236
Width: 566
GlyphClass: 1
Flags: W
LayerCount: 2
Fore
SplineSet
293 433 m 128,-1,1
 227 433 227 433 189.5 383 c 128,-1,2
 152 333 152 333 152 246 c 128,-1,3
 152 159 152 159 189.5 109.5 c 128,-1,4
 227 60 227 60 293 60 c 128,-1,5
 359 60 359 60 396.5 109.5 c 128,-1,6
 434 159 434 159 434 246 c 128,-1,7
 434 333 434 333 396.5 383 c 128,-1,0
 359 433 359 433 293 433 c 128,-1,1
315 -12 m 0,8,9
 206 -12 206 -12 154 75 c 1,10,-1
 154 -161 l 1,11,-1
 70 -161 l 1,12,-1
 70 669 l 1,13,-1
 154 669 l 1,14,-1
 154 418 l 1,15,16
 206 505 206 505 315 505 c 0,17,18
 409 505 409 505 468.5 432.5 c 128,-1,19
 528 360 528 360 528 246 c 0,20,21
 528 133 528 133 468.5 60.5 c 128,-1,22
 409 -12 409 -12 315 -12 c 0,8,9
EndSplineSet
EndChar

StartChar: multiply
Encoding: 215 215 237
Width: 528
GlyphClass: 1
Flags: W
LayerCount: 2
Fore
SplineSet
110 39 m 1,0,-1
 53 97 l 1,1,-1
 207 250 l 1,2,-1
 53 404 l 1,3,-1
 110 462 l 1,4,-1
 264 308 l 1,5,-1
 418 462 l 1,6,-1
 475 404 l 1,7,-1
 322 250 l 1,8,-1
 475 97 l 1,9,-1
 418 39 l 1,10,-1
 264 193 l 1,11,-1
 110 39 l 1,0,-1
EndSplineSet
EndChar

StartChar: divide
Encoding: 247 247 238
Width: 602
GlyphClass: 1
Flags: W
LayerCount: 2
Fore
SplineSet
365 79 m 0,0,1
 365 51 365 51 346.5 32.5 c 128,-1,2
 328 14 328 14 301 14 c 128,-1,3
 274 14 274 14 255 33 c 128,-1,4
 236 52 236 52 236 79 c 0,5,6
 236 105 236 105 255 124 c 128,-1,7
 274 143 274 143 301 143 c 128,-1,8
 328 143 328 143 346.5 124.5 c 128,-1,9
 365 106 365 106 365 79 c 0,0,1
53 208 m 1,10,-1
 53 289 l 1,11,-1
 549 289 l 1,12,-1
 549 208 l 1,13,-1
 53 208 l 1,10,-1
365 418 m 0,14,15
 365 391 365 391 346.5 372.5 c 128,-1,16
 328 354 328 354 301 354 c 0,17,18
 273 354 273 354 254.5 372.5 c 128,-1,19
 236 391 236 391 236 418 c 128,-1,20
 236 445 236 445 255 464 c 128,-1,21
 274 483 274 483 301 483 c 128,-1,22
 328 483 328 483 346.5 464.5 c 128,-1,23
 365 446 365 446 365 418 c 0,14,15
EndSplineSet
EndChar

StartChar: OE
Encoding: 338 338 239
Width: 1052
GlyphClass: 1
Flags: W
LayerCount: 2
Fore
SplineSet
146 335 m 0,0,1
 146 214 146 214 205.5 141.5 c 128,-1,2
 265 69 265 69 363 69 c 0,3,4
 462 69 462 69 521.5 141 c 128,-1,5
 581 213 581 213 581 334 c 0,6,7
 581 456 581 456 522 529 c 128,-1,8
 463 602 463 602 363 602 c 0,9,10
 264 602 264 602 205 529.5 c 128,-1,11
 146 457 146 457 146 335 c 0,0,1
581 75 m 1,12,13
 496 -12 496 -12 363 -12 c 0,14,15
 223 -12 223 -12 136.5 83.5 c 128,-1,16
 50 179 50 179 50 335 c 0,17,18
 50 490 50 490 136 585 c 128,-1,19
 222 680 222 680 363 680 c 0,20,21
 495 680 495 680 581 597 c 1,22,-1
 581 669 l 1,23,-1
 1014 669 l 1,24,-1
 1014 588 l 1,25,-1
 655 588 l 1,26,-1
 655 385 l 1,27,-1
 920 385 l 1,28,-1
 920 304 l 1,29,-1
 655 304 l 1,30,-1
 655 81 l 1,31,-1
 1014 81 l 1,32,-1
 1014 0 l 1,33,-1
 581 0 l 1,34,-1
 581 75 l 1,12,13
EndSplineSet
EndChar

StartChar: oe
Encoding: 339 339 240
Width: 927
GlyphClass: 1
Flags: W
LayerCount: 2
Fore
SplineSet
127 246 m 128,-1,1
 127 164 127 164 168.5 113 c 128,-1,2
 210 62 210 62 276 62 c 128,-1,3
 342 62 342 62 383 113 c 128,-1,4
 424 164 424 164 424 246 c 0,5,6
 424 329 424 329 383 380 c 128,-1,7
 342 431 342 431 276 431 c 128,-1,8
 210 431 210 431 168.5 379.5 c 128,-1,0
 127 328 127 328 127 246 c 128,-1,1
809 292 m 1,9,10
 807 353 807 353 767 393 c 128,-1,11
 727 433 727 433 666 433 c 0,12,13
 602 433 602 433 562 395.5 c 128,-1,14
 522 358 522 358 517 292 c 1,15,-1
 809 292 l 1,9,10
470 88 m 1,16,17
 439 41 439 41 387.5 14.5 c 128,-1,18
 336 -12 336 -12 276 -12 c 0,19,20
 169 -12 169 -12 103.5 59.5 c 128,-1,21
 38 131 38 131 38 246 c 0,22,23
 38 362 38 362 103.5 433.5 c 128,-1,24
 169 505 169 505 276 505 c 0,25,26
 337 505 337 505 388.5 478.5 c 128,-1,27
 440 452 440 452 471 404 c 1,28,29
 503 452 503 452 554 478.5 c 128,-1,30
 605 505 605 505 666 505 c 0,31,32
 767 505 767 505 833 433 c 128,-1,33
 899 361 899 361 899 251 c 0,34,35
 899 230 899 230 898 225 c 1,36,-1
 516 225 l 1,37,38
 518 151 518 151 560 106.5 c 128,-1,39
 602 62 602 62 669 62 c 0,40,41
 745 62 745 62 785 111 c 1,42,-1
 866 87 l 1,43,44
 801 -12 801 -12 669 -12 c 0,45,46
 535 -12 535 -12 470 88 c 1,16,17
EndSplineSet
EndChar

StartChar: Aring
Encoding: 197 197 244
Width: 626
GlyphClass: 2
Flags: W
AnchorPoint: "Anchor-2" 615 0 basechar 0
AnchorPoint: "Anchor-1" 313 0 basechar 0
AnchorPoint: "Anchor-0" 313 788 basechar 0
LayerCount: 2
Fore
SplineSet
422 729 m 0,0,1
 422 673 422 673 377 640 c 1,2,-1
 616 0 l 1,3,-1
 516 0 l 1,4,-1
 465 146 l 1,5,-1
 161 146 l 1,6,-1
 110 0 l 1,7,-1
 10 0 l 1,8,-1
 250 641 l 1,9,10
 204 674 204 674 204 729 c 0,11,12
 204 774 204 774 236.5 806 c 128,-1,13
 269 838 269 838 315 838 c 0,14,15
 360 838 360 838 391 806.5 c 128,-1,16
 422 775 422 775 422 729 c 0,0,1
190 227 m 1,17,-1
 436 227 l 1,18,-1
 313 574 l 1,19,-1
 190 227 l 1,17,-1
261 729 m 128,-1,21
 261 707 261 707 276 692.5 c 128,-1,22
 291 678 291 678 313 678 c 128,-1,23
 335 678 335 678 350 692.5 c 128,-1,24
 365 707 365 707 365 729 c 128,-1,25
 365 751 365 751 350 765.5 c 128,-1,26
 335 780 335 780 313 780 c 128,-1,27
 291 780 291 780 276 765.5 c 128,-1,20
 261 751 261 751 261 729 c 128,-1,21
EndSplineSet
EndChar

StartChar: Ccedilla
Encoding: 199 199 255
Width: 656
GlyphClass: 2
Flags: W
AnchorPoint: "Anchor-1" 352 -181 basechar 0
AnchorPoint: "Anchor-0" 353 668 basechar 0
LayerCount: 2
Fore
SplineSet
444 -102 m 0,0,1
 444 -136 444 -136 416.5 -158.5 c 128,-1,2
 389 -181 389 -181 347 -181 c 0,3,4
 310 -181 310 -181 259 -161 c 1,5,-1
 273 -126 l 1,6,7
 309 -140 309 -140 331 -140 c 0,8,9
 354 -140 354 -140 368 -130.5 c 128,-1,10
 382 -121 382 -121 382 -106 c 0,11,12
 382 -81 382 -81 346 -81 c 0,13,14
 339 -81 339 -81 326 -84 c 128,-1,15
 313 -87 313 -87 306 -87 c 0,16,17
 298 -87 298 -87 292.5 -81 c 128,-1,18
 287 -75 287 -75 287 -67 c 0,19,20
 287 -62 287 -62 290 -57 c 2,21,-1
 319 -10 l 1,22,23
 194 2 194 2 122 94.5 c 128,-1,24
 50 187 50 187 50 335 c 0,25,26
 50 492 50 492 135 586 c 128,-1,27
 220 680 220 680 361 680 c 0,28,29
 447 680 447 680 514 640 c 128,-1,30
 581 600 581 600 614 529 c 1,31,-1
 532 499 l 1,32,33
 508 548 508 548 462.5 574.5 c 128,-1,34
 417 601 417 601 356 601 c 0,35,36
 260 601 260 601 203 529 c 128,-1,37
 146 457 146 457 146 335 c 128,-1,38
 146 213 146 213 204 140 c 128,-1,39
 262 67 262 67 359 67 c 0,40,41
 485 67 485 67 536 169 c 1,42,-1
 618 139 l 1,43,44
 584 69 584 69 518.5 30 c 128,-1,45
 453 -9 453 -9 365 -12 c 1,46,-1
 345 -45 l 1,47,48
 357 -41 357 -41 375 -41 c 0,49,50
 406 -41 406 -41 425 -57.5 c 128,-1,51
 444 -74 444 -74 444 -102 c 0,0,1
EndSplineSet
EndChar

StartChar: ccedilla
Encoding: 231 231 256
Width: 500
GlyphClass: 2
Flags: W
AnchorPoint: "Anchor-1" 274 -181 basechar 0
AnchorPoint: "Anchor-0" 275 496 basechar 0
LayerCount: 2
Fore
SplineSet
366 -102 m 0,0,1
 366 -136 366 -136 338.5 -158.5 c 128,-1,2
 311 -181 311 -181 269 -181 c 0,3,4
 232 -181 232 -181 181 -161 c 1,5,-1
 195 -126 l 1,6,7
 231 -140 231 -140 253 -140 c 0,8,9
 276 -140 276 -140 290 -130.5 c 128,-1,10
 304 -121 304 -121 304 -106 c 0,11,12
 304 -81 304 -81 268 -81 c 0,13,14
 261 -81 261 -81 248 -84 c 128,-1,15
 235 -87 235 -87 228 -87 c 0,16,17
 220 -87 220 -87 214.5 -81 c 128,-1,18
 209 -75 209 -75 209 -67 c 0,19,20
 209 -62 209 -62 212 -57 c 2,21,-1
 241 -11 l 1,22,23
 148 -1 148 -1 93 69 c 128,-1,24
 38 139 38 139 38 246 c 0,25,26
 38 361 38 361 104.5 432.5 c 128,-1,27
 171 504 171 504 278 504 c 0,28,29
 338 504 338 504 387.5 474.5 c 128,-1,30
 437 445 437 445 465 392 c 1,31,-1
 388 364 l 1,32,33
 372 395 372 395 341 412.5 c 128,-1,34
 310 430 310 430 272 430 c 0,35,36
 207 430 207 430 168 380.5 c 128,-1,37
 129 331 129 331 129 247 c 0,38,39
 129 164 129 164 168.5 113 c 128,-1,40
 208 62 208 62 272 62 c 0,41,42
 354 62 354 62 390 127 c 1,43,-1
 467 99 l 1,44,45
 439 51 439 51 392.5 22 c 128,-1,46
 346 -7 346 -7 288 -11 c 1,47,-1
 267 -45 l 1,48,49
 279 -41 279 -41 297 -41 c 0,50,51
 328 -41 328 -41 347 -57.5 c 128,-1,52
 366 -74 366 -74 366 -102 c 0,0,1
EndSplineSet
EndChar

StartChar: Eth
Encoding: 208 208 301
AltUni2: 000189.ffffffff.0 000189.ffffffff.0
Width: 712
GlyphClass: 2
Flags: W
AnchorPoint: "Anchor-1" 376 0 basechar 0
AnchorPoint: "Anchor-0" 366 668 basechar 0
LayerCount: 2
Fore
SplineSet
566 335 m 0,0,1
 566 471 566 471 503 530 c 128,-1,2
 440 589 440 589 295 589 c 2,3,-1
 209 589 l 1,4,-1
 209 383 l 1,5,-1
 349 383 l 1,6,-1
 349 303 l 1,7,-1
 209 303 l 1,8,-1
 209 79 l 1,9,-1
 295 79 l 2,10,11
 440 79 440 79 503 138.5 c 128,-1,12
 566 198 566 198 566 335 c 0,0,1
662 335 m 0,13,14
 662 165 662 165 572 82.5 c 128,-1,15
 482 0 482 0 297 0 c 2,16,-1
 115 0 l 1,17,-1
 115 303 l 1,18,-1
 20 303 l 1,19,-1
 20 383 l 1,20,-1
 115 383 l 1,21,-1
 115 668 l 1,22,-1
 297 668 l 2,23,24
 482 668 482 668 572 586 c 128,-1,25
 662 504 662 504 662 335 c 0,13,14
EndSplineSet
EndChar

StartChar: one.tf
Encoding: 1114116 -1 303
Width: 639
GlyphClass: 1
Flags: W
LayerCount: 2
Fore
SplineSet
109 571 m 1,0,1
 200 571 200 571 248 593.5 c 128,-1,2
 296 616 296 616 314 668 c 1,3,-1
 370 668 l 1,4,-1
 370 77 l 1,5,-1
 530 77 l 1,6,-1
 530 0 l 1,7,-1
 109 0 l 1,8,-1
 109 77 l 1,9,-1
 287 77 l 1,10,-1
 287 504 l 1,11,-1
 109 504 l 1,12,-1
 109 571 l 1,0,1
EndSplineSet
Substitution2: "'pnum' Proportional Numbers lookup 15 subtable" one
Substitution2: "'aalt' Access All Alternates lookup 2 subtable" one
EndChar

StartChar: Aogonek
Encoding: 260 260 314
Width: 626
GlyphClass: 2
Flags: W
AnchorPoint: "Anchor-2" 615 0 basechar 0
AnchorPoint: "Anchor-1" 313 0 basechar 0
AnchorPoint: "Anchor-0" 313 668 basechar 0
LayerCount: 2
Fore
SplineSet
190 227 m 1,0,-1
 436 227 l 1,1,-1
 313 574 l 1,2,-1
 190 227 l 1,0,-1
577 -115 m 0,3,4
 589 -115 589 -115 615 -107 c 1,5,-1
 615 -161 l 1,6,7
 580 -173 580 -173 552 -173 c 0,8,9
 511 -173 511 -173 484.5 -150 c 128,-1,10
 458 -127 458 -127 458 -91 c 0,11,12
 458 -59 458 -59 480 -34 c 128,-1,13
 502 -9 502 -9 538 0 c 1,14,-1
 516 0 l 1,15,-1
 465 146 l 1,16,-1
 161 146 l 1,17,-1
 110 0 l 1,18,-1
 10 0 l 1,19,-1
 261 669 l 1,20,-1
 366 669 l 1,21,-1
 616 0 l 1,22,-1
 615 0 l 1,23,24
 528 -32 528 -32 528 -75 c 0,25,26
 528 -115 528 -115 577 -115 c 0,3,4
EndSplineSet
EndChar

StartChar: aogonek
Encoding: 261 261 315
Width: 526
GlyphClass: 2
Flags: W
AnchorPoint: "Anchor-2" 475 0 basechar 0
AnchorPoint: "Anchor-1" 263 0 basechar 0
AnchorPoint: "Anchor-0" 263 496 basechar 0
LayerCount: 2
Fore
SplineSet
131 133 m 0,0,1
 131 97 131 97 157 76 c 128,-1,2
 183 55 183 55 227 55 c 0,3,4
 300 55 300 55 340 94.5 c 128,-1,5
 380 134 380 134 380 208 c 2,6,-1
 380 239 l 1,7,8
 243 225 243 225 187 201 c 128,-1,9
 131 177 131 177 131 133 c 0,0,1
437 -115 m 0,10,11
 449 -115 449 -115 475 -107 c 1,12,-1
 475 -161 l 1,13,14
 440 -173 440 -173 412 -173 c 0,15,16
 371 -173 371 -173 344.5 -150 c 128,-1,17
 318 -127 318 -127 318 -91 c 0,18,19
 318 -59 318 -59 340 -34 c 128,-1,20
 362 -9 362 -9 398 0 c 1,21,-1
 378 68 l 1,22,23
 330 -12 330 -12 209 -12 c 0,24,25
 133 -12 133 -12 85.5 27.5 c 128,-1,26
 38 67 38 67 38 131 c 0,27,28
 38 207 38 207 113.5 246.5 c 128,-1,29
 189 286 189 286 373 306 c 1,30,-1
 373 315 l 2,31,32
 373 437 373 437 261 437 c 0,33,34
 217 437 217 437 188 417 c 128,-1,35
 159 397 159 397 151 360 c 1,36,-1
 70 384 l 1,37,38
 89 440 89 440 140 472 c 128,-1,39
 191 504 191 504 260 504 c 0,40,41
 363 504 363 504 410.5 455.5 c 128,-1,42
 458 407 458 407 458 303 c 2,43,-1
 458 187 l 2,44,45
 458 76 458 76 475 0 c 1,46,47
 388 -32 388 -32 388 -75 c 0,48,49
 388 -115 388 -115 437 -115 c 0,10,11
EndSplineSet
EndChar

StartChar: Eogonek
Encoding: 280 280 320
Width: 567
GlyphClass: 2
Flags: W
AnchorPoint: "Anchor-2" 506 0 basechar 0
AnchorPoint: "Anchor-1" 284 0 basechar 0
AnchorPoint: "Anchor-0" 304 668 basechar 0
LayerCount: 2
Fore
SplineSet
468 -115 m 0,0,1
 480 -115 480 -115 506 -107 c 1,2,-1
 506 -161 l 1,3,4
 472 -173 472 -173 443 -173 c 0,5,6
 402 -173 402 -173 375.5 -150 c 128,-1,7
 349 -127 349 -127 349 -91 c 0,8,9
 349 -59 349 -59 371 -34 c 128,-1,10
 393 -9 393 -9 429 0 c 1,11,-1
 76 0 l 1,12,-1
 76 668 l 1,13,-1
 529 668 l 1,14,-1
 529 587 l 1,15,-1
 170 587 l 1,16,-1
 170 384 l 1,17,-1
 435 384 l 1,18,-1
 435 303 l 1,19,-1
 170 303 l 1,20,-1
 170 81 l 1,21,-1
 529 81 l 1,22,-1
 529 0 l 1,23,-1
 506 0 l 1,24,25
 419 -32 419 -32 419 -75 c 0,26,27
 419 -115 419 -115 468 -115 c 0,0,1
EndSplineSet
EndChar

StartChar: eogonek
Encoding: 281 281 321
Width: 539
GlyphClass: 2
Flags: W
AnchorPoint: "Anchor-2" 365 0 basechar 0
AnchorPoint: "Anchor-1" 270 0 basechar 0
AnchorPoint: "Anchor-0" 281 496 basechar 0
LayerCount: 2
Fore
SplineSet
421 292 m 1,0,1
 421 350 421 350 379.5 391 c 128,-1,2
 338 432 338 432 279 432 c 0,3,4
 213 432 213 432 173.5 395.5 c 128,-1,5
 134 359 134 359 129 292 c 1,6,-1
 421 292 l 1,0,1
326 -115 m 0,7,8
 338 -115 338 -115 364 -107 c 1,9,-1
 364 -161 l 1,10,11
 330 -173 330 -173 301 -173 c 0,12,13
 260 -173 260 -173 233.5 -150 c 128,-1,14
 207 -127 207 -127 207 -91 c 0,15,16
 207 -38 207 -38 257 -11 c 1,17,18
 158 -3 158 -3 98 67.5 c 128,-1,19
 38 138 38 138 38 247 c 0,20,21
 38 361 38 361 105 432.5 c 128,-1,22
 172 504 172 504 279 504 c 0,23,24
 380 504 380 504 445.5 432 c 128,-1,25
 511 360 511 360 511 250 c 0,26,27
 511 230 511 230 510 225 c 1,28,-1
 128 225 l 1,29,30
 130 151 130 151 172 106.5 c 128,-1,31
 214 62 214 62 281 62 c 0,32,33
 359 62 359 62 397 111 c 1,34,-1
 478 87 l 1,35,36
 454 49 454 49 417 26.5 c 128,-1,37
 380 4 380 4 344.5 -10 c 128,-1,38
 309 -24 309 -24 295 -38 c 0,39,40
 277 -56 277 -56 277 -75 c 0,41,42
 277 -115 277 -115 326 -115 c 0,7,8
EndSplineSet
EndChar

StartChar: Iogonek
Encoding: 302 302 328
Width: 414
GlyphClass: 2
Flags: W
AnchorPoint: "Anchor-2" 273 0 basechar 0
AnchorPoint: "Anchor-1" 207 0 basechar 0
AnchorPoint: "Anchor-0" 207 668 basechar 0
LayerCount: 2
Fore
SplineSet
235 -115 m 0,0,1
 247 -115 247 -115 273 -107 c 1,2,-1
 273 -161 l 1,3,4
 238 -173 238 -173 210 -173 c 0,5,6
 169 -173 169 -173 142.5 -150 c 128,-1,7
 116 -127 116 -127 116 -91 c 0,8,9
 116 -59 116 -59 138 -34 c 128,-1,10
 160 -9 160 -9 196 0 c 1,11,-1
 66 0 l 1,12,-1
 66 74 l 1,13,-1
 160 74 l 1,14,-1
 160 594 l 1,15,-1
 66 594 l 1,16,-1
 66 668 l 1,17,-1
 348 668 l 1,18,-1
 348 594 l 1,19,-1
 254 594 l 1,20,-1
 254 74 l 1,21,-1
 348 74 l 1,22,-1
 348 0 l 1,23,-1
 273 0 l 1,24,25
 186 -32 186 -32 186 -75 c 0,26,27
 186 -115 186 -115 235 -115 c 0,0,1
EndSplineSet
EndChar

StartChar: iogonek
Encoding: 303 303 329
Width: 278
GlyphClass: 1
Flags: W
LayerCount: 2
Fore
SplineSet
219 653 m 128,-1,1
 219 627 219 627 200.5 608.5 c 128,-1,2
 182 590 182 590 156 590 c 128,-1,3
 130 590 130 590 112 608.5 c 128,-1,4
 94 627 94 627 94 653 c 0,5,6
 94 678 94 678 112 696.5 c 128,-1,7
 130 715 130 715 156 715 c 128,-1,8
 182 715 182 715 200.5 697 c 128,-1,0
 219 679 219 679 219 653 c 128,-1,1
160 -115 m 0,9,10
 172 -115 172 -115 198 -107 c 1,11,-1
 198 -161 l 1,12,13
 164 -173 164 -173 135 -173 c 0,14,15
 94 -173 94 -173 67.5 -150 c 128,-1,16
 41 -127 41 -127 41 -91 c 0,17,18
 41 -59 41 -59 63 -34 c 128,-1,19
 85 -9 85 -9 121 0 c 1,20,-1
 114 0 l 1,21,-1
 114 429 l 1,22,-1
 45 429 l 1,23,-1
 45 496 l 1,24,-1
 198 496 l 1,25,-1
 198 0 l 1,26,27
 111 -32 111 -32 111 -75 c 0,28,29
 111 -115 111 -115 160 -115 c 0,9,10
EndSplineSet
EndChar

StartChar: Uogonek
Encoding: 370 370 342
Width: 690
GlyphClass: 2
Flags: W
AnchorPoint: "Anchor-2" 427 0 basechar 0
AnchorPoint: "Anchor-1" 345 0 basechar 0
AnchorPoint: "Anchor-0" 345 668 basechar 0
LayerCount: 2
Fore
SplineSet
389 -115 m 0,0,1
 401 -115 401 -115 427 -107 c 1,2,-1
 427 -161 l 1,3,4
 392 -173 392 -173 364 -173 c 0,5,6
 323 -173 323 -173 296.5 -150 c 128,-1,7
 270 -127 270 -127 270 -91 c 0,8,9
 270 -38 270 -38 320 -11 c 1,10,11
 194 -5 194 -5 135 65 c 128,-1,12
 76 135 76 135 76 279 c 2,13,-1
 76 668 l 1,14,-1
 170 668 l 1,15,-1
 170 272 l 2,16,17
 170 167 170 167 212 118 c 128,-1,18
 254 69 254 69 345 69 c 128,-1,19
 436 69 436 69 478 118 c 128,-1,20
 520 167 520 167 520 272 c 2,21,-1
 520 668 l 1,22,-1
 614 668 l 1,23,-1
 614 279 l 2,24,25
 614 145 614 145 563.5 75 c 128,-1,26
 513 5 513 5 406 -8 c 1,27,28
 340 -36 340 -36 340 -75 c 0,29,30
 340 -115 340 -115 389 -115 c 0,0,1
EndSplineSet
EndChar

StartChar: uogonek
Encoding: 371 371 343
Width: 536
GlyphClass: 1
Flags: W
LayerCount: 2
Fore
SplineSet
428 -115 m 0,0,1
 440 -115 440 -115 466 -107 c 1,2,-1
 466 -161 l 1,3,4
 432 -173 432 -173 403 -173 c 0,5,6
 362 -173 362 -173 335.5 -150 c 128,-1,7
 309 -127 309 -127 309 -91 c 0,8,9
 309 -20 309 -20 402 2 c 1,10,-1
 382 72 l 1,11,12
 361 36 361 36 325 12 c 128,-1,13
 289 -12 289 -12 227 -12 c 0,14,15
 68 -12 68 -12 68 180 c 2,16,-1
 68 497 l 1,17,-1
 152 497 l 1,18,-1
 152 200 l 2,19,20
 152 127 152 127 176.5 94.5 c 128,-1,21
 201 62 201 62 256 62 c 0,22,23
 317 62 317 62 349.5 104 c 128,-1,24
 382 146 382 146 382 224 c 2,25,-1
 382 497 l 1,26,-1
 466 497 l 1,27,-1
 466 0 l 1,28,29
 379 -32 379 -32 379 -75 c 0,30,31
 379 -115 379 -115 428 -115 c 0,0,1
EndSplineSet
EndChar

StartChar: Hbar
Encoding: 294 294 352
Width: 710
GlyphClass: 2
Flags: W
AnchorPoint: "Anchor-1" 355 0 basechar 0
AnchorPoint: "Anchor-0" 355 668 basechar 0
LayerCount: 2
Fore
SplineSet
180 384 m 1,0,-1
 530 384 l 1,1,-1
 530 504 l 1,2,-1
 180 504 l 1,3,-1
 180 384 l 1,0,-1
86 0 m 1,4,-1
 86 504 l 1,5,-1
 10 504 l 1,6,-1
 10 581 l 1,7,-1
 86 581 l 1,8,-1
 86 668 l 1,9,-1
 180 668 l 1,10,-1
 180 581 l 1,11,-1
 530 581 l 1,12,-1
 530 668 l 1,13,-1
 624 668 l 1,14,-1
 624 581 l 1,15,-1
 700 581 l 1,16,-1
 700 504 l 1,17,-1
 624 504 l 1,18,-1
 624 0 l 1,19,-1
 530 0 l 1,20,-1
 530 303 l 1,21,-1
 180 303 l 1,22,-1
 180 0 l 1,23,-1
 86 0 l 1,4,-1
EndSplineSet
EndChar

StartChar: hbar
Encoding: 295 295 353
Width: 581
GlyphClass: 1
Flags: W
LayerCount: 2
Fore
SplineSet
349 504 m 0,0,1
 513 504 513 504 513 314 c 2,2,-1
 513 0 l 1,3,-1
 429 0 l 1,4,-1
 429 289 l 2,5,6
 429 366 429 366 404 399 c 128,-1,7
 379 432 379 432 320 432 c 0,8,9
 257 432 257 432 223 389.5 c 128,-1,10
 189 347 189 347 189 269 c 2,11,-1
 189 0 l 1,12,-1
 105 0 l 1,13,-1
 105 548 l 1,14,-1
 20 548 l 1,15,-1
 20 615 l 1,16,-1
 105 615 l 1,17,-1
 105 668 l 1,18,-1
 189 668 l 1,19,-1
 189 615 l 1,20,-1
 349 615 l 1,21,-1
 349 548 l 1,22,-1
 189 548 l 1,23,-1
 189 421 l 1,24,25
 239 504 239 504 349 504 c 0,0,1
EndSplineSet
EndChar

StartChar: dcroat
Encoding: 273 273 372
Width: 603
GlyphClass: 1
Flags: W
LayerCount: 2
Fore
SplineSet
273 432 m 128,-1,1
 207 432 207 432 169.5 382.5 c 128,-1,2
 132 333 132 333 132 246 c 128,-1,3
 132 159 132 159 169.5 109.5 c 128,-1,4
 207 60 207 60 273 60 c 128,-1,5
 339 60 339 60 376.5 109.5 c 128,-1,6
 414 159 414 159 414 246 c 128,-1,7
 414 333 414 333 376.5 382.5 c 128,-1,0
 339 432 339 432 273 432 c 128,-1,1
412 75 m 1,8,9
 365 -12 365 -12 251 -12 c 0,10,11
 157 -12 157 -12 97.5 60.5 c 128,-1,12
 38 133 38 133 38 246 c 128,-1,13
 38 359 38 359 97.5 431.5 c 128,-1,14
 157 504 157 504 251 504 c 0,15,16
 363 504 363 504 412 418 c 1,17,-1
 412 548 l 1,18,-1
 249 548 l 1,19,-1
 249 615 l 1,20,-1
 412 615 l 1,21,-1
 412 668 l 1,22,-1
 496 668 l 1,23,-1
 496 615 l 1,24,-1
 578 615 l 1,25,-1
 578 548 l 1,26,-1
 496 548 l 1,27,-1
 496 187 l 2,28,29
 496 98 496 98 513 0 c 1,30,-1
 434 0 l 1,31,-1
 412 75 l 1,8,9
EndSplineSet
EndChar

StartChar: Scedilla
Encoding: 350 350 380
Width: 596
GlyphClass: 2
Flags: W
AnchorPoint: "Anchor-1" 302 -181 basechar 0
AnchorPoint: "Anchor-0" 298 668 basechar 0
LayerCount: 2
Fore
SplineSet
394 -102 m 0,0,1
 394 -136 394 -136 366.5 -158.5 c 128,-1,2
 339 -181 339 -181 297 -181 c 0,3,4
 260 -181 260 -181 209 -161 c 1,5,-1
 223 -126 l 1,6,7
 259 -140 259 -140 281 -140 c 0,8,9
 304 -140 304 -140 318 -130.5 c 128,-1,10
 332 -121 332 -121 332 -106 c 0,11,12
 332 -81 332 -81 296 -81 c 0,13,14
 289 -81 289 -81 276 -84 c 128,-1,15
 263 -87 263 -87 256 -87 c 0,16,17
 248 -87 248 -87 242.5 -81 c 128,-1,18
 237 -75 237 -75 237 -67 c 0,19,20
 237 -62 237 -62 240 -57 c 2,21,-1
 269 -11 l 1,22,23
 184 -5 184 -5 123.5 36.5 c 128,-1,24
 63 78 63 78 40 146 c 1,25,-1
 127 172 l 1,26,27
 143 123 143 123 189.5 95 c 128,-1,28
 236 67 236 67 300 67 c 0,29,30
 370 67 370 67 413.5 100 c 128,-1,31
 457 133 457 133 457 186 c 0,32,33
 457 226 457 226 427 250.5 c 128,-1,34
 397 275 397 275 323 294 c 2,35,-1
 238 313 l 2,36,37
 135 340 135 340 90.5 383.5 c 128,-1,38
 46 427 46 427 46 501 c 0,39,40
 46 578 46 578 115.5 629 c 128,-1,41
 185 680 185 680 291 680 c 0,42,43
 371 680 371 680 433 646.5 c 128,-1,44
 495 613 495 613 523 555 c 1,45,-1
 437 530 l 1,46,47
 420 562 420 562 379 581.5 c 128,-1,48
 338 601 338 601 287 601 c 0,49,50
 223 601 223 601 183 572 c 128,-1,51
 143 543 143 543 143 497 c 0,52,53
 143 457 143 457 174.5 434 c 128,-1,54
 206 411 206 411 286 392 c 2,55,-1
 359 376 l 2,56,57
 463 351 463 351 509.5 305 c 128,-1,58
 556 259 556 259 556 182 c 0,59,60
 556 103 556 103 488 48 c 128,-1,61
 420 -7 420 -7 315 -12 c 1,62,-1
 295 -45 l 1,63,64
 307 -41 307 -41 325 -41 c 0,65,66
 356 -41 356 -41 375 -57.5 c 128,-1,67
 394 -74 394 -74 394 -102 c 0,0,1
EndSplineSet
Substitution2: "'locl' Localized Forms in Latin lookup 10 subtable" uni0218
Substitution2: "'aalt' Access All Alternates lookup 2 subtable" uni0218
EndChar

StartChar: scedilla
Encoding: 351 351 381
Width: 471
GlyphClass: 2
Flags: W
AnchorPoint: "Anchor-1" 234 -181 basechar 0
AnchorPoint: "Anchor-0" 240 496 basechar 0
LayerCount: 2
Fore
SplineSet
326 -102 m 0,0,1
 326 -136 326 -136 298.5 -158.5 c 128,-1,2
 271 -181 271 -181 229 -181 c 0,3,4
 192 -181 192 -181 141 -161 c 1,5,-1
 155 -126 l 1,6,7
 191 -140 191 -140 213 -140 c 0,8,9
 236 -140 236 -140 250 -130.5 c 128,-1,10
 264 -121 264 -121 264 -106 c 0,11,12
 264 -81 264 -81 228 -81 c 0,13,14
 221 -81 221 -81 208 -84 c 128,-1,15
 195 -87 195 -87 188 -87 c 0,16,17
 180 -87 180 -87 174.5 -81 c 128,-1,18
 169 -75 169 -75 169 -67 c 0,19,20
 169 -62 169 -62 172 -57 c 2,21,-1
 202 -10 l 1,22,23
 141 -2 141 -2 96 30 c 128,-1,24
 51 62 51 62 31 112 c 1,25,-1
 112 142 l 1,26,27
 122 104 122 104 156 81.5 c 128,-1,28
 190 59 190 59 239 59 c 0,29,30
 289 59 289 59 322.5 80.5 c 128,-1,31
 356 102 356 102 356 133 c 0,32,33
 356 167 356 167 331 186 c 128,-1,34
 306 205 306 205 246 217 c 2,35,-1
 177 231 l 2,36,37
 106 247 106 247 73.5 279.5 c 128,-1,38
 41 312 41 312 41 367 c 0,39,40
 41 427 41 427 95 466 c 128,-1,41
 149 505 149 505 232 505 c 0,42,43
 299 505 299 505 348.5 478 c 128,-1,44
 398 451 398 451 418 404 c 1,45,-1
 339 375 l 1,46,47
 327 402 327 402 296.5 418 c 128,-1,48
 266 434 266 434 226 434 c 0,49,50
 183 434 183 434 154.5 415.5 c 128,-1,51
 126 397 126 397 126 368 c 0,52,53
 126 341 126 341 147.5 325 c 128,-1,54
 169 309 169 309 218 299 c 2,55,-1
 283 286 l 2,56,57
 367 270 367 270 404 234.5 c 128,-1,58
 441 199 441 199 441 136 c 0,59,60
 441 74 441 74 386.5 32 c 128,-1,61
 332 -10 332 -10 247 -12 c 1,62,-1
 227 -45 l 1,63,64
 239 -41 239 -41 257 -41 c 0,65,66
 288 -41 288 -41 307 -57.5 c 128,-1,67
 326 -74 326 -74 326 -102 c 0,0,1
EndSplineSet
Substitution2: "'locl' Localized Forms in Latin lookup 10 subtable" uni0219
Substitution2: "'aalt' Access All Alternates lookup 2 subtable" uni0219
EndChar

StartChar: uni0162
Encoding: 354 354 383
Width: 558
GlyphClass: 2
Flags: W
AnchorPoint: "Anchor-1" 269 -250 basechar 0
AnchorPoint: "Anchor-0" 279 668 basechar 0
LayerCount: 2
Fore
SplineSet
375 -102 m 0,0,1
 375 -136 375 -136 347.5 -158.5 c 128,-1,2
 320 -181 320 -181 278 -181 c 0,3,4
 241 -181 241 -181 190 -161 c 1,5,-1
 204 -126 l 1,6,7
 240 -140 240 -140 262 -140 c 128,-1,8
 284 -140 284 -140 298.5 -130.5 c 128,-1,9
 313 -121 313 -121 313 -106 c 0,10,11
 313 -81 313 -81 277 -81 c 0,12,13
 270 -81 270 -81 257 -84 c 128,-1,14
 244 -87 244 -87 237 -87 c 0,15,16
 229 -87 229 -87 223.5 -81 c 128,-1,17
 218 -75 218 -75 218 -67 c 0,18,19
 218 -62 218 -62 221 -57 c 2,20,-1
 256 0 l 1,21,-1
 232 0 l 1,22,-1
 232 587 l 1,23,-1
 10 587 l 1,24,-1
 10 668 l 1,25,-1
 548 668 l 1,26,-1
 548 587 l 1,27,-1
 326 587 l 1,28,-1
 326 0 l 1,29,-1
 304 0 l 1,30,-1
 276 -45 l 1,31,32
 288 -41 288 -41 306 -41 c 0,33,34
 337 -41 337 -41 356 -57.5 c 128,-1,35
 375 -74 375 -74 375 -102 c 0,0,1
EndSplineSet
Substitution2: "'locl' Localized Forms in Latin lookup 10 subtable" uni021A
Substitution2: "'aalt' Access All Alternates lookup 2 subtable" uni021A
EndChar

StartChar: acutecomb
Encoding: 769 769 385
Width: 162
GlyphClass: 4
Flags: W
AnchorPoint: "Anchor-4" 81 707 basemark 0
AnchorPoint: "Anchor-4" 47 496 mark 0
AnchorPoint: "Anchor-0" 47 496 mark 0
LayerCount: 2
Fore
SplineSet
0 571 m 1,0,1
 76 672 76 672 92 689.5 c 128,-1,2
 108 707 108 707 124 707 c 128,-1,3
 140 707 140 707 151 696.5 c 128,-1,4
 162 686 162 686 162 669 c 0,5,6
 162 655 162 655 147.5 639 c 128,-1,7
 133 623 133 623 90 588 c 0,8,9
 72 573 72 573 70 571 c 2,10,-1
 0 571 l 1,0,1
EndSplineSet
Substitution2: "'case' Case-Sensitive Forms lookup 17 subtable" acutecomb.case
Substitution2: "Single Substitution lookup 9 subtable" acutecomb.case
Substitution2: "Single Substitution lookup 8 subtable" acutecomb.case
Substitution2: "Single Substitution lookup 6 subtable" acutecomb.case
Substitution2: "Single Substitution lookup 5 subtable" acutecomb.case
Substitution2: "'aalt' Access All Alternates lookup 2 subtable" acutecomb.case
EndChar

StartChar: acutecomb.case
Encoding: 1114125 -1 386
Width: 0
GlyphClass: 4
Flags: W
AnchorPoint: "Anchor-4" 86 864 basemark 0
AnchorPoint: "Anchor-4" 58 668 mark 0
AnchorPoint: "Anchor-0" 58 668 mark 0
LayerCount: 2
Fore
SplineSet
136 864 m 0,0,1
 151 864 151 864 161.5 853.5 c 128,-1,2
 172 843 172 843 172 828 c 0,3,4
 172 812 172 812 157.5 798.5 c 128,-1,5
 143 785 143 785 95 756 c 0,6,7
 90 753 90 753 86 750.5 c 128,-1,8
 82 748 82 748 79.5 746 c 128,-1,9
 77 744 77 744 76 744 c 2,10,-1
 0 744 l 1,11,12
 1 745 1 745 26 771 c 128,-1,13
 51 797 51 797 75.5 821.5 c 128,-1,14
 100 846 100 846 107 852 c 0,15,16
 120 864 120 864 136 864 c 0,0,1
EndSplineSet
EndChar

StartChar: uni030C.alt
Encoding: 1114127 -1 390
Width: 0
GlyphClass: 1
Flags: W
LayerCount: 2
Fore
SplineSet
82 678 m 0,0,1
 98 678 98 678 109 667 c 128,-1,2
 120 656 120 656 120 640 c 0,3,4
 120 636 120 636 118.5 631.5 c 128,-1,5
 117 627 117 627 114.5 620.5 c 128,-1,6
 112 614 112 614 111 609 c 2,7,-1
 69 495 l 1,8,-1
 20 495 l 1,9,10
 20 496 20 496 25.5 532 c 128,-1,11
 31 568 31 568 36.5 603.5 c 128,-1,12
 42 639 42 639 46 649 c 0,13,14
 53 678 53 678 82 678 c 0,0,1
EndSplineSet
EndChar

StartChar: uni0327
Encoding: 807 807 392
Width: 0
GlyphClass: 4
Flags: W
AnchorPoint: "Anchor-3" 93 -181 basemark 0
AnchorPoint: "Anchor-3" 89 0 mark 0
AnchorPoint: "Anchor-1" 89 0 mark 0
LayerCount: 2
Fore
SplineSet
185 -102 m 0,0,1
 185 -136 185 -136 157.5 -158.5 c 128,-1,2
 130 -181 130 -181 88 -181 c 0,3,4
 51 -181 51 -181 0 -161 c 1,5,-1
 14 -126 l 1,6,7
 50 -140 50 -140 72 -140 c 128,-1,8
 94 -140 94 -140 108.5 -130.5 c 128,-1,9
 123 -121 123 -121 123 -106 c 0,10,11
 123 -81 123 -81 87 -81 c 0,12,13
 80 -81 80 -81 67 -84 c 128,-1,14
 54 -87 54 -87 47 -87 c 0,15,16
 39 -87 39 -87 33.5 -81 c 128,-1,17
 28 -75 28 -75 28 -67 c 0,18,19
 28 -62 28 -62 31 -57 c 2,20,-1
 82 25 l 1,21,-1
 116 4 l 1,22,-1
 86 -45 l 1,23,24
 98 -41 98 -41 116 -41 c 0,25,26
 147 -41 147 -41 166 -57.5 c 128,-1,27
 185 -74 185 -74 185 -102 c 0,0,1
EndSplineSet
EndChar

StartChar: uni0326
Encoding: 806 806 395
Width: 0
GlyphClass: 4
Flags: W
AnchorPoint: "Anchor-3" 80 -250 basemark 0
AnchorPoint: "Anchor-3" 90 0 mark 0
AnchorPoint: "Anchor-1" 90 0 mark 0
LayerCount: 2
Fore
SplineSet
104 -56 m 1,0,1
 160 -86 160 -86 160 -143 c 0,2,3
 160 -190 160 -190 126.5 -220 c 128,-1,4
 93 -250 93 -250 40 -250 c 1,5,-1
 0 -216 l 1,6,7
 94 -216 94 -216 94 -147 c 0,8,9
 94 -100 94 -100 44 -82 c 1,10,-1
 104 -56 l 1,0,1
EndSplineSet
EndChar

StartChar: uni2074
Encoding: 8308 8308 400
Width: 412
GlyphClass: 1
Flags: W
LayerCount: 2
Fore
SplineSet
113 546 m 1,0,-1
 225 546 l 1,1,-1
 225 692 l 1,2,-1
 113 546 l 1,0,-1
225 403 m 1,3,-1
 225 489 l 1,4,-1
 40 489 l 1,5,-1
 40 543 l 1,6,-1
 226 779 l 1,7,-1
 293 779 l 1,8,-1
 293 546 l 1,9,-1
 358 546 l 1,10,-1
 358 489 l 1,11,-1
 293 489 l 1,12,-1
 293 403 l 1,13,-1
 225 403 l 1,3,-1
EndSplineSet
EndChar

StartChar: gravecomb.case
Encoding: 1114132 -1 402
Width: 0
GlyphClass: 4
Flags: W
AnchorPoint: "Anchor-4" 87 864 basemark 0
AnchorPoint: "Anchor-4" 122 668 mark 0
AnchorPoint: "Anchor-0" 122 668 mark 0
LayerCount: 2
Fore
SplineSet
0 828 m 0,0,1
 0 843 0 843 10.5 853.5 c 128,-1,2
 21 864 21 864 36 864 c 0,3,4
 55 864 55 864 67 851 c 2,5,-1
 173 744 l 1,6,-1
 97 744 l 1,7,8
 97 744 97 744 81.5 753.5 c 128,-1,9
 66 763 66 763 46 776 c 128,-1,10
 26 789 26 789 16 796 c 0,11,12
 0 809 0 809 0 828 c 0,0,1
EndSplineSet
EndChar

StartChar: dotlessi
Encoding: 305 305 405
Width: 274
GlyphClass: 2
Flags: W
AnchorPoint: "Anchor-2" 248 10 basechar 0
AnchorPoint: "Anchor-1" 137 0 basechar 0
AnchorPoint: "Anchor-0" 132 496 basechar 0
LayerCount: 2
Fore
SplineSet
112 0 m 1,0,-1
 112 429 l 1,1,-1
 43 429 l 1,2,-1
 43 496 l 1,3,-1
 196 496 l 1,4,-1
 196 0 l 1,5,-1
 112 0 l 1,0,-1
EndSplineSet
EndChar

StartChar: mu
Encoding: 181 181 408
Width: 555
GlyphClass: 1
Flags: W
LayerCount: 2
Fore
SplineSet
139 24 m 1,0,1
 154 -51 154 -51 154 -79 c 2,2,-1
 154 -162 l 1,3,-1
 70 -162 l 1,4,-1
 70 496 l 1,5,-1
 154 496 l 1,6,-1
 154 198 l 2,7,8
 154 127 154 127 179.5 94 c 128,-1,9
 205 61 205 61 260 61 c 0,10,11
 319 61 319 61 352 107 c 128,-1,12
 385 153 385 153 385 236 c 2,13,-1
 385 496 l 1,14,-1
 469 496 l 1,15,-1
 469 122 l 2,16,17
 469 96 469 96 478 85.5 c 128,-1,18
 487 75 487 75 510 75 c 0,19,20
 512 75 512 75 528 77 c 2,21,-1
 540 80 l 1,22,-1
 540 7 l 1,23,24
 512 0 512 0 480 0 c 0,25,26
 410 0 410 0 390 73 c 1,27,28
 343 -11 343 -11 239 -11 c 0,29,30
 177 -11 177 -11 139 24 c 1,0,1
EndSplineSet
EndChar

StartChar: uni0328.case
Encoding: 1114135 -1 410
Width: 0
GlyphClass: 4
Flags: W
AnchorPoint: "Anchor-2" 157 0 mark 0
LayerCount: 2
Fore
SplineSet
0 -91 m 0,0,1
 0 -31 0 -31 57 0 c 1,2,-1
 157 0 l 1,3,4
 110 -17 110 -17 90 -34 c 128,-1,5
 70 -51 70 -51 70 -74 c 0,6,7
 70 -115 70 -115 119 -115 c 0,8,9
 131 -115 131 -115 157 -107 c 1,10,-1
 157 -161 l 1,11,12
 122 -173 122 -173 94 -173 c 0,13,14
 53 -173 53 -173 26.5 -150 c 128,-1,15
 0 -127 0 -127 0 -91 c 0,0,1
EndSplineSet
EndChar

StartChar: uni0163
Encoding: 355 355 414
Width: 324
GlyphClass: 2
Flags: W
AnchorPoint: "Anchor-1" 173 -250 basechar 0
AnchorPoint: "Anchor-0" 162 496 basechar 0
LayerCount: 2
Fore
SplineSet
279 -102 m 0,0,1
 279 -136 279 -136 251.5 -158.5 c 128,-1,2
 224 -181 224 -181 182 -181 c 0,3,4
 145 -181 145 -181 94 -161 c 1,5,-1
 108 -126 l 1,6,7
 144 -140 144 -140 166 -140 c 128,-1,8
 188 -140 188 -140 202.5 -130.5 c 128,-1,9
 217 -121 217 -121 217 -106 c 0,10,11
 217 -81 217 -81 181 -81 c 0,12,13
 174 -81 174 -81 161 -84 c 128,-1,14
 148 -87 148 -87 141 -87 c 0,15,16
 133 -87 133 -87 127.5 -81 c 128,-1,17
 122 -75 122 -75 122 -67 c 0,18,19
 122 -62 122 -62 125 -57 c 2,20,-1
 164 5 l 1,21,22
 130 13 130 13 117 38.5 c 128,-1,23
 104 64 104 64 104 124 c 2,24,-1
 104 429 l 1,25,-1
 20 429 l 1,26,-1
 20 496 l 1,27,-1
 104 496 l 1,28,-1
 104 621 l 1,29,-1
 188 621 l 1,30,-1
 188 496 l 1,31,-1
 284 496 l 1,32,-1
 284 429 l 1,33,-1
 188 429 l 1,34,-1
 188 138 l 2,35,36
 188 98 188 98 197.5 86 c 128,-1,37
 207 74 207 74 239 74 c 2,38,-1
 284 74 l 1,39,-1
 284 0 l 1,40,-1
 208 0 l 1,41,-1
 180 -45 l 1,42,43
 192 -41 192 -41 210 -41 c 0,44,45
 241 -41 241 -41 260 -57.5 c 128,-1,46
 279 -74 279 -74 279 -102 c 0,0,1
EndSplineSet
Substitution2: "'locl' Localized Forms in Latin lookup 10 subtable" uni021B
Substitution2: "'aalt' Access All Alternates lookup 2 subtable" uni021B
EndChar

StartChar: zero.alt1
Encoding: 1114138 -1 418
Width: 648
GlyphClass: 2
Flags: W
LayerCount: 2
Fore
SplineSet
497 335 m 0,0,1
 497 418 497 418 477 486 c 1,2,-1
 213 107 l 1,3,4
 255 62 255 62 324 62 c 0,5,6
 497 62 497 62 497 335 c 0,0,1
151 335 m 0,7,8
 151 256 151 256 168 190 c 1,9,-1
 431 566 l 1,10,11
 390 606 390 606 324 606 c 0,12,13
 151 606 151 606 151 335 c 0,7,8
60 335 m 0,14,15
 60 503 60 503 128 591.5 c 128,-1,16
 196 680 196 680 324 680 c 128,-1,17
 452 680 452 680 520 591.5 c 128,-1,18
 588 503 588 503 588 335 c 0,19,20
 588 166 588 166 520 77 c 128,-1,21
 452 -12 452 -12 324 -12 c 128,-1,22
 196 -12 196 -12 128 77 c 128,-1,23
 60 166 60 166 60 335 c 0,14,15
EndSplineSet
Substitution2: "'tnum' Tabular Numbers lookup 16 subtable" zero
Substitution2: "'aalt' Access All Alternates lookup 2 subtable" zero
Substitution2: "'zero' Slashed Zero lookup 1 subtable" zero
EndChar

StartChar: copyleft
Encoding: 127279 127279 419
Width: 798
GlyphClass: 2
Flags: W
LayerCount: 2
Fore
SplineSet
571 342 m 0,0,1
 571 251 571 251 525.5 200.5 c 128,-1,2
 480 150 480 150 397 150 c 0,3,4
 293 150 293 150 248 230 c 1,5,-1
 314 254 l 1,6,7
 337 209 337 209 397 209 c 0,8,9
 443 209 443 209 469 244 c 128,-1,10
 495 279 495 279 495 342 c 0,11,12
 495 404 495 404 469.5 438.5 c 128,-1,13
 444 473 444 473 397 473 c 0,14,15
 342 473 342 473 317 424 c 1,16,-1
 250 449 l 1,17,18
 293 531 293 531 395 531 c 0,19,20
 477 531 477 531 524 481 c 128,-1,21
 571 431 571 431 571 342 c 0,0,1
115 334 m 128,-1,23
 115 216 115 216 197.5 133 c 128,-1,24
 280 50 280 50 399 50 c 128,-1,25
 518 50 518 50 600.5 133 c 128,-1,26
 683 216 683 216 683 334 c 128,-1,27
 683 452 683 452 600.5 535 c 128,-1,28
 518 618 518 618 399 618 c 128,-1,29
 280 618 280 618 197.5 535 c 128,-1,22
 115 452 115 452 115 334 c 128,-1,23
745 334 m 128,-1,31
 745 191 745 191 643.5 89.5 c 128,-1,32
 542 -12 542 -12 399 -12 c 128,-1,33
 256 -12 256 -12 154.5 89.5 c 128,-1,34
 53 191 53 191 53 334 c 128,-1,35
 53 477 53 477 154.5 578.5 c 128,-1,36
 256 680 256 680 399 680 c 128,-1,37
 542 680 542 680 643.5 578.5 c 128,-1,30
 745 477 745 477 745 334 c 128,-1,31
EndSplineSet
EndChar

StartChar: fi
Encoding: 64257 64257 420
Width: 527
GlyphClass: 3
LigCaretCntFixed: 1
Flags: W
LayerCount: 2
Fore
SplineSet
468 653 m 128,-1,1
 468 627 468 627 449.5 608.5 c 128,-1,2
 431 590 431 590 405 590 c 128,-1,3
 379 590 379 590 361 608.5 c 128,-1,4
 343 627 343 627 343 653 c 0,5,6
 343 678 343 678 361.5 696.5 c 128,-1,7
 380 715 380 715 405 715 c 0,8,9
 431 715 431 715 449.5 697 c 128,-1,0
 468 679 468 679 468 653 c 128,-1,1
234 635 m 2,10,11
 203 635 203 635 193 622 c 128,-1,12
 183 609 183 609 183 571 c 2,13,-1
 183 496 l 1,14,-1
 447 496 l 1,15,-1
 447 0 l 1,16,-1
 363 0 l 1,17,-1
 363 429 l 1,18,-1
 183 429 l 1,19,-1
 183 0 l 1,20,-1
 99 0 l 1,21,-1
 99 429 l 1,22,-1
 15 429 l 1,23,-1
 15 496 l 1,24,-1
 99 496 l 1,25,-1
 99 570 l 2,26,27
 99 651 99 651 126 678.5 c 128,-1,28
 153 706 153 706 232 706 c 2,29,-1
 286 706 l 1,30,-1
 286 635 l 1,31,-1
 234 635 l 2,10,11
EndSplineSet
Ligature2: "'liga' Standard Ligatures lookup 0 subtable" f i
LCarets2: 1 286
EndChar

StartChar: f_f_i
Encoding: 64259 64259 421
Width: 791
GlyphClass: 3
LigCaretCntFixed: 1
Flags: W
LayerCount: 2
Fore
SplineSet
732 653 m 128,-1,1
 732 627 732 627 713.5 608.5 c 128,-1,2
 695 590 695 590 669 590 c 128,-1,3
 643 590 643 590 625 608.5 c 128,-1,4
 607 627 607 627 607 653 c 0,5,6
 607 678 607 678 625.5 696.5 c 128,-1,7
 644 715 644 715 669 715 c 0,8,9
 695 715 695 715 713.5 697 c 128,-1,0
 732 679 732 679 732 653 c 128,-1,1
498 635 m 2,10,11
 467 635 467 635 457 622 c 128,-1,12
 447 609 447 609 447 571 c 2,13,-1
 447 496 l 1,14,-1
 711 496 l 1,15,-1
 711 0 l 1,16,-1
 627 0 l 1,17,-1
 627 429 l 1,18,-1
 447 429 l 1,19,-1
 447 0 l 1,20,-1
 363 0 l 1,21,-1
 363 429 l 1,22,-1
 183 429 l 1,23,-1
 183 0 l 1,24,-1
 99 0 l 1,25,-1
 99 429 l 1,26,-1
 15 429 l 1,27,-1
 15 496 l 1,28,-1
 99 496 l 1,29,-1
 99 570 l 2,30,31
 99 651 99 651 126 678.5 c 128,-1,32
 153 706 153 706 232 706 c 2,33,-1
 286 706 l 1,34,-1
 286 635 l 1,35,-1
 234 635 l 2,36,37
 203 635 203 635 193 622 c 128,-1,38
 183 609 183 609 183 571 c 2,39,-1
 183 496 l 1,40,-1
 363 496 l 1,41,-1
 363 570 l 2,42,43
 363 651 363 651 390 678.5 c 128,-1,44
 417 706 417 706 496 706 c 2,45,-1
 550 706 l 1,46,-1
 550 635 l 1,47,-1
 498 635 l 2,10,11
EndSplineSet
Ligature2: "'liga' Standard Ligatures lookup 0 subtable" f f i
LCarets2: 2 288 550
EndChar

StartChar: f_f
Encoding: 64256 64256 424
Width: 575
GlyphClass: 3
LigCaretCntFixed: 1
Flags: W
LayerCount: 2
Fore
SplineSet
498 635 m 2,0,1
 467 635 467 635 457 622 c 128,-1,2
 447 609 447 609 447 571 c 2,3,-1
 447 496 l 1,4,-1
 550 496 l 1,5,-1
 550 429 l 1,6,-1
 447 429 l 1,7,-1
 447 0 l 1,8,-1
 363 0 l 1,9,-1
 363 429 l 1,10,-1
 183 429 l 1,11,-1
 183 0 l 1,12,-1
 99 0 l 1,13,-1
 99 429 l 1,14,-1
 15 429 l 1,15,-1
 15 496 l 1,16,-1
 99 496 l 1,17,-1
 99 570 l 2,18,19
 99 651 99 651 126 678.5 c 128,-1,20
 153 706 153 706 232 706 c 2,21,-1
 286 706 l 1,22,-1
 286 635 l 1,23,-1
 234 635 l 2,24,25
 203 635 203 635 193 622 c 128,-1,26
 183 609 183 609 183 571 c 2,27,-1
 183 496 l 1,28,-1
 363 496 l 1,29,-1
 363 570 l 2,30,31
 363 651 363 651 390 678.5 c 128,-1,32
 417 706 417 706 496 706 c 2,33,-1
 550 706 l 1,34,-1
 550 635 l 1,35,-1
 498 635 l 2,0,1
EndSplineSet
Ligature2: "'liga' Standard Ligatures lookup 0 subtable" f f
LCarets2: 1 288
EndChar

StartChar: dong
Encoding: 8363 8363 425
Width: 603
GlyphClass: 2
Flags: W
LayerCount: 2
Fore
SplineSet
50 -129 m 1,0,-1
 50 -62 l 1,1,-1
 553 -62 l 1,2,-1
 553 -129 l 1,3,-1
 50 -129 l 1,0,-1
273 432 m 128,-1,5
 207 432 207 432 169.5 382.5 c 128,-1,6
 132 333 132 333 132 246 c 128,-1,7
 132 159 132 159 169.5 109.5 c 128,-1,8
 207 60 207 60 273 60 c 128,-1,9
 339 60 339 60 376.5 109.5 c 128,-1,10
 414 159 414 159 414 246 c 128,-1,11
 414 333 414 333 376.5 382.5 c 128,-1,4
 339 432 339 432 273 432 c 128,-1,5
412 75 m 1,12,13
 365 -12 365 -12 251 -12 c 0,14,15
 157 -12 157 -12 97.5 60.5 c 128,-1,16
 38 133 38 133 38 246 c 128,-1,17
 38 359 38 359 97.5 431.5 c 128,-1,18
 157 504 157 504 251 504 c 0,19,20
 363 504 363 504 412 418 c 1,21,-1
 412 548 l 1,22,-1
 249 548 l 1,23,-1
 249 615 l 1,24,-1
 412 615 l 1,25,-1
 412 668 l 1,26,-1
 496 668 l 1,27,-1
 496 615 l 1,28,-1
 578 615 l 1,29,-1
 578 548 l 1,30,-1
 496 548 l 1,31,-1
 496 187 l 2,32,33
 496 98 496 98 513 0 c 1,34,-1
 434 0 l 1,35,-1
 412 75 l 1,12,13
EndSplineSet
EndChar

StartChar: uni0237
Encoding: 567 567 461
Width: 254
GlyphClass: 2
Flags: W
AnchorPoint: "Anchor-0" 134 496 basechar 0
LayerCount: 2
Fore
SplineSet
174 7 m 2,0,1
 174 -90 174 -90 136 -125.5 c 128,-1,2
 98 -161 98 -161 -3 -161 c 2,3,-1
 -58 -159 l 1,4,-1
 -58 -86 l 1,5,-1
 -11 -87 l 2,6,7
 52 -87 52 -87 71 -68.5 c 128,-1,8
 90 -50 90 -50 90 12 c 2,9,-1
 90 496 l 1,10,-1
 174 496 l 1,11,-1
 174 7 l 2,0,1
EndSplineSet
EndChar

StartChar: uni2010
Encoding: 8208 8208 476
Width: 328
GlyphClass: 2
Flags: W
LayerCount: 2
Fore
SplineSet
38 208 m 1,0,-1
 38 289 l 1,1,-1
 290 289 l 1,2,-1
 290 208 l 1,3,-1
 38 208 l 1,0,-1
EndSplineSet
EndChar

StartChar: Ldot
Encoding: 319 319 483
Width: 539
GlyphClass: 2
Flags: W
LayerCount: 2
Fore
SplineSet
429 316 m 0,0,1
 429 289 429 289 409.5 269.5 c 128,-1,2
 390 250 390 250 364 250 c 128,-1,3
 338 250 338 250 319 269.5 c 128,-1,4
 300 289 300 289 300 316 c 0,5,6
 300 342 300 342 319 361 c 128,-1,7
 338 380 338 380 364 380 c 128,-1,8
 390 380 390 380 409.5 361 c 128,-1,9
 429 342 429 342 429 316 c 0,0,1
76 0 m 1,10,-1
 76 668 l 1,11,-1
 170 668 l 1,12,-1
 170 81 l 1,13,-1
 529 81 l 1,14,-1
 529 0 l 1,15,-1
 76 0 l 1,10,-1
EndSplineSet
EndChar

StartChar: ldot
Encoding: 320 320 484
Width: 370
GlyphClass: 2
Flags: W
LayerCount: 2
Fore
SplineSet
360 315 m 0,0,1
 360 288 360 288 341 269 c 128,-1,2
 322 250 322 250 295 250 c 0,3,4
 269 250 269 250 250 269 c 128,-1,5
 231 288 231 288 231 315 c 0,6,7
 231 341 231 341 250 360 c 128,-1,8
 269 379 269 379 295 379 c 0,9,10
 322 379 322 379 341 360 c 128,-1,11
 360 341 360 341 360 315 c 0,0,1
154 138 m 2,12,13
 154 98 154 98 163.5 86 c 128,-1,14
 173 74 173 74 205 74 c 2,15,-1
 224 74 l 1,16,-1
 224 0 l 1,17,-1
 187 0 l 2,18,19
 116 0 116 0 93 24 c 128,-1,20
 70 48 70 48 70 124 c 2,21,-1
 70 668 l 1,22,-1
 154 668 l 1,23,-1
 154 138 l 2,12,13
EndSplineSet
EndChar

StartChar: uni031B
Encoding: 795 795 506
Width: 324
GlyphClass: 2
Flags: W
LayerCount: 2
Fore
SplineSet
134 501 m 2,0,1
 205 501 205 501 205 578 c 2,2,-1
 205 616 l 1,3,-1
 284 616 l 1,4,-1
 284 575 l 2,5,6
 284 427 284 427 144 427 c 2,7,-1
 0 427 l 1,8,-1
 0 501 l 1,9,-1
 134 501 l 2,0,1
EndSplineSet
EndChar

StartChar: Ohorn
Encoding: 416 416 507
Width: 727
GlyphClass: 2
Flags: W
AnchorPoint: "Anchor-2" 654 10 basechar 0
AnchorPoint: "Anchor-1" 364 0 basechar 0
AnchorPoint: "Anchor-0" 364 658 basechar 0
LayerCount: 2
Fore
SplineSet
677 329 m 0,0,1
 677 178 677 178 590 83 c 128,-1,2
 503 -12 503 -12 364 -12 c 0,3,4
 226 -12 226 -12 138 82.5 c 128,-1,5
 50 177 50 177 50 325 c 0,6,7
 50 480 50 480 136.5 575 c 128,-1,8
 223 670 223 670 364 670 c 2,9,-1
 577 670 l 2,10,11
 648 670 648 670 648 747 c 2,12,-1
 648 765 l 1,13,-1
 727 765 l 1,14,-1
 727 744 l 2,15,16
 727 602 727 602 569 596 c 1,17,18
 621 550 621 550 649 480.5 c 128,-1,19
 677 411 677 411 677 329 c 0,0,1
146 329 m 0,20,21
 146 212 146 212 206.5 139.5 c 128,-1,22
 267 67 267 67 364 67 c 128,-1,23
 461 67 461 67 521 139.5 c 128,-1,24
 581 212 581 212 581 330 c 0,25,26
 581 447 581 447 521 519 c 128,-1,27
 461 591 461 591 364 591 c 0,28,29
 266 591 266 591 206 519 c 128,-1,30
 146 447 146 447 146 329 c 0,20,21
EndSplineSet
EndChar

StartChar: ohorn
Encoding: 417 417 508
Width: 570
GlyphClass: 2
Flags: W
AnchorPoint: "Anchor-2" 497 10 basechar 0
AnchorPoint: "Anchor-1" 276 0 basechar 0
AnchorPoint: "Anchor-0" 276 486 basechar 0
LayerCount: 2
Fore
SplineSet
128 240 m 0,0,1
 128 163 128 163 170 112.5 c 128,-1,2
 212 62 212 62 276 62 c 0,3,4
 341 62 341 62 382.5 112.5 c 128,-1,5
 424 163 424 163 424 242 c 0,6,7
 424 318 424 318 382 369 c 128,-1,8
 340 420 340 420 277 420 c 0,9,10
 212 420 212 420 170 369.5 c 128,-1,11
 128 319 128 319 128 240 c 0,0,1
440 421 m 1,12,13
 514 371 514 371 514 240 c 0,14,15
 514 129 514 129 447.5 58.5 c 128,-1,16
 381 -12 381 -12 276 -12 c 128,-1,17
 171 -12 171 -12 104.5 59 c 128,-1,18
 38 130 38 130 38 242 c 0,19,20
 38 352 38 352 105 423 c 128,-1,21
 172 494 172 494 276 494 c 2,22,-1
 439 494 l 2,23,24
 510 494 510 494 510 571 c 2,25,-1
 510 589 l 1,26,-1
 589 589 l 1,27,-1
 589 568 l 2,28,29
 589 429 589 429 440 421 c 1,12,13
EndSplineSet
EndChar

StartChar: Uhorn
Encoding: 431 431 509
Width: 710
GlyphClass: 2
Flags: W
AnchorPoint: "Anchor-2" 427 0 basechar 0
AnchorPoint: "Anchor-1" 345 0 basechar 0
AnchorPoint: "Anchor-0" 345 668 basechar 0
LayerCount: 2
Fore
SplineSet
614 279 m 2,0,1
 614 128 614 128 550 58 c 128,-1,2
 486 -12 486 -12 346 -12 c 128,-1,3
 206 -12 206 -12 141 58 c 128,-1,4
 76 128 76 128 76 279 c 2,5,-1
 76 668 l 1,6,-1
 170 668 l 1,7,-1
 170 272 l 2,8,9
 170 167 170 167 212 118 c 128,-1,10
 254 69 254 69 345 69 c 128,-1,11
 436 69 436 69 478 118 c 128,-1,12
 520 167 520 167 520 272 c 2,13,-1
 520 668 l 1,14,-1
 583 668 l 2,15,16
 662 668 662 668 662 757 c 2,17,-1
 662 775 l 1,18,-1
 741 775 l 1,19,-1
 741 754 l 2,20,21
 741 679 741 679 710 640.5 c 128,-1,22
 679 602 679 602 614 594 c 1,23,-1
 614 279 l 2,0,1
EndSplineSet
EndChar

StartChar: uhorn
Encoding: 432 432 510
Width: 564
GlyphClass: 2
Flags: W
AnchorPoint: "Anchor-2" 466 0 basechar 0
AnchorPoint: "Anchor-1" 268 0 basechar 0
AnchorPoint: "Anchor-0" 267 496 basechar 0
LayerCount: 2
Fore
SplineSet
255 62 m 0,0,1
 316 62 316 62 349 104 c 128,-1,2
 382 146 382 146 382 224 c 2,3,-1
 382 497 l 1,4,-1
 449 497 l 2,5,6
 520 497 520 497 520 581 c 2,7,-1
 520 599 l 1,8,-1
 595 599 l 1,9,-1
 595 578 l 2,10,11
 595 503 595 503 565 467.5 c 128,-1,12
 535 432 535 432 466 428 c 1,13,-1
 466 0 l 1,14,-1
 403 0 l 1,15,-1
 382 72 l 1,16,17
 332 -12 332 -12 229 -12 c 0,18,19
 68 -12 68 -12 68 180 c 2,20,-1
 68 497 l 1,21,-1
 152 497 l 1,22,-1
 152 200 l 2,23,24
 152 128 152 128 177 95 c 128,-1,25
 202 62 202 62 255 62 c 0,0,1
EndSplineSet
EndChar

StartChar: dotbelowcomb
Encoding: 803 803 595
Width: 205
GlyphClass: 4
Flags: W
AnchorPoint: "Anchor-3" 90 -207 basemark 0
AnchorPoint: "Anchor-3" 90 0 mark 0
AnchorPoint: "Anchor-1" 90 0 mark 0
LayerCount: 2
Fore
SplineSet
154 -142 m 128,-1,1
 154 -169 154 -169 135 -188 c 128,-1,2
 116 -207 116 -207 90 -207 c 128,-1,3
 64 -207 64 -207 45 -188 c 128,-1,4
 26 -169 26 -169 26 -142 c 128,-1,5
 26 -115 26 -115 44.5 -96.5 c 128,-1,6
 63 -78 63 -78 90 -78 c 128,-1,7
 117 -78 117 -78 135.5 -96.5 c 128,-1,0
 154 -115 154 -115 154 -142 c 128,-1,1
EndSplineSet
EndChar

StartChar: hookabovecomb
Encoding: 777 777 596
Width: 157
GlyphClass: 4
Flags: W
AnchorPoint: "Anchor-4" 81 744 basemark 0
AnchorPoint: "Anchor-4" 67 496 mark 0
AnchorPoint: "Anchor-0" 67 496 mark 0
LayerCount: 2
Fore
SplineSet
38 686 m 0,0,1
 26 686 26 686 0 678 c 1,2,-1
 0 732 l 1,3,4
 34 744 34 744 64 744 c 0,5,6
 104 744 104 744 130.5 720.5 c 128,-1,7
 157 697 157 697 157 662 c 0,8,9
 157 634 157 634 146.5 615 c 128,-1,10
 136 596 136 596 107 571 c 1,11,-1
 30 571 l 1,12,13
 63 598 63 598 75 614 c 128,-1,14
 87 630 87 630 87 647 c 0,15,16
 87 665 87 665 74 675.5 c 128,-1,17
 61 686 61 686 38 686 c 0,0,1
EndSplineSet
EndChar

StartChar: longs
Encoding: 383 383 597
Width: 311
GlyphClass: 2
Flags: W
AnchorPoint: "Anchor-0" 90 668 basechar 0
LayerCount: 2
Fore
SplineSet
234 635 m 2,0,1
 203 635 203 635 193 622 c 128,-1,2
 183 609 183 609 183 571 c 2,3,-1
 183 0 l 1,4,-1
 99 0 l 1,5,-1
 99 429 l 1,6,-1
 15 429 l 1,7,-1
 15 496 l 1,8,-1
 99 496 l 1,9,-1
 99 570 l 2,10,11
 99 651 99 651 126 678.5 c 128,-1,12
 153 706 153 706 232 706 c 2,13,-1
 286 706 l 1,14,-1
 286 635 l 1,15,-1
 234 635 l 2,0,1
EndSplineSet
EndChar

StartChar: uniFFFD
Encoding: 65533 65533 598
Width: 523
GlyphClass: 2
Flags: W
LayerCount: 2
Fore
SplineSet
77 21 m 1,0,-1
 447 21 l 1,1,-1
 262 329 l 1,2,-1
 77 21 l 1,0,-1
69 49 m 1,3,-1
 249 350 l 1,4,-1
 69 650 l 1,5,-1
 69 49 l 1,3,-1
455 47 m 1,6,-1
 455 652 l 1,7,-1
 274 350 l 1,8,-1
 455 47 l 1,6,-1
261 371 m 1,9,-1
 447 680 l 1,10,-1
 76 680 l 1,11,-1
 261 371 l 1,9,-1
48 0 m 1,12,-1
 48 700 l 1,13,-1
 475 700 l 1,14,-1
 475 0 l 1,15,-1
 48 0 l 1,12,-1
EndSplineSet
EndChar

StartChar: uni0256
Encoding: 598 598 627
Width: 579
GlyphClass: 2
Flags: W
AnchorPoint: "Anchor-1" 282 0 basechar 0
AnchorPoint: "Anchor-0" 251 496 basechar 0
LayerCount: 2
Fore
SplineSet
273 432 m 128,-1,1
 207 432 207 432 169.5 382.5 c 128,-1,2
 132 333 132 333 132 246 c 128,-1,3
 132 159 132 159 169.5 109.5 c 128,-1,4
 207 60 207 60 273 60 c 128,-1,5
 339 60 339 60 376.5 109.5 c 128,-1,6
 414 159 414 159 414 246 c 128,-1,7
 414 333 414 333 376.5 382.5 c 128,-1,0
 339 432 339 432 273 432 c 128,-1,1
496 668 m 1,8,-1
 496 -23 l 2,9,10
 496 -63 496 -63 505.5 -75 c 128,-1,11
 515 -87 515 -87 547 -87 c 2,12,-1
 586 -87 l 1,13,-1
 586 -161 l 1,14,-1
 529 -161 l 2,15,16
 458 -161 458 -161 435 -137 c 128,-1,17
 412 -113 412 -113 412 -37 c 2,18,-1
 412 75 l 1,19,20
 365 -12 365 -12 251 -12 c 0,21,22
 157 -12 157 -12 97.5 60.5 c 128,-1,23
 38 133 38 133 38 246 c 128,-1,24
 38 359 38 359 97.5 431.5 c 128,-1,25
 157 504 157 504 251 504 c 0,26,27
 363 504 363 504 412 418 c 1,28,-1
 412 668 l 1,29,-1
 496 668 l 1,8,-1
EndSplineSet
EndChar

StartChar: Eng
Encoding: 330 330 629
Width: 689
GlyphClass: 2
Flags: W
AnchorPoint: "Anchor-1" 311 0 basechar 0
AnchorPoint: "Anchor-0" 362 668 basechar 0
LayerCount: 2
Fore
SplineSet
613 668 m 1,0,-1
 613 -37 l 2,1,2
 613 -113 613 -113 590 -137 c 128,-1,3
 567 -161 567 -161 496 -161 c 2,4,-1
 429 -161 l 1,5,-1
 429 -87 l 1,6,-1
 468 -87 l 2,7,8
 500 -87 500 -87 509.5 -75.5 c 128,-1,9
 519 -64 519 -64 519 -24 c 2,10,-1
 519 0 l 1,11,-1
 475 0 l 1,12,-1
 170 571 l 1,13,-1
 170 0 l 1,14,-1
 76 0 l 1,15,-1
 76 668 l 1,16,-1
 215 668 l 1,17,-1
 519 100 l 1,18,-1
 519 668 l 1,19,-1
 613 668 l 1,0,-1
EndSplineSet
EndChar

StartChar: eng
Encoding: 331 331 630
Width: 546
GlyphClass: 2
Flags: W
AnchorPoint: "Anchor-1" 257 0 basechar 0
AnchorPoint: "Anchor-0" 288 496 basechar 0
LayerCount: 2
Fore
SplineSet
478 314 m 2,0,-1
 478 -37 l 2,1,2
 478 -113 478 -113 455 -137 c 128,-1,3
 432 -161 432 -161 361 -161 c 2,4,-1
 304 -161 l 1,5,-1
 304 -87 l 1,6,-1
 343 -87 l 2,7,8
 375 -87 375 -87 384.5 -75 c 128,-1,9
 394 -63 394 -63 394 -23 c 2,10,-1
 394 289 l 2,11,12
 394 366 394 366 369 399 c 128,-1,13
 344 432 344 432 285 432 c 0,14,15
 222 432 222 432 188 389.5 c 128,-1,16
 154 347 154 347 154 269 c 2,17,-1
 154 0 l 1,18,-1
 70 0 l 1,19,-1
 70 496 l 1,20,-1
 132 496 l 1,21,-1
 154 421 l 1,22,23
 204 504 204 504 314 504 c 0,24,25
 478 504 478 504 478 314 c 2,0,-1
EndSplineSet
EndChar

StartChar: uni019D
Encoding: 413 413 631
Width: 689
GlyphClass: 2
Flags: W
AnchorPoint: "Anchor-1" 311 0 basechar 0
AnchorPoint: "Anchor-0" 362 668 basechar 0
LayerCount: 2
Fore
SplineSet
170 571 m 1,0,-1
 170 0 l 2,1,2
 170 -107 170 -107 150.5 -134 c 128,-1,3
 131 -161 131 -161 53 -161 c 2,4,-1
 -14 -161 l 1,5,-1
 -14 -87 l 1,6,-1
 25 -87 l 2,7,8
 57 -87 57 -87 66.5 -75 c 128,-1,9
 76 -63 76 -63 76 -23 c 2,10,-1
 76 668 l 1,11,-1
 215 668 l 1,12,-1
 519 100 l 1,13,-1
 519 668 l 1,14,-1
 613 668 l 1,15,-1
 613 0 l 1,16,-1
 475 0 l 1,17,-1
 170 571 l 1,0,-1
EndSplineSet
EndChar

StartChar: uni019E
Encoding: 414 414 632
Width: 546
GlyphClass: 2
Flags: W
AnchorPoint: "Anchor-1" 257 0 basechar 0
AnchorPoint: "Anchor-0" 288 496 basechar 0
LayerCount: 2
Fore
SplineSet
285 432 m 0,0,1
 222 432 222 432 188 389.5 c 128,-1,2
 154 347 154 347 154 269 c 2,3,-1
 154 0 l 1,4,-1
 70 0 l 1,5,-1
 70 496 l 1,6,-1
 132 496 l 1,7,-1
 154 421 l 1,8,9
 204 504 204 504 314 504 c 0,10,11
 478 504 478 504 478 314 c 2,12,-1
 478 -161 l 1,13,-1
 394 -161 l 1,14,-1
 394 289 l 2,15,16
 394 366 394 366 369 399 c 128,-1,17
 344 432 344 432 285 432 c 0,0,1
EndSplineSet
EndChar

StartChar: uni0272
Encoding: 626 626 633
Width: 546
GlyphClass: 2
Flags: W
AnchorPoint: "Anchor-1" 257 0 basechar 0
AnchorPoint: "Anchor-0" 288 496 basechar 0
LayerCount: 2
Fore
SplineSet
70 496 m 1,0,-1
 132 496 l 1,1,-1
 154 421 l 1,2,3
 204 504 204 504 314 504 c 0,4,5
 478 504 478 504 478 314 c 2,6,-1
 478 0 l 1,7,-1
 394 0 l 1,8,-1
 394 289 l 2,9,10
 394 366 394 366 369 399 c 128,-1,11
 344 432 344 432 285 432 c 0,12,13
 222 432 222 432 188 389.5 c 128,-1,14
 154 347 154 347 154 269 c 2,15,-1
 154 -37 l 2,16,17
 154 -113 154 -113 131 -137 c 128,-1,18
 108 -161 108 -161 37 -161 c 2,19,-1
 -20 -161 l 1,20,-1
 -20 -87 l 1,21,-1
 19 -87 l 2,22,23
 51 -87 51 -87 60.5 -75 c 128,-1,24
 70 -63 70 -63 70 -23 c 2,25,-1
 70 496 l 1,0,-1
EndSplineSet
EndChar

StartChar: uni01EA
Encoding: 490 490 634
Width: 727
GlyphClass: 2
Flags: W
LayerCount: 2
Fore
SplineSet
416 -115 m 0,0,1
 428 -115 428 -115 454 -107 c 1,2,-1
 454 -161 l 1,3,4
 420 -173 420 -173 391 -173 c 0,5,6
 350 -173 350 -173 323.5 -150 c 128,-1,7
 297 -127 297 -127 297 -91 c 0,8,9
 297 -39 297 -39 347 -12 c 1,10,11
 213 -6 213 -6 131.5 89 c 128,-1,12
 50 184 50 184 50 335 c 0,13,14
 50 490 50 490 136.5 585 c 128,-1,15
 223 680 223 680 363 680 c 0,16,17
 504 680 504 680 590.5 585 c 128,-1,18
 677 490 677 490 677 335 c 0,19,20
 677 206 677 206 617.5 117 c 128,-1,21
 558 28 558 28 453 -1 c 1,22,23
 367 -33 367 -33 367 -75 c 0,24,25
 367 -115 367 -115 416 -115 c 0,0,1
146 335 m 128,-1,27
 146 214 146 214 205.5 140.5 c 128,-1,28
 265 67 265 67 363 67 c 0,29,30
 462 67 462 67 521.5 140 c 128,-1,31
 581 213 581 213 581 335 c 0,32,33
 581 456 581 456 521.5 528.5 c 128,-1,34
 462 601 462 601 363 601 c 0,35,36
 265 601 265 601 205.5 528.5 c 128,-1,26
 146 456 146 456 146 335 c 128,-1,27
EndSplineSet
EndChar

StartChar: uni01EB
Encoding: 491 491 635
Width: 552
GlyphClass: 2
Flags: W
LayerCount: 2
Fore
SplineSet
317 -115 m 0,0,1
 329 -115 329 -115 355 -107 c 1,2,-1
 355 -161 l 1,3,4
 320 -173 320 -173 292 -173 c 0,5,6
 251 -173 251 -173 224.5 -150 c 128,-1,7
 198 -127 198 -127 198 -91 c 0,8,9
 198 -38 198 -38 249 -11 c 1,10,11
 154 -2 154 -2 96 68.5 c 128,-1,12
 38 139 38 139 38 246 c 0,13,14
 38 361 38 361 104 432.5 c 128,-1,15
 170 504 170 504 276 504 c 0,16,17
 383 504 383 504 448.5 432.5 c 128,-1,18
 514 361 514 361 514 246 c 0,19,20
 514 155 514 155 471.5 89.5 c 128,-1,21
 429 24 429 24 354 0 c 0,22,23
 268 -32 268 -32 268 -75 c 0,24,25
 268 -115 268 -115 317 -115 c 0,0,1
128 246 m 128,-1,27
 128 164 128 164 169 113 c 128,-1,28
 210 62 210 62 276 62 c 128,-1,29
 342 62 342 62 383 113 c 128,-1,30
 424 164 424 164 424 246 c 128,-1,31
 424 328 424 328 383 379 c 128,-1,32
 342 430 342 430 276 430 c 128,-1,33
 210 430 210 430 169 379 c 128,-1,26
 128 328 128 328 128 246 c 128,-1,27
EndSplineSet
EndChar

StartChar: uni0197
Encoding: 407 407 636
Width: 414
GlyphClass: 2
Flags: W
AnchorPoint: "Anchor-2" 273 0 basechar 0
AnchorPoint: "Anchor-1" 207 0 basechar 0
AnchorPoint: "Anchor-0" 207 668 basechar 0
LayerCount: 2
Fore
SplineSet
66 0 m 1,0,-1
 66 74 l 1,1,-1
 160 74 l 1,2,-1
 160 297 l 1,3,-1
 66 297 l 1,4,-1
 66 371 l 1,5,-1
 160 371 l 1,6,-1
 160 594 l 1,7,-1
 66 594 l 1,8,-1
 66 668 l 1,9,-1
 348 668 l 1,10,-1
 348 594 l 1,11,-1
 254 594 l 1,12,-1
 254 371 l 1,13,-1
 348 371 l 1,14,-1
 348 297 l 1,15,-1
 254 297 l 1,16,-1
 254 74 l 1,17,-1
 348 74 l 1,18,-1
 348 0 l 1,19,-1
 66 0 l 1,0,-1
EndSplineSet
EndChar

StartChar: uni0268
Encoding: 616 616 637
Width: 278
GlyphClass: 2
Flags: W
AnchorPoint: "Anchor-2" 198 0 basechar 0
LayerCount: 2
Fore
SplineSet
219 653 m 128,-1,1
 219 627 219 627 200.5 608.5 c 128,-1,2
 182 590 182 590 156 590 c 128,-1,3
 130 590 130 590 112 608.5 c 128,-1,4
 94 627 94 627 94 653 c 0,5,6
 94 678 94 678 112 696.5 c 128,-1,7
 130 715 130 715 156 715 c 128,-1,8
 182 715 182 715 200.5 697 c 128,-1,0
 219 679 219 679 219 653 c 128,-1,1
45 252 m 1,9,-1
 45 319 l 1,10,-1
 114 319 l 1,11,-1
 114 429 l 1,12,-1
 45 429 l 1,13,-1
 45 496 l 1,14,-1
 198 496 l 1,15,-1
 198 319 l 1,16,-1
 267 319 l 1,17,-1
 267 252 l 1,18,-1
 198 252 l 1,19,-1
 198 0 l 1,20,-1
 114 0 l 1,21,-1
 114 252 l 1,22,-1
 45 252 l 1,9,-1
EndSplineSet
EndChar

StartChar: Tbar
Encoding: 358 358 638
Width: 558
GlyphClass: 2
Flags: W
AnchorPoint: "Anchor-1" 279 0 basechar 0
AnchorPoint: "Anchor-0" 279 668 basechar 0
LayerCount: 2
Fore
SplineSet
122 297 m 1,0,-1
 122 371 l 1,1,-1
 232 371 l 1,2,-1
 232 587 l 1,3,-1
 10 587 l 1,4,-1
 10 668 l 1,5,-1
 548 668 l 1,6,-1
 548 587 l 1,7,-1
 326 587 l 1,8,-1
 326 371 l 1,9,-1
 436 371 l 1,10,-1
 436 297 l 1,11,-1
 326 297 l 1,12,-1
 326 0 l 1,13,-1
 232 0 l 1,14,-1
 232 297 l 1,15,-1
 122 297 l 1,0,-1
EndSplineSet
EndChar

StartChar: tbar
Encoding: 359 359 639
Width: 324
GlyphClass: 2
Flags: W
AnchorPoint: "Anchor-1" 183 0 basechar 0
AnchorPoint: "Anchor-0" 145 621 basechar 0
LayerCount: 2
Fore
SplineSet
188 138 m 2,0,1
 188 98 188 98 197.5 86 c 128,-1,2
 207 74 207 74 239 74 c 2,3,-1
 284 74 l 1,4,-1
 284 0 l 1,5,-1
 221 0 l 2,6,7
 150 0 150 0 127 24 c 128,-1,8
 104 48 104 48 104 124 c 2,9,-1
 104 252 l 1,10,-1
 20 252 l 1,11,-1
 20 319 l 1,12,-1
 104 319 l 1,13,-1
 104 429 l 1,14,-1
 20 429 l 1,15,-1
 20 496 l 1,16,-1
 104 496 l 1,17,-1
 104 621 l 1,18,-1
 188 621 l 1,19,-1
 188 496 l 1,20,-1
 284 496 l 1,21,-1
 284 429 l 1,22,-1
 188 429 l 1,23,-1
 188 319 l 1,24,-1
 284 319 l 1,25,-1
 284 252 l 1,26,-1
 188 252 l 1,27,-1
 188 138 l 2,0,1
EndSplineSet
EndChar

StartChar: uni025C
Encoding: 604 604 641
Width: 419
GlyphClass: 2
Flags: W
AnchorPoint: "Anchor-2" 64 0 basechar 0
AnchorPoint: "Anchor-1" 143 0 basechar 0
AnchorPoint: "Anchor-0" 214 496 basechar 0
LayerCount: 2
Fore
SplineSet
389 142 m 0,0,1
 389 77 389 77 338.5 32.5 c 128,-1,2
 288 -12 288 -12 214 -12 c 0,3,4
 74 -12 74 -12 30 77 c 1,5,-1
 89 115 l 1,6,7
 116 57 116 57 203 57 c 0,8,9
 247 57 247 57 276 81.5 c 128,-1,10
 305 106 305 106 305 144 c 0,11,12
 305 227 305 227 187 227 c 2,13,-1
 144 227 l 1,14,-1
 144 287 l 1,15,-1
 183 287 l 2,16,17
 235 287 235 287 265.5 306.5 c 128,-1,18
 296 326 296 326 296 360 c 128,-1,19
 296 394 296 394 269 415 c 128,-1,20
 242 436 242 436 199 436 c 0,21,22
 163 436 163 436 131 419.5 c 128,-1,23
 99 403 99 403 93 381 c 1,24,-1
 35 419 l 1,25,26
 81 504 81 504 214 504 c 0,27,28
 285 504 285 504 332.5 464 c 128,-1,29
 380 424 380 424 380 365 c 0,30,31
 380 330 380 330 361.5 300 c 128,-1,32
 343 270 343 270 312 257 c 1,33,34
 389 227 389 227 389 142 c 0,0,1
EndSplineSet
EndChar

StartChar: uni2236
Encoding: 8758 8758 642
Width: 205
Flags: W
LayerCount: 2
Fore
SplineSet
167 440 m 0,0,1
 167 413 167 413 148 394 c 128,-1,2
 129 375 129 375 102 375 c 0,3,4
 76 375 76 375 57 394 c 128,-1,5
 38 413 38 413 38 440 c 0,6,7
 38 466 38 466 57 485 c 128,-1,8
 76 504 76 504 102 504 c 0,9,10
 129 504 129 504 148 485 c 128,-1,11
 167 466 167 466 167 440 c 0,0,1
167 52 m 0,12,13
 167 26 167 26 148 7 c 128,-1,14
 129 -12 129 -12 102 -12 c 0,15,16
 76 -12 76 -12 57 7 c 128,-1,17
 38 26 38 26 38 52 c 0,18,19
 38 79 38 79 57 98 c 128,-1,20
 76 117 76 117 102 117 c 0,21,22
 129 117 129 117 148 98 c 128,-1,23
 167 79 167 79 167 52 c 0,12,13
EndSplineSet
EndChar
